<?xml version="1.0" encoding="UTF-8" standalone="no"?>
<svg
   version="1.1"
   width="60.101574mm"
   height="50.101574mm"
   viewBox="0 0 60.101575 50.101575"
   id="svg2357"
   sodipodi:docname="edge_cuts.svg"
   inkscape:version="1.2.2 (b0a8486, 2022-12-01)"
   xmlns:inkscape="http://www.inkscape.org/namespaces/inkscape"
   xmlns:sodipodi="http://sodipodi.sourceforge.net/DTD/sodipodi-0.dtd"
   xmlns="http://www.w3.org/2000/svg"
   xmlns:svg="http://www.w3.org/2000/svg"
   xmlns:rdf="http://www.w3.org/1999/02/22-rdf-syntax-ns#"
   xmlns:cc="http://creativecommons.org/ns#"
   xmlns:dc="http://purl.org/dc/elements/1.1/">
  <defs
     id="defs2361" />
  <sodipodi:namedview
     id="namedview2359"
     pagecolor="#ffffff"
     bordercolor="#666666"
     borderopacity="1.0"
     inkscape:showpageshadow="2"
     inkscape:pageopacity="0.0"
     inkscape:pagecheckerboard="0"
     inkscape:deskcolor="#d1d1d1"
     inkscape:document-units="mm"
     showgrid="false"
     inkscape:zoom="2.5284425"
     inkscape:cx="169.27417"
     inkscape:cy="113.31086"
     inkscape:window-width="1920"
     inkscape:window-height="1027"
     inkscape:window-x="0"
     inkscape:window-y="25"
     inkscape:window-maximized="1"
     inkscape:current-layer="svg2357" />
  <title
     id="title1385">SVG Image created as edge_cuts.svg date 2025/09/26 11:04:43 </title>
  <desc
     id="desc1387">Image generated by PCBNEW </desc>
  <g
     style="fill:none;stroke:#000000;stroke-width:0.1;stroke-linecap:round;stroke-linejoin:round"
     id="g1407"
     transform="translate(-94.949213,-79.949213)">
    <path
       style="color:#000000;fill:#000000;stroke:none;stroke-linecap:butt;stroke-linejoin:miter;-inkscape-stroke:none"
       d="M 155,89.949219 A 0.05,0.05 0 0 0 154.94922,90 v 30 A 0.05,0.05 0 0 0 155,120.05078 0.05,0.05 0 0 0 155.05078,120 V 90 A 0.05,0.05 0 0 0 155,89.949219 Z"
       id="path1391" />
    <path
       style="color:#000000;fill:#000000;stroke:none;stroke-linecap:butt;stroke-linejoin:miter;-inkscape-stroke:none"
       d="M 95,89.949219 A 0.05,0.05 0 0 0 94.949219,90 v 30 A 0.05,0.05 0 0 0 95,120.05078 0.05,0.05 0 0 0 95.050781,120 V 90 A 0.05,0.05 0 0 0 95,89.949219 Z"
       id="path1393" />
    <path
       style="color:#000000;fill:#000000;stroke:none;stroke-linecap:butt;stroke-linejoin:miter;-inkscape-stroke:none"
       d="M 105,79.949219 A 0.05,0.05 0 0 0 104.94922,80 0.05,0.05 0 0 0 105,80.050781 h 40 A 0.05,0.05 0 0 0 145.05078,80 0.05,0.05 0 0 0 145,79.949219 Z"
       id="path1395" />
    <path
       style="color:#000000;fill:#000000;stroke:none;stroke-linecap:butt;stroke-linejoin:miter;-inkscape-stroke:none"
       d="M 145,79.949219 A 0.05,0.05 0 0 0 144.94922,80 0.05,0.05 0 0 0 145,80.050781 c 5.49582,0 9.94922,4.453399 9.94922,9.949219 A 0.05,0.05 0 0 0 155,90.050781 0.05,0.05 0 0 0 155.05078,90 c 0,-5.549864 -4.50092,-10.050781 -10.05078,-10.050781 z"
       id="path1397" />
    <path
       style="color:#000000;fill:#000000;stroke:none;stroke-linecap:butt;stroke-linejoin:miter;-inkscape-stroke:none"
       d="M 105,129.94922 A 0.05,0.05 0 0 0 104.94922,130 0.05,0.05 0 0 0 105,130.05078 h 40 A 0.05,0.05 0 0 0 145.05078,130 0.05,0.05 0 0 0 145,129.94922 Z"
       id="path1399" />
    <path
       style="color:#000000;fill:#000000;stroke:none;stroke-linecap:butt;stroke-linejoin:miter;-inkscape-stroke:none"
       d="M 155,119.94922 A 0.05,0.05 0 0 0 154.94922,120 c 0,5.49582 -4.4534,9.94922 -9.94922,9.94922 A 0.05,0.05 0 0 0 144.94922,130 0.05,0.05 0 0 0 145,130.05078 c 5.54986,0 10.05078,-4.50092 10.05078,-10.05078 A 0.05,0.05 0 0 0 155,119.94922 Z"
       id="path1401" />
    <path
       style="color:#000000;fill:#000000;stroke:none;stroke-linecap:butt;stroke-linejoin:miter;-inkscape-stroke:none"
       d="M 95,119.94922 A 0.05,0.05 0 0 0 94.949219,120 c 0,5.54986 4.500917,10.05078 10.050781,10.05078 A 0.05,0.05 0 0 0 105.05078,130 0.05,0.05 0 0 0 105,129.94922 c -5.49582,0 -9.949219,-4.4534 -9.949219,-9.94922 A 0.05,0.05 0 0 0 95,119.94922 Z"
       id="path1403" />
    <path
       style="color:#000000;fill:#000000;stroke:none;stroke-linecap:butt;stroke-linejoin:miter;-inkscape-stroke:none"
       d="M 105,79.949219 C 99.450136,79.949219 94.949219,84.450136 94.949219,90 A 0.05,0.05 0 0 0 95,90.050781 0.05,0.05 0 0 0 95.050781,90 c 0,-5.49582 4.453399,-9.949219 9.949219,-9.949219 A 0.05,0.05 0 0 0 105.05078,80 0.05,0.05 0 0 0 105,79.949219 Z"
       id="path1405" />
  </g>
  <metadata
     id="metadata3388">
    <rdf:RDF>
      <cc:Work
         rdf:about="">
        <dc:title>SVG Image created as edge_cuts.svg date 2025/09/26 11:04:43 </dc:title>
      </cc:Work>
    </rdf:RDF>
  </metadata>
</svg>
