<?xml version="1.0" encoding="UTF-8" standalone="no"?>
<svg
   version="1.1"
   width="60.099998mm"
   height="50.099998mm"
   viewBox="0 0 60.1 50.1"
   id="svg4828"
   sodipodi:docname="edge_cuts.svg"
   inkscape:version="1.2.2 (b0a8486, 2022-12-01)"
   xmlns:inkscape="http://www.inkscape.org/namespaces/inkscape"
   xmlns:sodipodi="http://sodipodi.sourceforge.net/DTD/sodipodi-0.dtd"
   xmlns="http://www.w3.org/2000/svg"
   xmlns:svg="http://www.w3.org/2000/svg"
   xmlns:rdf="http://www.w3.org/1999/02/22-rdf-syntax-ns#"
   xmlns:cc="http://creativecommons.org/ns#"
   xmlns:dc="http://purl.org/dc/elements/1.1/">
  <defs
     id="defs4832" />
  <sodipodi:namedview
     id="namedview4830"
     pagecolor="#ffffff"
     bordercolor="#666666"
     borderopacity="1.0"
     inkscape:showpageshadow="2"
     inkscape:pageopacity="0.0"
     inkscape:pagecheckerboard="0"
     inkscape:deskcolor="#d1d1d1"
     inkscape:document-units="mm"
     showgrid="false"
     inkscape:zoom="3.013584"
     inkscape:cx="88.266995"
     inkscape:cy="119.29318"
     inkscape:window-width="1920"
     inkscape:window-height="1027"
     inkscape:window-x="0"
     inkscape:window-y="25"
     inkscape:window-maximized="1"
     inkscape:current-layer="g200" />
  <title
     id="title182">SVG Image created as space_dice-pcb.svg date 2025/09/09 10:48:57 </title>
  <desc
     id="desc184">Image generated by PCBNEW </desc>
  <metadata
     id="metadata4951">
    <rdf:RDF>
      <cc:Work
         rdf:about="">
        <dc:title>SVG Image created as space_dice-pcb.svg date 2025/09/09 10:48:57 </dc:title>
      </cc:Work>
    </rdf:RDF>
  </metadata>
  <g
     style="fill:#000000;stroke:none;stroke-width:0.1;stroke-linecap:round;stroke-linejoin:round;fill-opacity:1"
     id="g200"
     transform="translate(-94.949213,-79.949213)"
     class="UnoptimicedTransforms">
    <path
       id="path198"
       style="color:#000000;fill:#ff0c0c;fill-opacity:1;stroke:none;stroke-linecap:butt;stroke-linejoin:miter;-inkscape-stroke:none;stroke-opacity:1"
       d="m 107.69922,79.949219 c -7.04103,0 -12.750001,5.708968 -12.750001,12.75 -4.44e-4,0.02823 0.02255,0.05123 0.05078,0.05078 0.02823,4.44e-4 0.05122,-0.02255 0.05078,-0.05078 0,-6.623862 5.088271,-12.056387 11.570411,-12.603171 0.35536,-0.02997 0.7149,-0.04527 1.07803,-0.04527 0.0282,4.44e-4 0.0512,-0.02255 0.0508,-0.05078 4.4e-4,-0.02823 -0.0226,-0.05124 -0.0508,-0.05078 z m 0,50.000001 a 0.05,0.05 0 0 0 -0.0488,0.0508 0.05,0.05 0 0 0 0.0488,0.0508 H 155 A 0.05,0.05 0 0 0 155.05078,130 0.05,0.05 0 0 0 155,129.94922 Z m 0,-50.000001 A 0.05,0.05 0 0 0 107.65039,80 a 0.05,0.05 0 0 0 0.0488,0.05078 H 155 A 0.05,0.05 0 0 0 155.05078,80 0.05,0.05 0 0 0 155,79.949219 Z M 95,117.25 a 0.05,0.05 0 0 0 -0.05078,0.0508 c 0,7.04103 5.70897,12.75 12.75,12.75 A 0.05,0.05 0 0 0 107.75,130 a 0.05,0.05 0 0 0 -0.0508,-0.0508 c -6.98699,0 -12.648439,-5.66145 -12.648439,-12.64844 A 0.05,0.05 0 0 0 95,117.25 Z m 0,-24.599609 a 0.05,0.05 0 0 0 -0.05078,0.04883 v 24.601559 a 0.05,0.05 0 0 0 0.05078,0.0488 0.05,0.05 0 0 0 0.05078,-0.0488 V 92.699219 A 0.05,0.05 0 0 0 95,92.650391 Z M 155,79.949219 A 0.05,0.05 0 0 0 154.94922,80 v 50 A 0.05,0.05 0 0 0 155,130.05078 0.05,0.05 0 0 0 155.05078,130 V 80 A 0.05,0.05 0 0 0 155,79.949219 Z" />
  </g>
</svg>
