<?xml version="1.0" encoding="UTF-8" standalone="no"?>
<!-- Created with Inkscape (http://www.inkscape.org/) -->

<svg
   width="2.4000001in"
   height="2.8in"
   viewBox="0 0 60.960003 71.119998"
   version="1.1"
   id="svg709"
   inkscape:version="1.2.2 (b0a8486, 2022-12-01)"
   sodipodi:docname="label-back-2.4.svg"
   xml:space="preserve"
   xmlns:inkscape="http://www.inkscape.org/namespaces/inkscape"
   xmlns:sodipodi="http://sodipodi.sourceforge.net/DTD/sodipodi-0.dtd"
   xmlns="http://www.w3.org/2000/svg"
   xmlns:svg="http://www.w3.org/2000/svg"><sodipodi:namedview
     id="namedview711"
     pagecolor="#ffffff"
     bordercolor="#666666"
     borderopacity="1.0"
     inkscape:showpageshadow="2"
     inkscape:pageopacity="0.0"
     inkscape:pagecheckerboard="0"
     inkscape:deskcolor="#d1d1d1"
     inkscape:document-units="mm"
     showgrid="false"
     inkscape:zoom="2.3786088"
     inkscape:cx="71.890763"
     inkscape:cy="97.746213"
     inkscape:window-width="1920"
     inkscape:window-height="1027"
     inkscape:window-x="0"
     inkscape:window-y="25"
     inkscape:window-maximized="1"
     inkscape:current-layer="layer1" /><defs
     id="defs706"><rect
       x="38.582279"
       y="41.15443"
       width="54.79493"
       height="76.812645"
       id="rect864" /><clipPath
       id="clip-path-dot-color"><rect
         x="18"
         y="178"
         width="16"
         height="16"
         id="rect567" /><rect
         x="18"
         y="194"
         width="16"
         height="16"
         id="rect569" /><rect
         x="18"
         y="274"
         width="16"
         height="16"
         id="rect571" /><rect
         x="18"
         y="306"
         width="16"
         height="16"
         id="rect573" /><rect
         x="34"
         y="242"
         width="16"
         height="16"
         id="rect575" /><rect
         x="34"
         y="290"
         width="16"
         height="16"
         id="rect577" /><rect
         x="34"
         y="322"
         width="16"
         height="16"
         id="rect579" /><rect
         x="50"
         y="146"
         width="16"
         height="16"
         id="rect581" /><rect
         x="50"
         y="210"
         width="16"
         height="16"
         id="rect583" /><rect
         x="50"
         y="258"
         width="16"
         height="16"
         id="rect585" /><rect
         x="50"
         y="274"
         width="16"
         height="16"
         id="rect587" /><rect
         x="50"
         y="290"
         width="16"
         height="16"
         id="rect589" /><rect
         x="50"
         y="306"
         width="16"
         height="16"
         id="rect591" /><rect
         x="50"
         y="338"
         width="16"
         height="16"
         id="rect593" /><rect
         x="66"
         y="162"
         width="16"
         height="16"
         id="rect595" /><rect
         x="66"
         y="194"
         width="16"
         height="16"
         id="rect597" /><rect
         x="66"
         y="226"
         width="16"
         height="16"
         id="rect599" /><rect
         x="66"
         y="338"
         width="16"
         height="16"
         id="rect601" /><rect
         x="82"
         y="146"
         width="16"
         height="16"
         id="rect603" /><rect
         x="82"
         y="178"
         width="16"
         height="16"
         id="rect605" /><rect
         x="82"
         y="242"
         width="16"
         height="16"
         id="rect607" /><rect
         x="82"
         y="258"
         width="16"
         height="16"
         id="rect609" /><rect
         x="82"
         y="290"
         width="16"
         height="16"
         id="rect611" /><rect
         x="82"
         y="306"
         width="16"
         height="16"
         id="rect613" /><rect
         x="98"
         y="146"
         width="16"
         height="16"
         id="rect615" /><rect
         x="98"
         y="162"
         width="16"
         height="16"
         id="rect617" /><rect
         x="98"
         y="178"
         width="16"
         height="16"
         id="rect619" /><rect
         x="98"
         y="226"
         width="16"
         height="16"
         id="rect621" /><rect
         x="98"
         y="242"
         width="16"
         height="16"
         id="rect623" /><rect
         x="98"
         y="306"
         width="16"
         height="16"
         id="rect625" /><rect
         x="98"
         y="322"
         width="16"
         height="16"
         id="rect627" /><rect
         x="114"
         y="146"
         width="16"
         height="16"
         id="rect629" /><rect
         x="114"
         y="178"
         width="16"
         height="16"
         id="rect631" /><rect
         x="114"
         y="210"
         width="16"
         height="16"
         id="rect633" /><rect
         x="114"
         y="242"
         width="16"
         height="16"
         id="rect635" /><rect
         x="114"
         y="274"
         width="16"
         height="16"
         id="rect637" /><rect
         x="114"
         y="306"
         width="16"
         height="16"
         id="rect639" /><rect
         x="114"
         y="338"
         width="16"
         height="16"
         id="rect641" /><rect
         x="130"
         y="162"
         width="16"
         height="16"
         id="rect643" /><rect
         x="130"
         y="194"
         width="16"
         height="16"
         id="rect645" /><rect
         x="130"
         y="210"
         width="16"
         height="16"
         id="rect647" /><rect
         x="130"
         y="226"
         width="16"
         height="16"
         id="rect649" /><rect
         x="130"
         y="242"
         width="16"
         height="16"
         id="rect651" /><rect
         x="130"
         y="290"
         width="16"
         height="16"
         id="rect653" /><rect
         x="130"
         y="306"
         width="16"
         height="16"
         id="rect655" /><rect
         x="130"
         y="322"
         width="16"
         height="16"
         id="rect657" /><rect
         x="130"
         y="338"
         width="16"
         height="16"
         id="rect659" /><rect
         x="146"
         y="34"
         width="16"
         height="16"
         id="rect661" /><rect
         x="146"
         y="82"
         width="16"
         height="16"
         id="rect663" /><rect
         x="146"
         y="114"
         width="16"
         height="16"
         id="rect665" /><rect
         x="146"
         y="146"
         width="16"
         height="16"
         id="rect667" /><rect
         x="146"
         y="162"
         width="16"
         height="16"
         id="rect669" /><rect
         x="146"
         y="210"
         width="16"
         height="16"
         id="rect671" /><rect
         x="146"
         y="226"
         width="16"
         height="16"
         id="rect673" /><rect
         x="146"
         y="242"
         width="16"
         height="16"
         id="rect675" /><rect
         x="146"
         y="258"
         width="16"
         height="16"
         id="rect677" /><rect
         x="146"
         y="290"
         width="16"
         height="16"
         id="rect679" /><rect
         x="146"
         y="322"
         width="16"
         height="16"
         id="rect681" /><rect
         x="146"
         y="354"
         width="16"
         height="16"
         id="rect683" /><rect
         x="146"
         y="386"
         width="16"
         height="16"
         id="rect685" /><rect
         x="146"
         y="402"
         width="16"
         height="16"
         id="rect687" /><rect
         x="146"
         y="434"
         width="16"
         height="16"
         id="rect689" /><rect
         x="162"
         y="18"
         width="16"
         height="16"
         id="rect691" /><rect
         x="162"
         y="50"
         width="16"
         height="16"
         id="rect693" /><rect
         x="162"
         y="66"
         width="16"
         height="16"
         id="rect695" /><rect
         x="162"
         y="98"
         width="16"
         height="16"
         id="rect697" /><rect
         x="162"
         y="226"
         width="16"
         height="16"
         id="rect699" /><rect
         x="162"
         y="258"
         width="16"
         height="16"
         id="rect701" /><rect
         x="162"
         y="290"
         width="16"
         height="16"
         id="rect703" /><rect
         x="162"
         y="306"
         width="16"
         height="16"
         id="rect705" /><rect
         x="162"
         y="370"
         width="16"
         height="16"
         id="rect707" /><rect
         x="162"
         y="386"
         width="16"
         height="16"
         id="rect709" /><rect
         x="162"
         y="402"
         width="16"
         height="16"
         id="rect711" /><rect
         x="162"
         y="450"
         width="16"
         height="16"
         id="rect713" /><rect
         x="162"
         y="466"
         width="16"
         height="16"
         id="rect715" /><rect
         x="178"
         y="66"
         width="16"
         height="16"
         id="rect717" /><rect
         x="178"
         y="82"
         width="16"
         height="16"
         id="rect719" /><rect
         x="178"
         y="98"
         width="16"
         height="16"
         id="rect721" /><rect
         x="178"
         y="114"
         width="16"
         height="16"
         id="rect723" /><rect
         x="178"
         y="146"
         width="16"
         height="16"
         id="rect725" /><rect
         x="178"
         y="178"
         width="16"
         height="16"
         id="rect727" /><rect
         x="178"
         y="210"
         width="16"
         height="16"
         id="rect729" /><rect
         x="178"
         y="226"
         width="16"
         height="16"
         id="rect731" /><rect
         x="178"
         y="242"
         width="16"
         height="16"
         id="rect733" /><rect
         x="178"
         y="258"
         width="16"
         height="16"
         id="rect735" /><rect
         x="178"
         y="306"
         width="16"
         height="16"
         id="rect737" /><rect
         x="178"
         y="338"
         width="16"
         height="16"
         id="rect739" /><rect
         x="178"
         y="354"
         width="16"
         height="16"
         id="rect741" /><rect
         x="178"
         y="402"
         width="16"
         height="16"
         id="rect743" /><rect
         x="178"
         y="418"
         width="16"
         height="16"
         id="rect745" /><rect
         x="178"
         y="434"
         width="16"
         height="16"
         id="rect747" /><rect
         x="178"
         y="466"
         width="16"
         height="16"
         id="rect749" /><rect
         x="194"
         y="18"
         width="16"
         height="16"
         id="rect751" /><rect
         x="194"
         y="98"
         width="16"
         height="16"
         id="rect753" /><rect
         x="194"
         y="130"
         width="16"
         height="16"
         id="rect755" /><rect
         x="194"
         y="162"
         width="16"
         height="16"
         id="rect757" /><rect
         x="194"
         y="178"
         width="16"
         height="16"
         id="rect759" /><rect
         x="194"
         y="194"
         width="16"
         height="16"
         id="rect761" /><rect
         x="194"
         y="290"
         width="16"
         height="16"
         id="rect763" /><rect
         x="194"
         y="322"
         width="16"
         height="16"
         id="rect765" /><rect
         x="194"
         y="338"
         width="16"
         height="16"
         id="rect767" /><rect
         x="194"
         y="354"
         width="16"
         height="16"
         id="rect769" /><rect
         x="194"
         y="386"
         width="16"
         height="16"
         id="rect771" /><rect
         x="194"
         y="418"
         width="16"
         height="16"
         id="rect773" /><rect
         x="194"
         y="450"
         width="16"
         height="16"
         id="rect775" /><rect
         x="194"
         y="466"
         width="16"
         height="16"
         id="rect777" /><rect
         x="210"
         y="18"
         width="16"
         height="16"
         id="rect779" /><rect
         x="210"
         y="34"
         width="16"
         height="16"
         id="rect781" /><rect
         x="210"
         y="98"
         width="16"
         height="16"
         id="rect783" /><rect
         x="210"
         y="114"
         width="16"
         height="16"
         id="rect785" /><rect
         x="210"
         y="130"
         width="16"
         height="16"
         id="rect787" /><rect
         x="210"
         y="146"
         width="16"
         height="16"
         id="rect789" /><rect
         x="210"
         y="194"
         width="16"
         height="16"
         id="rect791" /><rect
         x="210"
         y="242"
         width="16"
         height="16"
         id="rect793" /><rect
         x="210"
         y="258"
         width="16"
         height="16"
         id="rect795" /><rect
         x="210"
         y="274"
         width="16"
         height="16"
         id="rect797" /><rect
         x="210"
         y="290"
         width="16"
         height="16"
         id="rect799" /><rect
         x="210"
         y="322"
         width="16"
         height="16"
         id="rect801" /><rect
         x="210"
         y="386"
         width="16"
         height="16"
         id="rect803" /><rect
         x="210"
         y="418"
         width="16"
         height="16"
         id="rect805" /><rect
         x="210"
         y="466"
         width="16"
         height="16"
         id="rect807" /><rect
         x="226"
         y="34"
         width="16"
         height="16"
         id="rect809" /><rect
         x="226"
         y="50"
         width="16"
         height="16"
         id="rect811" /><rect
         x="226"
         y="66"
         width="16"
         height="16"
         id="rect813" /><rect
         x="226"
         y="82"
         width="16"
         height="16"
         id="rect815" /><rect
         x="226"
         y="146"
         width="16"
         height="16"
         id="rect817" /><rect
         x="226"
         y="178"
         width="16"
         height="16"
         id="rect819" /><rect
         x="226"
         y="226"
         width="16"
         height="16"
         id="rect821" /><rect
         x="226"
         y="306"
         width="16"
         height="16"
         id="rect823" /><rect
         x="226"
         y="370"
         width="16"
         height="16"
         id="rect825" /><rect
         x="226"
         y="402"
         width="16"
         height="16"
         id="rect827" /><rect
         x="226"
         y="434"
         width="16"
         height="16"
         id="rect829" /><rect
         x="226"
         y="466"
         width="16"
         height="16"
         id="rect831" /><rect
         x="242"
         y="34"
         width="16"
         height="16"
         id="rect833" /><rect
         x="242"
         y="114"
         width="16"
         height="16"
         id="rect835" /><rect
         x="242"
         y="130"
         width="16"
         height="16"
         id="rect837" /><rect
         x="242"
         y="162"
         width="16"
         height="16"
         id="rect839" /><rect
         x="242"
         y="210"
         width="16"
         height="16"
         id="rect841" /><rect
         x="242"
         y="226"
         width="16"
         height="16"
         id="rect843" /><rect
         x="242"
         y="242"
         width="16"
         height="16"
         id="rect845" /><rect
         x="242"
         y="258"
         width="16"
         height="16"
         id="rect847" /><rect
         x="242"
         y="290"
         width="16"
         height="16"
         id="rect849" /><rect
         x="242"
         y="306"
         width="16"
         height="16"
         id="rect851" /><rect
         x="242"
         y="338"
         width="16"
         height="16"
         id="rect853" /><rect
         x="242"
         y="402"
         width="16"
         height="16"
         id="rect855" /><rect
         x="242"
         y="466"
         width="16"
         height="16"
         id="rect857" /><rect
         x="258"
         y="130"
         width="16"
         height="16"
         id="rect859" /><rect
         x="258"
         y="146"
         width="16"
         height="16"
         id="rect861" /><rect
         x="258"
         y="162"
         width="16"
         height="16"
         id="rect863" /><rect
         x="258"
         y="178"
         width="16"
         height="16"
         id="rect865" /><rect
         x="258"
         y="274"
         width="16"
         height="16"
         id="rect867" /><rect
         x="258"
         y="290"
         width="16"
         height="16"
         id="rect869" /><rect
         x="258"
         y="322"
         width="16"
         height="16"
         id="rect871" /><rect
         x="258"
         y="338"
         width="16"
         height="16"
         id="rect873" /><rect
         x="258"
         y="386"
         width="16"
         height="16"
         id="rect875" /><rect
         x="258"
         y="418"
         width="16"
         height="16"
         id="rect877" /><rect
         x="258"
         y="450"
         width="16"
         height="16"
         id="rect879" /><rect
         x="258"
         y="466"
         width="16"
         height="16"
         id="rect881" /><rect
         x="274"
         y="114"
         width="16"
         height="16"
         id="rect883" /><rect
         x="274"
         y="210"
         width="16"
         height="16"
         id="rect885" /><rect
         x="274"
         y="242"
         width="16"
         height="16"
         id="rect887" /><rect
         x="274"
         y="258"
         width="16"
         height="16"
         id="rect889" /><rect
         x="274"
         y="290"
         width="16"
         height="16"
         id="rect891" /><rect
         x="274"
         y="322"
         width="16"
         height="16"
         id="rect893" /><rect
         x="274"
         y="338"
         width="16"
         height="16"
         id="rect895" /><rect
         x="274"
         y="354"
         width="16"
         height="16"
         id="rect897" /><rect
         x="274"
         y="450"
         width="16"
         height="16"
         id="rect899" /><rect
         x="290"
         y="18"
         width="16"
         height="16"
         id="rect901" /><rect
         x="290"
         y="98"
         width="16"
         height="16"
         id="rect903" /><rect
         x="290"
         y="130"
         width="16"
         height="16"
         id="rect905" /><rect
         x="290"
         y="146"
         width="16"
         height="16"
         id="rect907" /><rect
         x="290"
         y="162"
         width="16"
         height="16"
         id="rect909" /><rect
         x="290"
         y="178"
         width="16"
         height="16"
         id="rect911" /><rect
         x="290"
         y="194"
         width="16"
         height="16"
         id="rect913" /><rect
         x="290"
         y="226"
         width="16"
         height="16"
         id="rect915" /><rect
         x="290"
         y="242"
         width="16"
         height="16"
         id="rect917" /><rect
         x="290"
         y="274"
         width="16"
         height="16"
         id="rect919" /><rect
         x="290"
         y="290"
         width="16"
         height="16"
         id="rect921" /><rect
         x="290"
         y="306"
         width="16"
         height="16"
         id="rect923" /><rect
         x="290"
         y="370"
         width="16"
         height="16"
         id="rect925" /><rect
         x="290"
         y="386"
         width="16"
         height="16"
         id="rect927" /><rect
         x="290"
         y="402"
         width="16"
         height="16"
         id="rect929" /><rect
         x="290"
         y="466"
         width="16"
         height="16"
         id="rect931" /><rect
         x="306"
         y="50"
         width="16"
         height="16"
         id="rect933" /><rect
         x="306"
         y="66"
         width="16"
         height="16"
         id="rect935" /><rect
         x="306"
         y="82"
         width="16"
         height="16"
         id="rect937" /><rect
         x="306"
         y="114"
         width="16"
         height="16"
         id="rect939" /><rect
         x="306"
         y="130"
         width="16"
         height="16"
         id="rect941" /><rect
         x="306"
         y="146"
         width="16"
         height="16"
         id="rect943" /><rect
         x="306"
         y="162"
         width="16"
         height="16"
         id="rect945" /><rect
         x="306"
         y="178"
         width="16"
         height="16"
         id="rect947" /><rect
         x="306"
         y="194"
         width="16"
         height="16"
         id="rect949" /><rect
         x="306"
         y="274"
         width="16"
         height="16"
         id="rect951" /><rect
         x="306"
         y="306"
         width="16"
         height="16"
         id="rect953" /><rect
         x="306"
         y="338"
         width="16"
         height="16"
         id="rect955" /><rect
         x="306"
         y="386"
         width="16"
         height="16"
         id="rect957" /><rect
         x="306"
         y="402"
         width="16"
         height="16"
         id="rect959" /><rect
         x="306"
         y="434"
         width="16"
         height="16"
         id="rect961" /><rect
         x="306"
         y="466"
         width="16"
         height="16"
         id="rect963" /><rect
         x="322"
         y="82"
         width="16"
         height="16"
         id="rect965" /><rect
         x="322"
         y="130"
         width="16"
         height="16"
         id="rect967" /><rect
         x="322"
         y="162"
         width="16"
         height="16"
         id="rect969" /><rect
         x="322"
         y="178"
         width="16"
         height="16"
         id="rect971" /><rect
         x="322"
         y="210"
         width="16"
         height="16"
         id="rect973" /><rect
         x="322"
         y="226"
         width="16"
         height="16"
         id="rect975" /><rect
         x="322"
         y="242"
         width="16"
         height="16"
         id="rect977" /><rect
         x="322"
         y="290"
         width="16"
         height="16"
         id="rect979" /><rect
         x="322"
         y="306"
         width="16"
         height="16"
         id="rect981" /><rect
         x="322"
         y="322"
         width="16"
         height="16"
         id="rect983" /><rect
         x="322"
         y="338"
         width="16"
         height="16"
         id="rect985" /><rect
         x="322"
         y="402"
         width="16"
         height="16"
         id="rect987" /><rect
         x="322"
         y="418"
         width="16"
         height="16"
         id="rect989" /><rect
         x="338"
         y="18"
         width="16"
         height="16"
         id="rect991" /><rect
         x="338"
         y="34"
         width="16"
         height="16"
         id="rect993" /><rect
         x="338"
         y="50"
         width="16"
         height="16"
         id="rect995" /><rect
         x="338"
         y="66"
         width="16"
         height="16"
         id="rect997" /><rect
         x="338"
         y="98"
         width="16"
         height="16"
         id="rect999" /><rect
         x="338"
         y="114"
         width="16"
         height="16"
         id="rect1001" /><rect
         x="338"
         y="146"
         width="16"
         height="16"
         id="rect1003" /><rect
         x="338"
         y="162"
         width="16"
         height="16"
         id="rect1005" /><rect
         x="338"
         y="194"
         width="16"
         height="16"
         id="rect1007" /><rect
         x="338"
         y="210"
         width="16"
         height="16"
         id="rect1009" /><rect
         x="338"
         y="226"
         width="16"
         height="16"
         id="rect1011" /><rect
         x="338"
         y="242"
         width="16"
         height="16"
         id="rect1013" /><rect
         x="338"
         y="258"
         width="16"
         height="16"
         id="rect1015" /><rect
         x="338"
         y="290"
         width="16"
         height="16"
         id="rect1017" /><rect
         x="338"
         y="338"
         width="16"
         height="16"
         id="rect1019" /><rect
         x="338"
         y="354"
         width="16"
         height="16"
         id="rect1021" /><rect
         x="338"
         y="370"
         width="16"
         height="16"
         id="rect1023" /><rect
         x="338"
         y="386"
         width="16"
         height="16"
         id="rect1025" /><rect
         x="338"
         y="402"
         width="16"
         height="16"
         id="rect1027" /><rect
         x="338"
         y="418"
         width="16"
         height="16"
         id="rect1029" /><rect
         x="338"
         y="450"
         width="16"
         height="16"
         id="rect1031" /><rect
         x="338"
         y="466"
         width="16"
         height="16"
         id="rect1033" /><rect
         x="354"
         y="146"
         width="16"
         height="16"
         id="rect1035" /><rect
         x="354"
         y="162"
         width="16"
         height="16"
         id="rect1037" /><rect
         x="354"
         y="210"
         width="16"
         height="16"
         id="rect1039" /><rect
         x="354"
         y="226"
         width="16"
         height="16"
         id="rect1041" /><rect
         x="354"
         y="242"
         width="16"
         height="16"
         id="rect1043" /><rect
         x="354"
         y="258"
         width="16"
         height="16"
         id="rect1045" /><rect
         x="354"
         y="274"
         width="16"
         height="16"
         id="rect1047" /><rect
         x="354"
         y="338"
         width="16"
         height="16"
         id="rect1049" /><rect
         x="354"
         y="402"
         width="16"
         height="16"
         id="rect1051" /><rect
         x="354"
         y="434"
         width="16"
         height="16"
         id="rect1053" /><rect
         x="354"
         y="450"
         width="16"
         height="16"
         id="rect1055" /><rect
         x="354"
         y="466"
         width="16"
         height="16"
         id="rect1057" /><rect
         x="370"
         y="226"
         width="16"
         height="16"
         id="rect1059" /><rect
         x="370"
         y="242"
         width="16"
         height="16"
         id="rect1061" /><rect
         x="370"
         y="258"
         width="16"
         height="16"
         id="rect1063" /><rect
         x="370"
         y="290"
         width="16"
         height="16"
         id="rect1065" /><rect
         x="370"
         y="306"
         width="16"
         height="16"
         id="rect1067" /><rect
         x="370"
         y="322"
         width="16"
         height="16"
         id="rect1069" /><rect
         x="370"
         y="338"
         width="16"
         height="16"
         id="rect1071" /><rect
         x="370"
         y="370"
         width="16"
         height="16"
         id="rect1073" /><rect
         x="370"
         y="402"
         width="16"
         height="16"
         id="rect1075" /><rect
         x="370"
         y="466"
         width="16"
         height="16"
         id="rect1077" /><rect
         x="386"
         y="178"
         width="16"
         height="16"
         id="rect1079" /><rect
         x="386"
         y="194"
         width="16"
         height="16"
         id="rect1081" /><rect
         x="386"
         y="210"
         width="16"
         height="16"
         id="rect1083" /><rect
         x="386"
         y="274"
         width="16"
         height="16"
         id="rect1085" /><rect
         x="386"
         y="290"
         width="16"
         height="16"
         id="rect1087" /><rect
         x="386"
         y="306"
         width="16"
         height="16"
         id="rect1089" /><rect
         x="386"
         y="322"
         width="16"
         height="16"
         id="rect1091" /><rect
         x="386"
         y="338"
         width="16"
         height="16"
         id="rect1093" /><rect
         x="386"
         y="402"
         width="16"
         height="16"
         id="rect1095" /><rect
         x="386"
         y="418"
         width="16"
         height="16"
         id="rect1097" /><rect
         x="386"
         y="466"
         width="16"
         height="16"
         id="rect1099" /><rect
         x="402"
         y="146"
         width="16"
         height="16"
         id="rect1101" /><rect
         x="402"
         y="162"
         width="16"
         height="16"
         id="rect1103" /><rect
         x="402"
         y="178"
         width="16"
         height="16"
         id="rect1105" /><rect
         x="402"
         y="194"
         width="16"
         height="16"
         id="rect1107" /><rect
         x="402"
         y="210"
         width="16"
         height="16"
         id="rect1109" /><rect
         x="402"
         y="258"
         width="16"
         height="16"
         id="rect1111" /><rect
         x="402"
         y="290"
         width="16"
         height="16"
         id="rect1113" /><rect
         x="402"
         y="322"
         width="16"
         height="16"
         id="rect1115" /><rect
         x="402"
         y="338"
         width="16"
         height="16"
         id="rect1117" /><rect
         x="402"
         y="354"
         width="16"
         height="16"
         id="rect1119" /><rect
         x="402"
         y="370"
         width="16"
         height="16"
         id="rect1121" /><rect
         x="402"
         y="386"
         width="16"
         height="16"
         id="rect1123" /><rect
         x="402"
         y="402"
         width="16"
         height="16"
         id="rect1125" /><rect
         x="402"
         y="466"
         width="16"
         height="16"
         id="rect1127" /><rect
         x="418"
         y="194"
         width="16"
         height="16"
         id="rect1129" /><rect
         x="418"
         y="242"
         width="16"
         height="16"
         id="rect1131" /><rect
         x="418"
         y="386"
         width="16"
         height="16"
         id="rect1133" /><rect
         x="418"
         y="434"
         width="16"
         height="16"
         id="rect1135" /><rect
         x="418"
         y="450"
         width="16"
         height="16"
         id="rect1137" /><rect
         x="434"
         y="162"
         width="16"
         height="16"
         id="rect1139" /><rect
         x="434"
         y="226"
         width="16"
         height="16"
         id="rect1141" /><rect
         x="434"
         y="242"
         width="16"
         height="16"
         id="rect1143" /><rect
         x="434"
         y="258"
         width="16"
         height="16"
         id="rect1145" /><rect
         x="434"
         y="322"
         width="16"
         height="16"
         id="rect1147" /><rect
         x="434"
         y="338"
         width="16"
         height="16"
         id="rect1149" /><rect
         x="434"
         y="354"
         width="16"
         height="16"
         id="rect1151" /><rect
         x="434"
         y="418"
         width="16"
         height="16"
         id="rect1153" /><rect
         x="434"
         y="450"
         width="16"
         height="16"
         id="rect1155" /><rect
         x="434"
         y="466"
         width="16"
         height="16"
         id="rect1157" /><rect
         x="450"
         y="146"
         width="16"
         height="16"
         id="rect1159" /><rect
         x="450"
         y="178"
         width="16"
         height="16"
         id="rect1161" /><rect
         x="450"
         y="210"
         width="16"
         height="16"
         id="rect1163" /><rect
         x="450"
         y="242"
         width="16"
         height="16"
         id="rect1165" /><rect
         x="450"
         y="274"
         width="16"
         height="16"
         id="rect1167" /><rect
         x="450"
         y="290"
         width="16"
         height="16"
         id="rect1169" /><rect
         x="450"
         y="306"
         width="16"
         height="16"
         id="rect1171" /><rect
         x="450"
         y="338"
         width="16"
         height="16"
         id="rect1173" /><rect
         x="450"
         y="386"
         width="16"
         height="16"
         id="rect1175" /><rect
         x="450"
         y="450"
         width="16"
         height="16"
         id="rect1177" /><rect
         x="450"
         y="466"
         width="16"
         height="16"
         id="rect1179" /><rect
         x="466"
         y="178"
         width="16"
         height="16"
         id="rect1181" /><rect
         x="466"
         y="194"
         width="16"
         height="16"
         id="rect1183" /><rect
         x="466"
         y="290"
         width="16"
         height="16"
         id="rect1185" /><rect
         x="466"
         y="322"
         width="16"
         height="16"
         id="rect1187" /><rect
         x="466"
         y="338"
         width="16"
         height="16"
         id="rect1189" /><rect
         x="466"
         y="354"
         width="16"
         height="16"
         id="rect1191" /><rect
         x="466"
         y="402"
         width="16"
         height="16"
         id="rect1193" /><rect
         x="466"
         y="418"
         width="16"
         height="16"
         id="rect1195" /><rect
         x="466"
         y="450"
         width="16"
         height="16"
         id="rect1197" /></clipPath><clipPath
       id="clip-path-corners-square-color-0-0"><path
         clip-rule="evenodd"
         d="M 18,18 V 130 H 130 V 18 Z m 16,16 h 80 v 80 H 34 Z"
         id="path1200" /></clipPath><clipPath
       id="clip-path-corners-dot-color-0-0"><rect
         x="50"
         y="50"
         width="48"
         height="48"
         id="rect1203" /></clipPath><clipPath
       id="clip-path-corners-square-color-1-0"><path
         clip-rule="evenodd"
         d="M 370,18 V 130 H 482 V 18 Z m 16,16 h 80 v 80 h -80 z"
         transform="rotate(90,426,74)"
         id="path1206" /></clipPath><clipPath
       id="clip-path-corners-dot-color-1-0"><rect
         x="402"
         y="50"
         width="48"
         height="48"
         transform="rotate(90,426,74)"
         id="rect1209" /></clipPath><clipPath
       id="clip-path-corners-square-color-0-1"><path
         clip-rule="evenodd"
         d="M 18,370 V 482 H 130 V 370 Z m 16,16 h 80 v 80 H 34 Z"
         transform="rotate(-90,74,426)"
         id="path1212" /></clipPath><clipPath
       id="clip-path-corners-dot-color-0-1"><rect
         x="50"
         y="402"
         width="48"
         height="48"
         transform="rotate(-90,74,426)"
         id="rect1215" /></clipPath></defs><g
     inkscape:label="Layer 1"
     inkscape:groupmode="layer"
     id="layer1"><text
       xml:space="preserve"
       id="text862"
       style="font-style:normal;font-weight:normal;font-size:3.175px;line-height:1.25;font-family:sans-serif;white-space:pre;shape-inside:url(#rect864);display:inline;fill:#000000;fill-opacity:1;stroke:none"
       transform="translate(-34.642048,-37.292008)"><tspan
         x="38.582031"
         y="44.068435"
         id="tspan3333"><tspan
           style="font-family:'Work Sans';-inkscape-font-specification:'Work Sans'"
           id="tspan3331">Ready to solder? 
</tspan></tspan><tspan
         x="38.582031"
         y="48.054676"
         id="tspan3337"><tspan
           style="font-family:'Work Sans';-inkscape-font-specification:'Work Sans'"
           id="tspan3335">You'll find your new
</tspan></tspan><tspan
         x="38.582031"
         y="52.040916"
         id="tspan3341"><tspan
           style="font-family:'Work Sans';-inkscape-font-specification:'Work Sans'"
           id="tspan3339">DIY Electronics Kit's
</tspan></tspan><tspan
         x="38.582031"
         y="56.027156"
         id="tspan3345"><tspan
           style="font-family:'Work Sans';-inkscape-font-specification:'Work Sans'"
           id="tspan3343">instructions online:
</tspan></tspan><tspan
         x="38.582031"
         y="60.013397"
         id="tspan3351"><tspan
           style="font-weight:600;font-family:'Work Sans';-inkscape-font-specification:'Work Sans Semi-Bold'"
           id="tspan3347">https://oskitone.com/guides</tspan><tspan
           style="font-family:'Work Sans';-inkscape-font-specification:'Work Sans'"
           id="tspan3349">
</tspan></tspan><tspan
         x="38.582031"
         y="63.999637"
         id="tspan3355"><tspan
           style="font-family:'Work Sans';-inkscape-font-specification:'Work Sans'"
           id="tspan3353">
</tspan></tspan><tspan
         x="38.582031"
         y="67.985878"
         id="tspan3359"><tspan
           style="font-family:'Work Sans';-inkscape-font-specification:'Work Sans'"
           id="tspan3357">Need help? (Or just wanna show </tspan></tspan><tspan
         x="38.582031"
         y="71.972114"
         id="tspan3363"><tspan
           style="font-family:'Work Sans';-inkscape-font-specification:'Work Sans'"
           id="tspan3361">off your build?) Email me at </tspan></tspan><tspan
         x="38.582031"
         y="75.958351"
         id="tspan3369"><tspan
           style="font-weight:600;font-family:'Work Sans';-inkscape-font-specification:'Work Sans Semi-Bold'"
           id="tspan3365">tommy@oskitone.com</tspan><tspan
           style="font-family:'Work Sans';-inkscape-font-specification:'Work Sans'"
           id="tspan3367">
</tspan></tspan><tspan
         x="38.582031"
         y="79.944587"
         id="tspan3373"><tspan
           style="font-family:'Work Sans';-inkscape-font-specification:'Work Sans'"
           id="tspan3371">
</tspan></tspan><tspan
         x="38.582031"
         y="83.913334"
         id="tspan3377"><tspan
           style="font-size:2.91042px"
           id="tspan3375">Good luck, take your time, and have </tspan></tspan><tspan
         x="38.582031"
         y="87.882084"
         id="tspan3381"><tspan
           style="font-size:2.91042px"
           id="tspan3379">fun! You can do it! You're the best!
</tspan></tspan><tspan
         x="38.582031"
         y="91.850834"
         id="tspan3385"><tspan
           style="font-size:2.91042px"
           id="tspan3383">
</tspan></tspan><tspan
         x="38.582031"
         y="95.819584"
         id="tspan3389"><tspan
           style="font-size:2.91042px"
           id="tspan3387">Thank you so much for your support.
</tspan></tspan><tspan
         x="38.582031"
         y="99.788334"
         id="tspan3393"><tspan
           style="font-size:2.91042px"
           id="tspan3391">
</tspan></tspan><tspan
         x="38.582031"
         y="103.75708"
         id="tspan3397"><tspan
           style="font-style:italic;font-size:2.91042px;font-family:'Work Sans';-inkscape-font-specification:'Work Sans Italic'"
           id="tspan3395">-Tommy / @oskitone</tspan></tspan></text><g
       id="g1577"
       transform="matrix(0.02781507,0,0,0.02781507,42.615424,4.6179938)"
       style="stroke:#000000;stroke-width:9.52721;stroke-dasharray:none;stroke-opacity:1"><rect
         x="0"
         y="0"
         height="500"
         width="500"
         clip-path="url('#clip-path-background-color')"
         fill="#ffffff"
         id="rect1220"
         style="stroke:#000000;stroke-width:9.52721;stroke-dasharray:none;stroke-opacity:1" /><rect
         x="0"
         y="0"
         height="500"
         width="500"
         clip-path="url(#clip-path-dot-color)"
         fill="#000000"
         id="rect1222"
         style="stroke:#000000;stroke-width:9.52721;stroke-dasharray:none;stroke-opacity:1" /><rect
         x="18"
         y="18"
         height="112"
         width="112"
         clip-path="url(#clip-path-corners-square-color-0-0)"
         fill="#000000"
         id="rect1224"
         style="stroke:#000000;stroke-width:9.52721;stroke-dasharray:none;stroke-opacity:1" /><rect
         x="50"
         y="50"
         height="48"
         width="48"
         clip-path="url(#clip-path-corners-dot-color-0-0)"
         fill="#000000"
         id="rect1226"
         style="stroke:#000000;stroke-width:9.52721;stroke-dasharray:none;stroke-opacity:1" /><rect
         x="370"
         y="18"
         height="112"
         width="112"
         clip-path="url(#clip-path-corners-square-color-1-0)"
         fill="#000000"
         id="rect1228"
         style="stroke:#000000;stroke-width:9.52721;stroke-dasharray:none;stroke-opacity:1" /><rect
         x="402"
         y="50"
         height="48"
         width="48"
         clip-path="url(#clip-path-corners-dot-color-1-0)"
         fill="#000000"
         id="rect1230"
         style="stroke:#000000;stroke-width:9.52721;stroke-dasharray:none;stroke-opacity:1" /><rect
         x="18"
         y="370"
         height="112"
         width="112"
         clip-path="url(#clip-path-corners-square-color-0-1)"
         fill="#000000"
         id="rect1232"
         style="stroke:#000000;stroke-width:9.52721;stroke-dasharray:none;stroke-opacity:1" /><rect
         x="50"
         y="402"
         height="48"
         width="48"
         clip-path="url(#clip-path-corners-dot-color-0-1)"
         fill="#000000"
         id="rect1234"
         style="stroke:#000000;stroke-width:9.52721;stroke-dasharray:none;stroke-opacity:1" /></g></g></svg>
