<?xml version="1.0" encoding="UTF-8" standalone="no"?>
<!-- Created with Inkscape (http://www.inkscape.org/) -->

<svg
   width="2.4000001in"
   height="2.4000001in"
   viewBox="0 0 60.960124 60.960125"
   version="1.1"
   id="svg1838"
   inkscape:version="1.2.2 (b0a8486, 2022-12-01)"
   sodipodi:docname="label_single-2.4.svg"
   xml:space="preserve"
   xmlns:inkscape="http://www.inkscape.org/namespaces/inkscape"
   xmlns:sodipodi="http://sodipodi.sourceforge.net/DTD/sodipodi-0.dtd"
   xmlns="http://www.w3.org/2000/svg"
   xmlns:svg="http://www.w3.org/2000/svg"><sodipodi:namedview
     id="namedview1840"
     pagecolor="#ffffff"
     bordercolor="#666666"
     borderopacity="1.0"
     inkscape:pageshadow="2"
     inkscape:pageopacity="0.0"
     inkscape:pagecheckerboard="0"
     inkscape:document-units="mm"
     showgrid="false"
     units="in"
     inkscape:zoom="2.6722361"
     inkscape:cx="101.78741"
     inkscape:cy="128.91825"
     inkscape:window-width="1920"
     inkscape:window-height="1027"
     inkscape:window-x="0"
     inkscape:window-y="25"
     inkscape:window-maximized="1"
     inkscape:current-layer="svg1838"
     inkscape:showpageshadow="2"
     inkscape:deskcolor="#d1d1d1" /><defs
     id="defs1835" /><rect
     style="fill:none;fill-rule:evenodd;stroke:none;stroke-width:0.200002;stroke-dasharray:none;paint-order:stroke fill markers;stop-color:#000000"
     id="rect10031"
     width="60.960125"
     height="60.960125"
     x="0"
     y="0"
     inkscape:label="bg" /><g
     id="g10086"
     inkscape:label="content"
     transform="translate(0,-0.92062885)"><g
       id="g9950"
       inkscape:label="text"
       transform="translate(-0.84014456,-79.277942)"><text
         xml:space="preserve"
         style="font-size:7.40833px;line-height:1.25;font-family:Orbitron;-inkscape-font-specification:Orbitron;stroke-width:0.264583"
         x="5.4836993"
         y="131.07433"
         id="text8193"
         inkscape:label="SPACE DICE"><tspan
           sodipodi:role="line"
           id="tspan8191"
           style="font-style:normal;font-variant:normal;font-weight:500;font-stretch:normal;font-family:Orbitron;-inkscape-font-specification:'Orbitron Medium';stroke-width:0.264583"
           x="5.4836993"
           y="131.07433">SPACE DICE</tspan></text><text
         xml:space="preserve"
         style="font-style:normal;font-weight:normal;font-size:5.66669px;line-height:0.4;font-family:sans-serif;fill:#000000;fill-opacity:1;stroke:none;stroke-width:0.0154701"
         x="31.098017"
         y="135.897"
         id="text2883-5"
         transform="scale(0.99986051,1.0001395)"
         inkscape:label="DIY Electronics Kit"><tspan
           sodipodi:role="line"
           x="31.098017"
           y="135.897"
           style="font-style:normal;font-variant:normal;font-weight:500;font-stretch:normal;font-size:5.66669px;font-family:'Work Sans';-inkscape-font-specification:'Work Sans Medium';text-align:center;text-anchor:middle;stroke-width:0.0154701"
           id="tspan1162">DIY Electronics Kit</tspan></text><g
         style="font-style:normal;font-weight:normal;font-size:0.527067px;line-height:0%;font-family:sans-serif;letter-spacing:0px;word-spacing:0px;display:inline;fill:#000000;fill-opacity:1;stroke:none;stroke-width:0.0241776px;stroke-linecap:butt;stroke-linejoin:miter;stroke-opacity:1"
         id="text3434"
         transform="matrix(1.8103586,0,0,1.8229653,5.9051916,116.65103)"
         aria-label="OSKITONE"
         inkscape:label="OSKITONE"><path
           id="path349"
           style="letter-spacing:-0.53716px;stroke-width:0.0241776px"
           d="m 4.3312609,2.2905076 q 0,1.1239347 -0.5513067,1.7087463 -0.5513067,0.5848116 -1.6143236,0.5848116 -1.0477873,0 -1.60823174,-0.5878575 Q 3.4458935e-7,3.4083506 3.4458935e-7,2.2844159 3.4458935e-7,1.1726647 0.55435296,0.58785317 1.1117515,-4.2750034e-6 2.1717224,-4.2750034e-6 q 1.0630168,0 1.6112777,0.5817656550034 Q 4.3312609,1.163527 4.3312609,2.2905076 Z m -3.0641689,0 q 0,1.2914589 0.8985386,1.2914589 0.4568841,0 0.6761884,-0.313727 0.2223502,-0.3137271 0.2223502,-0.9777319 0,-0.6670506 -0.2253961,-0.9838236 -0.2223502,-0.31981878 -0.6670507,-0.31981878 -0.9046304,0 -0.9046304,1.30364238 z" /><path
           id="path351"
           style="letter-spacing:-0.494182px;stroke-width:0.0241776px"
           d="m 7.510091,3.1707709 q 0,0.4142415 -0.2101666,0.7371062 Q 7.0897577,4.2276959 6.6937916,4.4074036 6.2978254,4.5840655 5.764794,4.5840655 q -0.4447004,0 -0.7462439,-0.060918 Q 4.7170067,4.4591838 4.3910961,4.3038433 V 3.2316887 Q 4.735282,3.4083506 5.106881,3.508865 5.47848,3.606334 5.7891612,3.606334 q 0.2680386,0 0.3929202,-0.091377 0.1248817,-0.094423 0.1248817,-0.2406256 0,-0.091377 -0.05178,-0.1583864 Q 6.2064486,3.0458892 6.0937505,2.9758337 5.9840984,2.9057781 5.5028472,2.6895197 5.0672844,2.4915366 4.8479801,2.3057371 4.6317217,2.1199376 4.5251154,1.879312 4.421555,1.6386864 4.421555,1.3097299 q 0,-0.61527046 0.4477463,-0.95945642 0.4477464,-0.34418597 1.230541,-0.34418597 0.6914179,0 1.4102487,0.31981882 L 7.1415379,1.2549038 Q 6.5171297,0.96858986 6.0632916,0.96858986 q -0.2345338,0 -0.3411401,0.0822391 -0.1066062,0.082239 -0.1066062,0.2040748 0,0.1309735 0.1340193,0.2345338 Q 5.8866298,1.592998 6.4866708,1.8671284 7.0623447,2.1260294 7.2846949,2.424527 7.510091,2.7199786 7.510091,3.1707709 Z" /><path
           id="path353"
           style="letter-spacing:-0.229419px;stroke-width:0.0241776px"
           d="M 11.514694,4.5231476 H 10.156225 L 9.275962,2.8204931 8.9195925,3.0337057 V 4.5231476 H 7.7103727 V 0.07005128 H 8.9195925 V 2.0041937 Q 9.0109693,1.8244859 9.2881456,1.4346116 L 10.223235,0.07005128 h 1.315826 L 10.134904,2.0651115 Z" /><path
           id="path355"
           style="letter-spacing:-0.39507px;stroke-width:0.0241776px"
           d="M 11.769572,4.5231476 V 0.07005128 h 1.209219 V 4.5231476 Z" /><path
           id="path357"
           style="letter-spacing:-0.564189px;stroke-width:0.0241776px"
           d="M 15.507779,4.5231476 H 14.304651 V 1.0538749 H 13.217267 V 0.07005128 h 3.37485 V 1.0538749 h -1.084338 z" /><path
           id="path359"
           style="letter-spacing:-0.634195px;stroke-width:0.0241776px"
           d="m 20.837395,2.2905076 q 0,1.1239347 -0.551307,1.7087463 -0.551307,0.5848116 -1.614323,0.5848116 -1.047788,0 -1.608232,-0.5878575 -0.557399,-0.5878574 -0.557399,-1.7117921 0,-1.1117512 0.554353,-1.69656273 0.557399,-0.5878574450034 1.617369,-0.5878574450034 1.063017,0 1.611278,0.5817656550034 0.548261,0.58176562 0.548261,1.70874622 z m -3.064169,0 q 0,1.2914589 0.898539,1.2914589 0.456884,0 0.676188,-0.313727 0.22235,-0.3137271 0.22235,-0.9777319 0,-0.6670506 -0.225396,-0.9838236 -0.22235,-0.31981878 -0.667051,-0.31981878 -0.90463,0 -0.90463,1.30364238 z" /><path
           id="path361"
           style="letter-spacing:-0.756181px;stroke-width:0.0241776px"
           d="M 25.247199,4.5231476 H 23.669426 L 22.042919,1.3858773 h -0.02741 q 0.05787,0.7401521 0.05787,1.1300265 V 4.5231476 H 21.007315 V 0.07005128 h 1.571681 l 1.620415,3.09462782 h 0.01828 Q 24.175044,2.4915366 24.175044,2.0833869 V 0.07005128 h 1.072155 z" /><path
           id="path363"
           style="font-style:normal;font-variant:normal;font-weight:800;font-stretch:normal;font-size:6.23799px;line-height:1.25;font-family:'Open Sans';-inkscape-font-specification:'Open Sans Ultra-Bold';letter-spacing:-0.376357px;stroke-width:0.0241776px"
           d="M 28.097356,4.5231476 H 25.45352 V 0.07005128 h 2.643836 V 1.0355995 H 26.656648 V 1.736155 h 1.334101 v 0.9655483 h -1.334101 v 0.8406666 h 1.440708 z" /></g></g><g
       id="g8901-4-7"
       inkscape:label="drawing"
       style="display:inline;stroke-width:1.97862"
       transform="matrix(0.52912958,0,0,0.48273026,5.3237538,35.380572)"><path
         d="m 93.380761,-0.44817346 0.4463,-0.119574 0.2784,-0.27849 0.3267,-0.32668304 0.1196,-0.44625 0.102,-0.38043 V -57.9996 l -0.102,-0.3804 -0.1196,-0.4463 -0.6051,-0.6051 -0.4463,-0.1196 -0.3804,-0.102 h -91 l -0.38043,0.102 -0.44625,0.1196 -0.27849399,0.2785 -0.326679,0.3266 -0.119574,0.4463 -0.101934,0.3804 v 55.9999995 l 0.101934,0.38043 0.119574,0.44625 0.60517299,0.60517304 0.44625,0.119574 0.38043,0.101934 h 91 z"
         stroke="#000000"
         fill="#d3d3d3"
         stroke-width="0.5"
         id="path3892-8-4"
         inkscape:label="bottom"
         style="display:inline;fill:#ffffff;fill-opacity:1;stroke-width:1.97864;stroke-dasharray:none"
         sodipodi:nodetypes="ccccccccccccccccccccccccccc" /><path
         d="m 4.9119739,-30.5681 h -3.8 v -2.5 h 3.8 v -7.75 h -2 v 4.0489 h -3.49098375 l -1.11803615,0.3633 v 1.1368 h 0.5756301 v 0.8 H -1.697046 v 1.234 h 0.5756301 v 0.8 H -1.697046 v 1.234 h 0.5756301 v 0.8 H -1.697046 v 1.234 h 0.5756301 v 0.8 H -1.697046 v 1.1368 l 1.11803615,0.3633 H 2.9119739 v 4.0489 h 2 z"
         stroke="#000000"
         fill="#d3d3d3"
         stroke-width="0.5"
         id="path3902-7-5"
         style="display:inline;fill:#ffffff;fill-opacity:1;stroke:#000000;stroke-width:0.395729;stroke-dasharray:none;stroke-opacity:1"
         inkscape:label="side switch clutch"
         sodipodi:nodetypes="ccccccccccccccccccccccccccccccc" /><path
         id="path7604-5-1"
         style="display:inline;fill:#ffffff;fill-opacity:1;stroke:#000000;stroke-width:0.395729;stroke-dasharray:none;stroke-opacity:1"
         d="m 67.515546,-4.9996 -0.1152,-0.11522 v -2.82843 l 2.9437,2.94365 z m -41.7152,0 v -5 h 17.4 v 5 z m -20.8,0 v -5 h 17.4 v 5 z m 68.1721,0 -5.7721,-5.7721 v -2.8284 l 8.6005,8.6005 z m -33.7879,-7.9355 0.0811,-0.0294 0.0749,-0.0481 0.0653,-0.0654 0.055,-0.0843 1.6821,-3.2424 0.0385,-0.0962 0.0189,-0.0987 v -0.1012 l -0.0189,-0.0987 -0.0366,-0.0916 -0.0523,-0.0801 -0.0652,-0.0654 -0.075,-0.0481 -0.0811,-0.0294 -0.09,-0.0105 h -3.3618 l -0.09,0.0105 -0.0811,0.0294 -0.075,0.0481 -0.0652,0.0654 -0.0523,0.0801 -0.0366,0.0916 -0.0189,0.0987 v 0.1012 l 0.0189,0.0987 0.0385,0.0962 1.6821,3.2424 0.055,0.0843 0.0652,0.0654 0.075,0.0481 0.0811,0.0294 0.0842,0.0098 z m -3.9842,2.0355 v -8.25 h 7.8 v 8.25 z m -16.8158,-2.0355 0.0811,-0.0294 0.0749,-0.0481 0.0653,-0.0654 0.055,-0.0843 1.6821,-3.2424 0.0385,-0.0962 0.0189,-0.0987 v -0.1012 l -0.0189,-0.0987 -0.0366,-0.0916 -0.0523,-0.0801 -0.0652,-0.0654 -0.075,-0.0481 -0.0811,-0.0294 -0.09,-0.0105 h -3.3618 l -0.09,0.0105 -0.0811,0.0294 -0.075,0.0481 -0.0652,0.0654 -0.0523,0.0801 -0.0366,0.0916 -0.0189,0.0987 v 0.1012 l 0.0189,0.0987 0.0385,0.0962 1.6821,3.2424 0.055,0.0843 0.0653,0.0654 0.0749,0.0481 0.0811,0.0294 0.0842,0.0098 z m -3.9842,2.0355 v -8.25 h 7.8 v 8.25 z m 64.2289,5.9 -11.4289,-11.4289 v -2.8285 l 14.2574,14.2574 z m 8.2275,-14.4 h 2.8284 l 0.1152,0.1152 v 2.8284 z m -5.6569,0 h 2.8284 l 5.7721,5.7721 v 2.8284 z m -5.6569,0 h 2.8285 l 11.4289,11.42893 v 2.82843 z m 8.7432,14.4 -14.4,-14.4 h 2.8284 l 14.4,14.4 z m -43.4149,-17.0855 0.0811,-0.0294 0.075,-0.0481 0.0652,-0.0654 0.0523,-0.0801 0.0366,-0.0916 0.0189,-0.0987 v -0.1012 l -0.0189,-0.0987 -0.0385,-0.0962 -1.6821,-3.2424 -0.055,-0.0843 -0.0653,-0.0654 -0.0749,-0.0481 -0.0811,-0.0294 -0.0842,-0.0098 -0.0842,0.0098 -0.0811,0.0294 -0.075,0.0481 -0.0652,0.0654 -0.055,0.0843 -1.6821,3.2424 -0.0385,0.0962 -0.0189,0.0987 v 0.1012 l 0.0189,0.0987 0.0366,0.0916 0.0523,0.0801 0.0652,0.0654 0.075,0.0481 0.0811,0.0294 0.09,0.0105 h 3.3618 z m -5.6709,2.0355 v -8.25 h 7.8 v 8.25 z m -15.1291,-2.0355 0.0811,-0.0294 0.075,-0.0481 0.0652,-0.0654 0.0523,-0.0801 0.0366,-0.0916 0.0189,-0.0987 v -0.1012 l -0.0189,-0.0987 -0.0385,-0.0962 -1.6821,-3.2424 -0.055,-0.0843 -0.0653,-0.0654 -0.0749,-0.0481 -0.0811,-0.0294 -0.0842,-0.0098 -0.0842,0.0098 -0.0811,0.0294 -0.0749,0.0481 -0.0653,0.0654 -0.055,0.0843 -1.6821,3.2424 -0.0385,0.0962 -0.0189,0.0987 v 0.1012 l 0.0189,0.0987 0.0366,0.0916 0.0523,0.0801 0.0652,0.0654 0.075,0.0481 0.0811,0.0294 0.09,0.0105 h 3.3618 z m -5.6709,2.0355 v -8.25 h 7.8 v 8.25 z m 11.20768,9.151778 v -17.406691 h 8.89232 v 17.406691 z m -20.7999998,0 v -17.406691 h 8.8923198 v 17.406691 z M 46.600346,-31.6996 v -5 h 17.4 v 5 z m -20.8,0 v -5 h 17.4 v 5 z m -20.8,0 v -5 h 17.4 v 5 z m 62.3,9 v -14.6 h 22.8 v 14.6 z m 0.1,-17.9 v -14.4 h 22.6 v 14.4 z m 25.9804,40.1514063 0.4463,-0.119566 0.2784,-0.278505 0.3267,-0.326655 0.1196,-0.44623 0.102,-0.38045 V -57.9996 l -0.102,-0.3804 -0.1196,-0.4463 -0.6051,-0.6051 -0.4463,-0.1196 -0.3804,-0.102 h -91 l -0.38045,0.102 -0.44623,0.1196 -0.278501,0.2785 -0.326659,0.3266 L 0.44894,-58.38 0.347,-57.9996 v 56.0000003 l 0.10194,0.38045 0.119566,0.44623 0.60516,0.60516 0.44623,0.119566 0.38045,0.10194 h 91 z"
         inkscape:label="enclosure top"
         sodipodi:nodetypes="ccccccccccccccccccccccccccccccccccccccccccccccccccccccccccccccccccccccccccccccccccccccccccccccccccccccccccccccccccccccccccccccccccccccccccccccccccccccccccccccccccccccccccccccccccccccccccccccccccccccccccccccccccccccccccccccccccccccccccccccccccccccccccccccccccccccc" /><path
         d="m 54.766982,-21.444335 0.164501,-0.226285 v -5.873557 l -0.38332,-0.527383 -0.164501,-0.226287 h -6.802697 l -0.620077,0.201453 -0.26613,0.08645 v 6.805081 l 0.26613,0.08645 0.620077,0.201453 h 6.802697 z m 8.86412,0 0.164501,-0.226285 v -5.873557 l -0.383321,-0.527383 -0.164501,-0.226287 h -6.802697 l -0.620076,0.201453 -0.26613,0.08645 v 6.805081 l 0.26613,0.08645 0.620076,0.201453 h 6.802697 z m -8.86412,7.934455 0.164501,-0.226287 v -5.873557 l -0.38332,-0.527384 -0.164501,-0.226286 h -6.802697 l -0.620077,0.201454 -0.26613,0.08645 v 6.805081 l 0.26613,0.08645 0.620077,0.201452 h 6.802697 z m 8.86412,0 0.164501,-0.226287 v -5.873557 l -0.383321,-0.527384 -0.164501,-0.226286 h -6.802697 l -0.620076,0.201454 -0.26613,0.08645 v 6.805081 l 0.26613,0.08645 0.620076,0.201452 h 6.802697 z m -8.699619,7.7081665 v -5.8735575 l -0.38332,-0.527384 -0.164501,-0.226285 h -6.802697 l -0.620077,0.201452 -0.26613,0.08645 v 6.8051232 l 0.26613,0.086455 0.620077,0.201432 h 6.802697 z m 8.86412,0 v -5.8735575 l -0.383321,-0.527384 -0.164501,-0.226285 h -6.802697 l -0.620076,0.201452 -0.26613,0.08645 v 6.8051232 l 0.26613,0.086455 0.620076,0.201432 h 6.802697 z"
         stroke="#000000"
         fill="#d3d3d3"
         stroke-width="0.5"
         id="path4156-5-8"
         inkscape:label="led display, button lever"
         style="display:inline;fill:#ffffff;fill-opacity:1;stroke-width:0.395729;stroke-dasharray:none"
         sodipodi:nodetypes="cccccccccccccccccccccccccccccccccccccccccccccccccccccccccccccccccccccccccccc" /><path
         d="m 49.772248,-26.27972 -0.505564,-0.69579 -0.817974,0.265795 v 0.860096 l 0.817974,0.265795 z m 3.240124,0 -0.505564,-0.69579 -0.817975,0.265795 v 0.860096 l 0.817975,0.265795 z m -3.240124,1.620063 -0.505564,-0.695791 -0.817974,0.265795 v 0.860096 l 0.817974,0.265795 z m 3.240124,0 -0.505564,-0.695791 -0.817975,0.265795 v 0.860096 l 0.817975,0.265795 z m 7.368668,0 -0.505564,-0.695791 -0.817975,0.265795 v 0.860096 l 0.817975,0.26569 z m -10.608792,1.620062 -0.505564,-0.695791 -0.817974,0.265795 v 0.859991 l 0.817974,0.265794 z m 3.240124,0 -0.505564,-0.695791 -0.817975,0.265795 v 0.859991 l 0.817975,0.265794 z m -3.240124,4.807925 -0.505564,-0.695791 -0.817974,0.265795 v 0.860096 l 0.817974,0.265794 z m 3.240124,0 -0.505564,-0.695791 -0.817975,0.265795 v 0.860096 l 0.817975,0.265794 z m 8.988729,0 -0.505564,-0.695791 -0.817974,0.265795 v 0.860096 l 0.817974,0.265794 z m -10.608792,1.620062 -0.505564,-0.695791 -0.817974,0.265794 v 0.860097 l 0.817974,0.265795 z m -1.620061,1.620062 -0.505564,-0.695791 -0.817974,0.265794 v 0.859991 l 0.817974,0.265797 z m 3.240124,0 -0.505564,-0.695791 -0.817975,0.265794 v 0.859991 l 0.817975,0.265797 z m 5.748605,0 -0.505563,-0.695791 -0.817975,0.265794 v 0.859991 l 0.817975,0.265797 z m -8.988729,4.807925 -0.505564,-0.695791 -0.817974,0.265795 v 0.8600955 l 0.817974,0.2657424 z m 3.240124,0 -0.505564,-0.695791 -0.817975,0.265795 v 0.8600955 l 0.817975,0.2657424 z m 8.988729,0 -0.505564,-0.695791 -0.817974,0.265795 v 0.8600955 l 0.817974,0.2657424 z m -1.620061,1.6200714 -0.505564,-0.6958322 -0.817975,0.2657843 v 0.8600856 l 0.817975,0.2657946 z M 49.772248,-6.9434982 49.266684,-7.63932 48.44871,-7.3735358 v 0.8600752 l 0.817974,0.2657842 z m 3.240124,0 -0.505564,-0.6958218 -0.817975,0.2657842 v 0.8600752 l 0.817975,0.2657842 z m 5.748605,0 -0.505563,-0.6958218 -0.817975,0.2657842 v 0.8600752 l 0.817975,0.2657842 z"
         stroke="#000000"
         fill="#d3d3d3"
         stroke-width="0.5"
         id="path4283-3-2"
         inkscape:label="pips"
         style="display:inline;fill:#000000;fill-opacity:1;stroke:none;stroke-width:0.395729;stroke-dasharray:none"
         sodipodi:nodetypes="cccccccccccccccccccccccccccccccccccccccccccccccccccccccccccccccccccccccccccccccccccccccccccccccccccccccccccccccccccccccccccccc" /><path
         d="m 78.413353,-23.908345 0.1725,-0.2375 0.4378,-0.6025 v -10.4066 l -0.4378,-0.6025 -0.1725,-0.2375 -0.0807,-0.1111 h -8.6066 l -1.118,0.3633 v 11.5822 l 1.118,0.3633 h 8.6066 z m -65.300101,-2.40384 v -0.0742 l -0.2122,-0.2921 -0.2666,-0.3669 H 6.534473 l -0.43134,0.1402 -0.34335,0.1115 v 0.3351 0.2202 h 7.353469 z m 20.8,0 v -0.0742 l -0.2122,-0.2921 -0.2666,-0.3669 h -6.1 l -0.4313,0.1402 -0.3434,0.1115 v 0.3351 0.2202 h 7.3535 z m -20.8,0.8738 H 5.759783 v 1.234 h 7.353469 z m 20.8,0 h -7.3535 v 1.234 h 7.3535 z m -20.8,2.034 H 5.759783 v 1.234 h 7.353469 z m 20.8,0 h -7.3535 v 1.234 h 7.3535 z m -20.8,2.034 H 5.759783 v 1.234 h 7.353469 z m 20.8,0 h -7.3535 v 1.234 h 7.3535 z m -20.8,2.034 H 5.759783 v 1.234 h 7.353469 z m 20.8,0 h -7.3535 v 1.234 h 7.3535 z m -20.8,2.034 H 5.759783 v 1.234 h 7.353469 z m 20.8,0 h -7.3535 v 1.234 h 7.3535 z m -20.8,2.034 H 5.759783 v 1.234 h 7.353469 z m 20.8,0 h -7.3535 v 1.234 h 7.3535 z m -21.0122,2.4741 0.2122,-0.2921 v -0.0742 -0.0738 H 5.759783 v 0.2202 0.3351 l 0.34335,0.1115 0.43134,0.1402 h 6.099979 z m 20.8,0 0.2122,-0.2921 v -0.0742 -0.0738 h -7.3535 v 0.2202 0.3351 l 0.3434,0.1115 0.4313,0.1402 h 6.1 z"
         stroke="#000000"
         fill="#d3d3d3"
         stroke-width="0.5"
         id="path8256-2-5"
         style="display:inline;fill:#ffffff;fill-opacity:1;stroke-width:0.395729;stroke-dasharray:none"
         inkscape:label="grips"
         sodipodi:nodetypes="ccccccccccccccccccccccccccccccccccccccccccccccccccccccccccccccccccccccccccccccccccccccccccccccccccccccccccccccccccccc" /><path
         d="m 13.822858,-38.131642 0.0843,-0.0102 0.3689,-0.0448 h 0.118 l 0.0064,-0.0151 0.0653,-0.1556 0.021,-0.0498 0.0433,-0.103 0.3968,-0.0501 0.1185,0.1561 0.048,0.0633 0.0383,0.0503 0.0035,0.0047 0.0406,-0.01 0.2534,-0.0308 0.1998,-0.0243 h 3e-4 l 0.1523,-0.0376 3e-4,-10e-5 0.0415,-0.0157 0.3853,-0.1461 0.1883,-0.0464 0.0039,-0.0265 0.0263,-0.1777 0.0105,-0.0717 0.0116,-0.0784 0.372,-0.1472 0.0625,0.0495 0.2068,0.1639 0.3924,-0.1488 2e-4,-1e-4 0.139,-0.0729 2e-4,-2e-4 0.0196,-0.0136 0.3561,-0.2457 0.2388,-0.1253 -0.0039,-0.0368 -0.0162,-0.1542 -0.0117,-0.1114 -0.0065,-0.0617 0.3236,-0.2351 0.0864,0.0385 0.0332,0.0148 0.1999,0.089 0.278,-0.192 2e-4,-1e-4 0.1175,-0.1041 2e-4,-2e-4 0.295,-0.333 0.0077,-0.0087 0.2582,-0.2288 10e-5,-10e-5 -0.0164,-0.0441 -0.0135,-0.0362 -0.0625,-0.1683 -0.0382,-0.1026 0.255,-0.3082 0.1148,0.0194 0.1793,0.0303 0.0575,0.0097 0.1695,-0.1912 1e-4,-2e-4 0.0891,-0.1291 2e-4,-3e-4 0.2067,-0.3939 0.0054,-0.0103 0.2344,-0.3395 0.0045,-0.0065 -0.032,-0.0461 -0.0226,-0.0325 -0.0948,-0.1364 -0.0699,-0.1005 0.1703,-0.362 0.1509,-0.0127 0.1729,-0.0145 0.0395,-0.0033 0.0802,-0.1527 10e-5,-3e-4 0.0556,-0.1466 10e-5,-3e-4 0.1064,-0.4319 0.0028,-0.0113 0.1578,-0.416 0.0041,-0.0109 0.0054,-0.044 -0.0415,-0.0358 -0.0299,-0.0258 -0.159,-0.1372 -0.0597,-0.0515 0.075,-0.3929 0.2035,-0.0709 0.0087,-0.003 0.1405,-0.049 0.0213,-0.0863 v -3e-4 l 0.0189,-0.1557 10e-5,-3e-4 v -0.4565 l 0.0536,-0.4417 0.0014,-0.0115 -0.0155,-0.1278 -0.0395,-0.0196 -0.0347,-0.0172 -0.2597,-0.1289 -0.0251,-0.3992 0.3074,-0.2043 0.012,-0.008 v -0.0047 -3e-4 l -0.0189,-0.1557 v -3e-4 l -0.1065,-0.4319 -0.0028,-0.0113 -0.0536,-0.4417 -0.0014,-0.0115 -0.0754,-0.1988 -0.0319,-0.0067 -0.1127,-0.024 -0.1448,-0.0308 -0.0659,-0.014 -0.1236,-0.3804 0.2339,-0.2598 0.0228,-0.0253 -0.0282,-0.0743 -10e-4,-0.003 -2e-4,-2e-4 -0.2067,-0.3939 -0.0054,-0.0103 -0.1578,-0.4159 -0.0041,-0.0109 -0.168,-0.2435 -0.0214,10e-4 -0.2063,0.0085 -0.0355,0.0016 -0.0913,0.0038 -0.2144,-0.3377 0.178,-0.3404 -0.0018,-0.0026 v 0 l -1e-4,-2e-4 -4e-4,-4e-4 -0.3023,-0.3413 -0.2528,-0.3661 -0.0066,-0.0096 -0.2832,-0.2509 -0.01,0.003 -0.1637,0.0494 -0.0201,0.0061 -0.1389,0.0419 -0.0409,-0.0384 -0.2502,-0.235 -4e-4,-4e-4 0.0529,-0.2257 0.0044,-0.0188 0.0284,-0.121 -0.1383,-0.0955 -0.178,-0.1229 -0.333,-0.295 -0.0087,-0.0077 -0.4031,-0.2115 -0.0011,-6e-4 -0.0031,-0.0021 -0.2301,0.1394 -0.0619,0.0375 -0.3506,-0.1927 -0.0034,-0.1629 -0.0037,-0.1784 -5e-4,-0.0257 -0.1671,-0.0633 -0.1216,-0.0462 -0.3938,-0.2067 -0.0103,-0.0054 -0.0113,-0.0028 -0.4319,-0.1064 -0.0416,-0.0158 -0.0336,-0.0127 -0.1726,0.1763 -0.0111,0.0113 -0.0589,0.0601 -0.3874,-0.0995 -0.0335,-0.12 -0.0527,-0.1887 -0.0105,-0.0376 -0.1445,-0.0176 -0.0866,-0.0105 -0.4319,-0.1064 -0.0113,-0.0028 h -0.4565 l -0.0611,-0.0074 -0.0944,-0.0115 -0.1214,0.2103 -0.0047,0.0081 -0.0503,0.0871 h -0.4 l -0.0503,-0.0871 -0.0047,-0.0081 -0.1214,-0.2103 -0.0944,0.0115 -0.0611,0.0074 h -0.4565 l -0.0113,0.0028 -0.4319,0.1064 -0.0866,0.0105 -0.1445,0.0176 -0.0105,0.0376 -0.0527,0.1887 -0.0335,0.12 -0.3874,0.0995 -0.0589,-0.0601 -0.0111,-0.0113 -0.1726,-0.1763 -0.0336,0.0127 -0.0416,0.0158 -0.4319,0.1064 -0.0113,0.0028 -0.0103,0.0054 -0.3938,0.2067 -0.121599,0.0462 -0.167099,0.0633 -5e-4,0.0257 -0.0037,0.1784 -0.0034,0.1629 -0.3505604,0.1927 -0.06186,-0.0375 -0.23026,-0.1394 -0.003,0.0021 -0.0011,6e-4 -0.4030796,0.2115 -0.0087,0.0077 -0.33299,0.295 -0.17792,0.1229 -0.13834,0.0955 0.02838,0.121 0.0044,0.0188 0.05295,0.2257 -4.4e-4,4e-4 -0.25029,0.235 -0.04086,0.0384 -0.1389,-0.0419 -0.02001,-0.0061 -0.16377,-0.0494 -0.0099,-0.003 -0.28324,0.2509 -0.0066,0.0096 -0.25271,0.3661 -0.30236,0.3413 -3.6e-4,4e-4 -1.6e-4,2e-4 h -10e-6 l -0.0018,0.0026 6.9e-4,0.0013 0.17725,0.3391 -0.21433,0.3377 -0.09131,-0.0038 -0.03548,-0.0016 -0.20634,-0.0085 -0.02141,-10e-4 -0.16803,0.2435 -0.0041,0.0109 -0.15775,0.4159 -0.0054,0.0103 -0.20674,0.3939 -1.1e-4,2e-4 -0.0011,0.003 -0.02818,0.0743 0.02281,0.0253 0.23394,0.2598 -0.12361,0.3804 -0.06589,0.014 -0.1448,0.0308 -0.11268,0.024 -0.03196,0.0067 -0.07538,0.1988 -0.0014,0.0115 -0.05363,0.4417 -0.0028,0.0113 -0.10647,0.4319 -4e-5,3e-4 -0.01892,0.1557 -2e-5,3e-4 v 0.0047 l 0.01206,0.008 0.30739,0.2043 -0.02512,0.3992 -0.25971,0.1289 -0.03461,0.0172 -0.03951,0.0196 -0.01552,0.1278 0.0014,0.0115 0.05363,0.4417 v 0.4565 l 1e-5,3e-4 0.01891,0.1557 5e-5,3e-4 0.02128,0.0863 0.14052,0.049 0.0087,0.003 0.20357,0.0709 0.07495,0.3929 -0.05963,0.0515 -0.15904,0.1372 -0.02991,0.0258 -0.04147,0.0358 0.0053,0.044 0.0041,0.0109 0.15774,0.416 0.0028,0.0113 0.10647,0.4319 8e-5,3e-4 0.05563,0.1466 1.1e-4,3e-4 0.08017,0.1527 0.03956,0.0033 0.17285,0.0145 0.15089,0.0127 0.17032,0.362 -0.06987,0.1005 -0.09482,0.1364 -0.02261,0.0325 -0.03199,0.0461 0.0045,0.0065 0.23436,0.3395 0.0054,0.0103 0.20673,0.3939 1.4e-4,3e-4 0.08913,0.1291 1.6e-4,2e-4 0.16942,0.1912 0.05746,-0.0097 0.17937,-0.0303 0.11481,-0.0194 0.25497,0.3082 -0.03817,0.1026 -0.06257,0.1683 -0.01347,0.0362 -0.01643,0.0441 1.2e-4,10e-5 0.25824,0.2288 0.0077,0.0087 0.295,0.333 1.9e-4,2e-4 0.11743,0.1041 2.2e-4,1e-4 0.27806,0.192 0.19984,-0.089 0.03321,-0.0148 0.08639,-0.0385 0.32361,0.2351 -0.0065,0.0617 -0.0117,0.1114 -0.01621,0.1542 -0.0039,0.0368 0.2387596,0.1253 0.3560607,0.2457 0.01965,0.0136 2.3e-4,2e-4 0.1389097,0.0729 2.4e-4,1e-4 0.392428,0.1488 0.2068,-0.1639 0.0625,-0.0495 0.372,0.1472 0.0116,0.0784 0.0105,0.0717 0.0263,0.1777 0.0039,0.0265 0.1883,0.0464 0.3853,0.1461 0.0415,0.0157 3e-4,10e-5 0.1523,0.0376 h 3e-4 l 0.1998,0.0243 0.2534,0.0308 0.0406,0.01 0.0035,-0.0047 0.0383,-0.0503 0.048,-0.0633 0.1185,-0.1561 0.3968,0.0501 0.0433,0.103 0.021,0.0498 0.0653,0.1556 0.0064,0.0151 h 0.118 l 0.3689,0.0448 0.0843,0.0102 3e-4,10e-5 h 0.1568 z m 20.8,0 0.0843,-0.0102 0.3689,-0.0448 h 0.118 l 0.0064,-0.0151 0.0653,-0.1556 0.021,-0.0498 0.0433,-0.103 0.3968,-0.0501 0.1185,0.1561 0.048,0.0633 0.0383,0.0503 0.0035,0.0047 0.0406,-0.01 0.2534,-0.0308 0.1998,-0.0243 h 3e-4 l 0.1523,-0.0376 3e-4,-10e-5 0.0415,-0.0157 0.3853,-0.1461 0.1883,-0.0464 0.0039,-0.0265 0.0263,-0.1777 0.0105,-0.0717 0.0116,-0.0784 0.372,-0.1472 0.0625,0.0495 0.2068,0.1639 0.3924,-0.1488 2e-4,-1e-4 0.139,-0.0729 2e-4,-2e-4 0.0196,-0.0136 0.3561,-0.2457 0.2388,-0.1253 -0.0039,-0.0368 -0.0162,-0.1542 -0.0117,-0.1114 -0.0065,-0.0617 0.3236,-0.2351 0.0864,0.0385 0.0332,0.0148 0.1999,0.089 0.278,-0.192 2e-4,-1e-4 0.1175,-0.1041 2e-4,-2e-4 0.295,-0.333 0.0077,-0.0087 0.2582,-0.2288 10e-5,-10e-5 -0.0164,-0.0441 -0.0135,-0.0362 -0.0625,-0.1683 -0.0382,-0.1026 0.255,-0.3082 0.1148,0.0194 0.1793,0.0303 0.0575,0.0097 0.1695,-0.1912 10e-5,-2e-4 0.0891,-0.1291 2e-4,-3e-4 0.2067,-0.3939 0.0054,-0.0103 0.2344,-0.3395 0.0045,-0.0065 -0.032,-0.0461 -0.0226,-0.0325 -0.0948,-0.1364 -0.0699,-0.1005 0.1703,-0.362 0.1509,-0.0127 0.1729,-0.0145 0.0395,-0.0033 0.0802,-0.1527 10e-5,-3e-4 0.0556,-0.1466 10e-5,-3e-4 0.1064,-0.4319 0.0028,-0.0113 0.1578,-0.416 0.0041,-0.0109 0.0054,-0.044 -0.0415,-0.0358 -0.0299,-0.0258 -0.159,-0.1372 -0.0597,-0.0515 0.075,-0.3929 0.2035,-0.0709 0.0087,-0.003 0.1405,-0.049 0.0213,-0.0863 v -3e-4 l 0.0189,-0.1557 10e-5,-3e-4 v -0.4565 l 0.0536,-0.4417 0.0014,-0.0115 -0.0155,-0.1278 -0.0395,-0.0196 -0.0346,-0.0172 -0.2597,-0.1289 -0.0252,-0.3992 0.3074,-0.2043 0.012,-0.008 v -0.0047 -3e-4 l -0.0189,-0.1557 v -3e-4 l -0.1065,-0.4319 -0.0028,-0.0113 -0.0536,-0.4417 -0.0014,-0.0115 -0.0754,-0.1988 -0.0319,-0.0067 -0.1127,-0.024 -0.1448,-0.0308 -0.0659,-0.014 -0.1236,-0.3804 0.2339,-0.2598 0.0228,-0.0253 -0.0282,-0.0743 -0.001,-0.003 -2e-4,-2e-4 -0.2067,-0.3939 -0.0054,-0.0103 -0.1578,-0.4159 -0.0041,-0.0109 -0.168,-0.2435 -0.0214,10e-4 -0.2063,0.0085 -0.0355,0.0016 -0.0913,0.0038 -0.2144,-0.3377 0.178,-0.3404 -0.0018,-0.0026 v 0 l -10e-5,-2e-4 -4e-4,-4e-4 -0.3023,-0.3413 -0.2528,-0.3661 -0.0066,-0.0096 -0.2832,-0.2509 -0.01,0.003 -0.1637,0.0494 -0.0201,0.0061 -0.1389,0.0419 -0.0409,-0.0384 -0.2502,-0.235 -4e-4,-4e-4 0.0529,-0.2257 0.0044,-0.0188 0.0284,-0.121 -0.1383,-0.0955 -0.178,-0.1229 -0.333,-0.295 -0.0087,-0.0077 -0.4031,-0.2115 -0.0011,-6e-4 -0.0031,-0.0021 -0.2301,0.1394 -0.0619,0.0375 -0.3506,-0.1927 -0.0034,-0.1629 -0.0037,-0.1784 -5e-4,-0.0257 -0.167,-0.0633 -0.1216,-0.0462 -0.3939,-0.2067 -0.0103,-0.0054 -0.0113,-0.0028 -0.4319,-0.1064 -0.0416,-0.0158 -0.0336,-0.0127 -0.1726,0.1763 -0.0111,0.0113 -0.0589,0.0601 -0.3874,-0.0995 -0.0335,-0.12 -0.0527,-0.1887 -0.0105,-0.0376 -0.1445,-0.0176 -0.0866,-0.0105 -0.4319,-0.1064 -0.0113,-0.0028 h -0.4565 l -0.0611,-0.0074 -0.0944,-0.0115 -0.1214,0.2103 -0.0047,0.0081 -0.0503,0.0871 h -0.4 l -0.0503,-0.0871 -0.0047,-0.0081 -0.1214,-0.2103 -0.0944,0.0115 -0.0611,0.0074 h -0.4565 l -0.0113,0.0028 -0.4319,0.1064 -0.0866,0.0105 -0.1445,0.0176 -0.0105,0.0376 -0.0527,0.1887 -0.0335,0.12 -0.3874,0.0995 -0.0589,-0.0601 -0.0111,-0.0113 -0.1726,-0.1763 -0.0336,0.0127 -0.0416,0.0158 -0.4319,0.1064 -0.0113,0.0028 -0.0103,0.0054 -0.3939,0.2067 -0.1216,0.0462 -0.167,0.0633 -5e-4,0.0257 -0.0037,0.1784 -0.0034,0.1629 -0.3506,0.1927 -0.0619,-0.0375 -0.2301,-0.1394 -0.0031,0.0021 -0.0011,6e-4 -0.4031,0.2115 -0.0087,0.0077 -0.333,0.295 -0.178,0.1229 -0.1383,0.0955 0.0284,0.121 0.0044,0.0188 0.0529,0.2257 -4e-4,4e-4 -0.2502,0.235 -0.0409,0.0384 -0.1389,-0.0419 -0.0201,-0.0061 -0.1637,-0.0494 -0.01,-0.003 -0.2832,0.2509 -0.0066,0.0096 -0.2528,0.3661 -0.3023,0.3413 -4e-4,4e-4 -10e-5,2e-4 v 0 l -0.0018,0.0026 0.178,0.3404 -0.2144,0.3377 -0.0913,-0.0038 -0.0355,-0.0016 -0.2063,-0.0085 -0.0214,-10e-4 -0.168,0.2435 -0.0041,0.0109 -0.1578,0.4159 -0.0054,0.0103 -0.2067,0.3939 -2e-4,2e-4 -0.001,0.003 -0.0282,0.0743 0.0228,0.0253 0.2339,0.2598 -0.1236,0.3804 -0.0659,0.014 -0.1448,0.0308 -0.1127,0.024 -0.0319,0.0067 -0.0754,0.1988 -0.0014,0.0115 -0.0536,0.4417 -0.0028,0.0113 -0.1065,0.4319 v 3e-4 l -0.0189,0.1557 v 3e-4 0.0047 l 0.012,0.008 0.3074,0.2043 -0.0252,0.3992 -0.2597,0.1289 -0.0346,0.0172 -0.0395,0.0196 -0.0155,0.1278 0.0014,0.0115 0.0536,0.4417 v 0.4565 l 10e-5,3e-4 0.0189,0.1557 v 3e-4 l 0.0213,0.0863 0.1405,0.049 0.0087,0.003 0.2035,0.0709 0.075,0.3929 -0.0597,0.0515 -0.159,0.1372 -0.0299,0.0258 -0.0415,0.0358 0.0054,0.044 0.0041,0.0109 0.1578,0.416 0.0028,0.0113 0.1064,0.4319 10e-5,3e-4 0.0556,0.1466 10e-5,3e-4 0.0802,0.1527 0.0395,0.0033 0.1729,0.0145 0.1509,0.0127 0.1703,0.362 -0.0699,0.1005 -0.0948,0.1364 -0.0226,0.0325 -0.032,0.0461 0.0045,0.0065 0.2344,0.3395 0.0054,0.0103 0.2067,0.3939 2e-4,3e-4 0.0891,0.1291 10e-5,2e-4 0.1695,0.1912 0.0575,-0.0097 0.1793,-0.0303 0.1148,-0.0194 0.255,0.3082 -0.0382,0.1026 -0.0625,0.1683 -0.0135,0.0362 -0.0164,0.0441 1e-4,10e-5 0.2582,0.2288 0.0077,0.0087 0.295,0.333 2e-4,2e-4 0.1175,0.1041 2e-4,1e-4 0.278,0.192 0.1999,-0.089 0.0332,-0.0148 0.0864,-0.0385 0.3236,0.2351 -0.0065,0.0617 -0.0117,0.1114 -0.0162,0.1542 -0.0039,0.0368 0.2388,0.1253 0.3561,0.2457 0.0196,0.0136 2e-4,2e-4 0.139,0.0729 2e-4,1e-4 0.3924,0.1488 0.2068,-0.1639 0.0625,-0.0495 0.372,0.1472 0.0116,0.0784 0.0105,0.0717 0.0263,0.1777 0.0039,0.0265 0.1883,0.0464 0.3853,0.1461 0.0415,0.0157 3e-4,10e-5 0.1523,0.0376 h 3e-4 l 0.1998,0.0243 0.2534,0.0308 0.0406,0.01 0.0035,-0.0047 0.0383,-0.0503 0.048,-0.0633 0.1185,-0.1561 0.3968,0.0501 0.0433,0.103 0.021,0.0498 0.0653,0.1556 0.0064,0.0151 h 0.118 l 0.3689,0.0448 0.0843,0.0102 3e-4,10e-5 h 0.1568 z m 20.8,0 0.0843,-0.0102 0.3689,-0.0448 h 0.118 l 0.006,-0.0151 0.0653,-0.1556 0.021,-0.0498 0.0433,-0.103 0.3968,-0.0501 0.1185,0.1561 0.048,0.0633 0.0383,0.0503 0.004,0.0047 0.0406,-0.01 0.2534,-0.0308 0.1998,-0.0243 h 3e-4 l 0.1523,-0.0376 3e-4,-10e-5 0.0415,-0.0157 0.3853,-0.1461 0.1883,-0.0464 0.004,-0.0265 0.0263,-0.1777 0.0105,-0.0717 0.0116,-0.0784 0.372,-0.1472 0.0625,0.0495 0.2068,0.1639 0.3924,-0.1488 2e-4,-1e-4 0.139,-0.0729 2e-4,-2e-4 0.0196,-0.0136 0.3561,-0.2457 0.2388,-0.1253 -0.004,-0.0368 -0.0162,-0.1542 -0.0117,-0.1114 -0.007,-0.0617 0.3236,-0.2351 0.0864,0.0385 0.0332,0.0148 0.1999,0.089 0.278,-0.192 2e-4,-1e-4 0.1175,-0.1041 2e-4,-2e-4 0.295,-0.333 0.008,-0.0087 0.2582,-0.2288 10e-5,-10e-5 -0.0164,-0.0441 -0.0135,-0.0362 -0.0625,-0.1683 -0.0382,-0.1026 0.255,-0.3082 0.1148,0.0194 0.1793,0.0303 0.0575,0.0097 0.1695,-0.1912 10e-5,-2e-4 0.0891,-0.1291 2e-4,-3e-4 0.2067,-0.3939 0.005,-0.0103 0.2344,-0.3395 0.004,-0.0065 -0.032,-0.0461 -0.0226,-0.0325 -0.0948,-0.1364 -0.0699,-0.1005 0.1703,-0.362 0.1509,-0.0127 0.1729,-0.0145 0.0395,-0.0033 0.0802,-0.1527 10e-5,-3e-4 0.0556,-0.1466 10e-5,-3e-4 0.1064,-0.4319 0.003,-0.0113 0.1578,-0.416 0.004,-0.0109 0.005,-0.044 -0.0415,-0.0358 -0.0299,-0.0258 -0.159,-0.1372 -0.0597,-0.0515 0.075,-0.3929 0.2035,-0.0709 0.009,-0.003 0.1405,-0.049 0.0213,-0.0863 v -3e-4 l 0.0189,-0.1557 10e-5,-3e-4 v -0.4565 l 0.0536,-0.4417 10e-4,-0.0115 -0.0155,-0.1278 -0.0395,-0.0196 -0.0346,-0.0172 -0.2597,-0.1289 -0.0252,-0.3992 0.3074,-0.2043 0.012,-0.008 v -0.0047 -3e-4 l -0.0189,-0.1557 v -3e-4 l -0.1065,-0.4319 -0.003,-0.0113 -0.0536,-0.4417 -10e-4,-0.0115 -0.0754,-0.1988 -0.0319,-0.0067 -0.1127,-0.024 -0.1448,-0.0308 -0.0659,-0.014 -0.1236,-0.3804 0.2339,-0.2598 0.0228,-0.0253 -0.0282,-0.0743 -0.001,-0.003 -2e-4,-2e-4 -0.2067,-0.3939 -0.005,-0.0103 -0.1578,-0.4159 -0.004,-0.0109 -0.168,-0.2435 -0.0214,10e-4 -0.2063,0.0085 -0.0355,0.0016 -0.0913,0.0038 -0.2144,-0.3377 0.178,-0.3404 -0.002,-0.0026 v 0 l -1e-4,-2e-4 -4e-4,-4e-4 -0.3023,-0.3413 -0.2528,-0.3661 -0.007,-0.0096 -0.2832,-0.2509 -0.01,0.003 -0.1637,0.0494 -0.0201,0.0061 -0.1389,0.0419 -0.0409,-0.0384 -0.2502,-0.235 -4e-4,-4e-4 0.0529,-0.2257 0.004,-0.0188 0.0284,-0.121 -0.1383,-0.0955 -0.178,-0.1229 -0.333,-0.295 -0.009,-0.0077 -0.4031,-0.2115 -10e-4,-6e-4 -0.003,-0.0021 -0.2301,0.1394 -0.0619,0.0375 -0.3506,-0.1927 -0.003,-0.1629 -0.004,-0.1784 -5e-4,-0.0257 -0.1671,-0.0633 -0.1216,-0.0462 -0.3938,-0.2067 -0.0103,-0.0054 -0.0113,-0.0028 -0.4319,-0.1064 -0.0416,-0.0158 -0.0336,-0.0127 -0.1726,0.1763 -0.0111,0.0113 -0.0589,0.0601 -0.3874,-0.0995 -0.0335,-0.12 -0.0527,-0.1887 -0.0105,-0.0376 -0.1445,-0.0176 -0.0866,-0.0105 -0.4319,-0.1064 -0.0113,-0.0028 h -0.4565 l -0.0611,-0.0074 -0.0944,-0.0115 -0.1214,0.2103 -0.005,0.0081 -0.0503,0.0871 h -0.4 l -0.0503,-0.0871 -0.005,-0.0081 -0.1214,-0.2103 -0.0944,0.0115 -0.0611,0.0074 h -0.4565 l -0.0113,0.0028 -0.4319,0.1064 -0.0866,0.0105 -0.1445,0.0176 -0.0105,0.0376 -0.0527,0.1887 -0.0335,0.12 -0.3874,0.0995 -0.0589,-0.0601 -0.0111,-0.0113 -0.1726,-0.1763 -0.0336,0.0127 -0.0416,0.0158 -0.4319,0.1064 -0.0113,0.0028 -0.0103,0.0054 -0.3939,0.2067 -0.1216,0.0462 -0.167,0.0633 -5e-4,0.0257 -0.0037,0.1784 -0.0034,0.1629 -0.3506,0.1927 -0.0619,-0.0375 -0.2301,-0.1394 -0.0031,0.0021 -0.0011,6e-4 -0.4031,0.2115 -0.0087,0.0077 -0.333,0.295 -0.178,0.1229 -0.1383,0.0955 0.0284,0.121 0.0044,0.0188 0.0529,0.2257 -4e-4,4e-4 -0.2502,0.235 -0.0409,0.0384 -0.1389,-0.0419 -0.0201,-0.0061 -0.1637,-0.0494 -0.01,-0.003 -0.2832,0.2509 -0.0066,0.0096 -0.2528,0.3661 -0.3023,0.3413 -4e-4,4e-4 -1e-4,2e-4 v 0 l -0.0018,0.0026 0.178,0.3404 -0.2144,0.3377 -0.0913,-0.0038 -0.0355,-0.0016 -0.2063,-0.0085 -0.0214,-10e-4 -0.168,0.2435 -0.0041,0.0109 -0.1578,0.4159 -0.0054,0.0103 -0.2067,0.3939 -2e-4,2e-4 -10e-4,0.003 -0.0282,0.0743 0.0228,0.0253 0.2339,0.2598 -0.1236,0.3804 -0.0659,0.014 -0.1448,0.0308 -0.1127,0.024 -0.0319,0.0067 -0.0754,0.1988 -0.0014,0.0115 -0.0536,0.4417 -0.0028,0.0113 -0.1065,0.4319 v 3e-4 l -0.0189,0.1557 v 3e-4 0.0047 l 0.012,0.008 0.3074,0.2043 -0.0252,0.3992 -0.2597,0.1289 -0.0346,0.0172 -0.0395,0.0196 -0.0155,0.1278 0.0014,0.0115 0.0536,0.4417 v 0.4565 l 1e-4,3e-4 0.0189,0.1557 v 3e-4 l 0.0213,0.0863 0.1405,0.049 0.0087,0.003 0.2035,0.0709 0.075,0.3929 -0.0597,0.0515 -0.159,0.1372 -0.0299,0.0258 -0.0415,0.0358 0.0054,0.044 0.0041,0.0109 0.1578,0.416 0.0028,0.0113 0.1064,0.4319 1e-4,3e-4 0.0556,0.1466 1e-4,3e-4 0.0802,0.1527 0.0395,0.0033 0.1729,0.0145 0.1509,0.0127 0.1703,0.362 -0.0699,0.1005 -0.0948,0.1364 -0.0226,0.0325 -0.032,0.0461 0.0045,0.0065 0.2344,0.3395 0.0054,0.0103 0.2067,0.3939 2e-4,3e-4 0.0891,0.1291 1e-4,2e-4 0.1695,0.1912 0.0575,-0.0097 0.1793,-0.0303 0.1148,-0.0194 0.255,0.3082 -0.0382,0.1026 -0.0625,0.1683 -0.0135,0.0362 -0.0164,0.0441 10e-5,10e-5 0.2582,0.2288 0.0077,0.0087 0.295,0.333 2e-4,2e-4 0.1175,0.1041 2e-4,1e-4 0.278,0.192 0.1999,-0.089 0.0332,-0.0148 0.0864,-0.0385 0.3236,0.2351 -0.0065,0.0617 -0.0117,0.1114 -0.0162,0.1542 -0.0039,0.0368 0.2388,0.1253 0.3561,0.2457 0.0196,0.0136 2e-4,2e-4 0.139,0.0729 2e-4,1e-4 0.3924,0.1488 0.2068,-0.1639 0.0625,-0.0495 0.372,0.1472 0.0116,0.0784 0.0105,0.0717 0.0263,0.1777 0.0039,0.0265 0.1883,0.0464 0.3853,0.1461 0.0415,0.0157 3e-4,10e-5 0.1523,0.0376 h 3e-4 l 0.1998,0.0243 0.2534,0.0308 0.0406,0.01 0.004,-0.0047 0.0383,-0.0503 0.048,-0.0633 0.1185,-0.1561 0.3968,0.0501 0.0433,0.103 0.021,0.0498 0.0653,0.1556 0.006,0.0151 h 0.118 l 0.3689,0.0448 0.0843,0.0102 3e-4,10e-5 h 0.1568 z"
         stroke="#000000"
         fill="#d3d3d3"
         stroke-width="0.5"
         id="path6867-7-4"
         inkscape:label="knobs"
         style="display:inline;fill:#ffffff;fill-opacity:1;stroke-width:0.395729;stroke-dasharray:none" /><path
         d="m 13.743714,-38.110986 0.0421,-0.0051 0.4306,-0.0523 h 0.1378 l 0.0074,-0.0176 0.0764,-0.1817 0.0244,-0.0581 0.0278,-0.0661 0.3968,-0.0501 0.0762,0.1003 0.0706,0.0931 0.0563,0.0741 0.0052,0.0069 0.0598,-0.0148 0.3729,-0.0452 0.0999,-0.0122 h 2e-4 l 0.0761,-0.0188 h 10e-5 l 0.0208,-0.0079 0.4246,-0.161 0.2074,-0.0511 0.0043,-0.0292 0.0289,-0.1958 0.0117,-0.079 0.0074,-0.0503 0.372,-0.1472 0.0402,0.0319 0.2269,0.1798 0.4306,-0.1633 10e-5,-10e-5 0.0694,-0.0364 10e-5,-1e-4 0.0099,-0.0068 0.3821,-0.2637 0.2563,-0.1345 -0.0042,-0.0395 -0.0174,-0.1655 -0.0125,-0.1195 -0.0042,-0.0396 0.3236,-0.2351 0.0557,0.0248 0.0372,0.0166 0.224,0.0997 0.3117,-0.2151 10e-5,-10e-5 0.0587,-0.052 10e-5,-1e-4 0.3119,-0.3521 0.0039,-0.0044 0.273,-0.2419 10e-5,-1e-4 -0.0174,-0.0467 -0.0067,-0.0181 -0.0662,-0.1779 -0.0403,-0.1085 0.255,-0.3082 0.0742,0.0125 0.208,0.0352 0.0667,0.0113 0.1965,-0.2219 10e-5,-10e-5 0.0445,-0.0645 10e-5,-10e-5 0.2186,-0.4166 0.0027,-0.0052 0.2478,-0.3589 0.0023,-0.0033 -0.0339,-0.0488 -0.0113,-0.0162 -0.1002,-0.1443 -0.0739,-0.1062 0.1703,-0.362 0.0978,-0.0082 0.2138,-0.018 0.0489,-0.004 0.0991,-0.189 10e-5,-1e-4 0.0278,-0.0733 v -1e-4 l 0.1126,-0.4568 0.0014,-0.0057 0.1668,-0.4399 0.0021,-0.0054 0.0054,-0.044 -0.0439,-0.0378 -0.015,-0.0129 -0.1681,-0.1452 -0.0631,-0.0544 0.075,-0.3929 0.1322,-0.0461 0.0127,-0.0044 0.2052,-0.0714 0.031,-0.1261 v -1e-4 l 0.0095,-0.0779 v -2e-4 -0.4762 l 0.0567,-0.467 7e-4,-0.0058 -0.0155,-0.1278 -0.0419,-0.0208 -0.0173,-0.0086 -0.2747,-0.1363 -0.0251,-0.3992 0.2004,-0.1332 0.1167,-0.0775 v -0.0457 -1e-4 l -0.0095,-0.0778 v -2e-4 l -0.1126,-0.4568 -0.0014,-0.0056 -0.0567,-0.467 -7e-4,-0.0058 -0.0754,-0.1988 -0.0345,-0.0073 -0.1219,-0.0259 -0.1564,-0.0333 -0.0425,-0.009 -0.1236,-0.3804 0.2473,-0.2747 0.0112,-0.0124 -0.0138,-0.0363 -0.0011,-0.0031 -10e-5,-2e-4 -0.2186,-0.4165 -0.0027,-0.0052 -0.1668,-0.4398 -0.0021,-0.0054 -0.168,-0.2435 -0.0241,0.0011 -0.2316,0.0096 -0.0398,0.0017 -0.059,0.0025 -0.2144,-0.3377 0.1205,-0.2304 5e-4,-0.001 0.0275,-0.0526 0.0257,-0.0491 0.0028,-0.0054 -0.1338,-0.1511 -0.1586,-0.1791 -0.2673,-0.3871 -0.0033,-0.0048 -0.2832,-0.2509 -0.0125,0.0037 -0.2052,0.062 -0.0251,0.0076 -0.0899,0.0271 -0.0264,-0.0248 -0.2646,-0.2485 -5e-4,-5e-4 0.0349,-0.1489 0.0067,-0.0288 0.0435,-0.1854 -0.2119,-0.1463 -0.089,-0.0614 -0.3521,-0.3119 -0.0044,-0.0039 -0.4077,-0.2139 -0.0018,0.0011 -0.0317,0.0192 -0.0546,0.033 -0.1633,0.099 -0.0402,0.0243 -0.3506,-0.1927 -0.0022,-0.1073 -0.0047,-0.2247 -7e-4,-0.0325 -0.2104,-0.0797 -0.0608,-0.0231 -0.4165,-0.2186 -0.0051,-0.0027 -0.0056,-0.0014 -0.4568,-0.1126 -0.0208,-0.0079 -0.037,-0.014 -0.1902,0.1943 -0.0123,0.0124 -0.0383,0.0392 -0.3874,-0.0995 -0.022,-0.0788 -0.0617,-0.221 -0.0123,-0.044 -0.1693,-0.0206 -0.0433,-0.0052 -0.4568,-0.1126 -0.0056,-0.0014 h -0.4763 l -0.0305,-0.0037 -0.1065,-0.0129 -0.1369,0.2371 -0.0053,0.0092 -0.0329,0.0569 h -0.4 l -0.0329,-0.0569 -0.0053,-0.0092 -0.1369,-0.2371 -0.1065,0.0129 -0.0305,0.0037 h -0.4763 l -0.0056,0.0014 -0.4568,0.1126 -0.0433,0.0052 -0.1693,0.0206 -0.0123,0.044 -0.0617,0.221 -0.022,0.0788 -0.3874,0.0995 -0.0383,-0.0392 -0.0123,-0.0124 -0.1902,-0.1943 -0.037,0.014 -0.0208,0.0079 -0.4568,0.1126 -0.0056,0.0014 -0.0051,0.0027 -0.4165,0.2186 -0.0608,0.0231 -0.2104,0.0797 -7e-4,0.0325 -0.0047,0.2247 -0.0022,0.1073 -0.3505605,0.1927 -0.04016,-0.0243 -0.16343,-0.099 -0.05455,-0.033 -0.03174,-0.0192 -0.0018,-0.0011 -0.4077,0.2139 -0.0043,0.0039 -0.35214,0.3119 -0.08896,0.0614 -0.21193,0.1463 0.04348,0.1854 0.0068,0.0288 0.03492,0.1489 -4.6e-4,5e-4 -0.26468,0.2485 -0.02645,0.0248 -0.08992,-0.0271 -0.02506,-0.0076 -0.20519,-0.062 -0.01243,-0.0037 -0.28324,0.2509 -0.0033,0.0048 -0.26724,0.3871 -0.15859,0.1791 -0.13388,0.1511 0.0028,0.0054 0.02564,0.0491 0.02753,0.0526 5.4e-4,0.001 0.12042,0.2304 -0.21433,0.3377 -0.05896,-0.0025 -0.03984,-0.0017 -0.2317,-0.0096 -0.02404,-0.0011 -0.16803,0.2435 -0.0021,0.0054 -0.16683,0.4398 -0.0027,0.0052 -0.21862,0.4165 -5e-5,2e-4 -0.0012,0.0031 -0.01377,0.0363 0.01115,0.0124 0.24738,0.2747 -0.12361,0.3804 -0.04246,0.009 -0.15651,0.0333 -0.12182,0.0259 -0.03454,0.0073 -0.07538,0.1988 -7e-4,0.0058 -0.05671,0.467 -0.0014,0.0056 -0.11258,0.4568 -3e-5,2e-4 -0.0095,0.0778 -1e-5,1e-4 v 0.0457 l 0.11668,0.0775 0.20038,0.1332 -0.02512,0.3992 -0.27463,0.1363 -0.01731,0.0086 -0.04189,0.0208 -0.01552,0.1278 7e-4,0.0058 0.05671,0.467 v 0.4762 l 1e-5,2e-4 0.0095,0.0779 3e-5,1e-4 0.03107,0.1261 0.20514,0.0714 0.01267,0.0044 0.13226,0.0461 0.07495,0.3929 -0.06306,0.0544 -0.16818,0.1452 -0.01495,0.0129 -0.04386,0.0378 0.0053,0.044 0.0021,0.0054 0.16682,0.4399 0.0014,0.0057 0.11259,0.4568 4e-5,1e-4 0.02782,0.0733 5e-5,1e-4 0.09917,0.189 0.04892,0.004 0.21381,0.018 0.09775,0.0082 0.17032,0.362 -0.07389,0.1062 -0.10027,0.1443 -0.0113,0.0162 -0.03383,0.0488 0.0023,0.0033 0.24783,0.3589 0.0027,0.0052 0.21862,0.4166 7e-5,10e-5 0.04456,0.0645 9e-5,10e-5 0.19649,0.2219 0.06665,-0.0113 0.20805,-0.0352 0.07418,-0.0125 0.25497,0.3082 -0.04036,0.1085 -0.06617,0.1779 -0.0067,0.0181 -0.01738,0.0467 6e-5,1e-4 0.27309,0.2419 0.0038,0.0044 0.31196,0.3521 10e-5,1e-4 0.05871,0.052 1.1e-4,10e-5 0.31165,0.2151 0.22398,-0.0997 0.03721,-0.0166 0.0557,-0.0248 0.32361,0.2351 -0.0042,0.0396 -0.01256,0.1195 -0.01739,0.1655 -0.0042,0.0395 0.25625,0.1345 0.38213,0.2637 0.0098,0.0068 1.1e-4,1e-4 0.06946,0.0364 1.2e-4,10e-5 0.4305805,0.1633 0.2269,-0.1798 0.0402,-0.0319 0.372,0.1472 0.0074,0.0503 0.0117,0.079 0.0289,0.1958 0.0043,0.0292 0.2074,0.0511 0.4246,0.161 0.0208,0.0079 h 10e-5 l 0.0761,0.0188 h 2e-4 l 0.0999,0.0122 0.3729,0.0452 0.0598,0.0148 0.0052,-0.0069 0.0563,-0.0741 0.0706,-0.0931 0.0762,-0.1003 0.3968,0.0501 0.0278,0.0661 0.0244,0.0581 0.0764,0.1817 0.0074,0.0176 h 0.1378 l 0.4306,0.0523 0.0421,0.0051 h 2e-4 0.0784 z m -1.4061,-9.9305 -1.2018,-1.4322 v -1.8698 l 1.2018,-1.4322 1.8413,-0.3247 1.6193,0.9348 0.6394,1.757 -0.6394,1.757 -1.6193,0.9348 z m 22.2061,9.9305 0.0421,-0.0051 0.4306,-0.0523 h 0.1378 l 0.0074,-0.0176 0.0764,-0.1817 0.0244,-0.0581 0.0278,-0.0661 0.3968,-0.0501 0.0762,0.1003 0.0706,0.0931 0.0563,0.0741 0.0052,0.0069 0.0598,-0.0148 0.3729,-0.0452 0.0999,-0.0122 h 2e-4 l 0.0761,-0.0188 h 1e-4 l 0.0208,-0.0079 0.4246,-0.161 0.2074,-0.0511 0.0043,-0.0292 0.0289,-0.1958 0.0117,-0.079 0.0074,-0.0503 0.372,-0.1472 0.0402,0.0319 0.2269,0.1798 0.4306,-0.1633 1e-4,-10e-5 0.0694,-0.0364 1e-4,-1e-4 0.0099,-0.0068 0.3821,-0.2637 0.2563,-0.1345 -0.0042,-0.0395 -0.0174,-0.1655 -0.0125,-0.1195 -0.0042,-0.0396 0.3236,-0.2351 0.0557,0.0248 0.0372,0.0166 0.224,0.0997 0.3117,-0.2151 1e-4,-10e-5 0.0587,-0.052 10e-5,-1e-4 0.3119,-0.3521 0.0039,-0.0044 0.273,-0.2419 1e-4,-1e-4 -0.0174,-0.0467 -0.0067,-0.0181 -0.0662,-0.1779 -0.0403,-0.1085 0.255,-0.3082 0.0742,0.0125 0.208,0.0352 0.0667,0.0113 0.1965,-0.2219 1e-4,-10e-5 0.0445,-0.0645 1e-4,-10e-5 0.2186,-0.4166 0.0027,-0.0052 0.2478,-0.3589 0.0023,-0.0033 -0.0339,-0.0488 -0.0113,-0.0162 -0.1002,-0.1443 -0.0739,-0.1062 0.1703,-0.362 0.0978,-0.0082 0.2138,-0.018 0.0489,-0.004 0.0991,-0.189 10e-5,-1e-4 0.0278,-0.0733 v -1e-4 l 0.1126,-0.4568 0.0014,-0.0057 0.1668,-0.4399 0.0021,-0.0054 0.0054,-0.044 -0.0439,-0.0378 -0.015,-0.0129 -0.1681,-0.1452 -0.0631,-0.0544 0.075,-0.3929 0.1322,-0.0461 0.0127,-0.0044 0.2051,-0.0714 0.0311,-0.1261 v -1e-4 l 0.0095,-0.0779 v -2e-4 -0.4762 l 0.0567,-0.467 7e-4,-0.0058 -0.0155,-0.1278 -0.0419,-0.0208 -0.0173,-0.0086 -0.2746,-0.1363 -0.0252,-0.3992 0.2004,-0.1332 0.1167,-0.0775 v -0.0457 -1e-4 l -0.0095,-0.0778 v -2e-4 l -0.1126,-0.4568 -0.0014,-0.0056 -0.0567,-0.467 -7e-4,-0.0058 -0.0754,-0.1988 -0.0345,-0.0073 -0.1219,-0.0259 -0.1564,-0.0333 -0.0425,-0.009 -0.1236,-0.3804 0.2473,-0.2747 0.0112,-0.0124 -0.0138,-0.0363 -0.0011,-0.0031 -10e-5,-2e-4 -0.2186,-0.4165 -0.0027,-0.0052 -0.1668,-0.4398 -0.0021,-0.0054 -0.168,-0.2435 -0.0241,0.0011 -0.2316,0.0096 -0.0398,0.0017 -0.059,0.0025 -0.2144,-0.3377 0.1205,-0.2304 5e-4,-0.001 0.0275,-0.0526 0.0257,-0.0491 0.0028,-0.0054 -0.1338,-0.1511 -0.1586,-0.1791 -0.2673,-0.3871 -0.0033,-0.0048 -0.2832,-0.2509 -0.0125,0.0037 -0.2052,0.062 -0.0251,0.0076 -0.0899,0.0271 -0.0264,-0.0248 -0.2646,-0.2485 -5e-4,-5e-4 0.0349,-0.1489 0.0067,-0.0288 0.0435,-0.1854 -0.2119,-0.1463 -0.089,-0.0614 -0.3521,-0.3119 -0.0044,-0.0039 -0.4077,-0.2139 -0.0018,0.0011 -0.0317,0.0192 -0.0546,0.033 -0.1633,0.099 -0.0402,0.0243 -0.3506,-0.1927 -0.0022,-0.1073 -0.0047,-0.2247 -7e-4,-0.0325 -0.2103,-0.0797 -0.0608,-0.0231 -0.4166,-0.2186 -0.0051,-0.0027 -0.0056,-0.0014 -0.4568,-0.1126 -0.0208,-0.0079 -0.037,-0.014 -0.1902,0.1943 -0.0123,0.0124 -0.0383,0.0392 -0.3874,-0.0995 -0.022,-0.0788 -0.0617,-0.221 -0.0123,-0.044 -0.1693,-0.0206 -0.0433,-0.0052 -0.4568,-0.1126 -0.0056,-0.0014 h -0.4763 l -0.0305,-0.0037 -0.1065,-0.0129 -0.1369,0.2371 -0.0053,0.0092 -0.0329,0.0569 h -0.4 l -0.0329,-0.0569 -0.0053,-0.0092 -0.1369,-0.2371 -0.1065,0.0129 -0.0305,0.0037 h -0.4763 l -0.0056,0.0014 -0.4568,0.1126 -0.0433,0.0052 -0.1693,0.0206 -0.0123,0.044 -0.0617,0.221 -0.022,0.0788 -0.3874,0.0995 -0.0383,-0.0392 -0.0123,-0.0124 -0.1902,-0.1943 -0.037,0.014 -0.0208,0.0079 -0.4568,0.1126 -0.0056,0.0014 -0.0051,0.0027 -0.4166,0.2186 -0.0608,0.0231 -0.2103,0.0797 -7e-4,0.0325 -0.0047,0.2247 -0.0022,0.1073 -0.3506,0.1927 -0.0402,-0.0243 -0.1633,-0.099 -0.0546,-0.033 -0.0317,-0.0192 -0.0018,-0.0011 -0.4077,0.2139 -0.0044,0.0039 -0.3521,0.3119 -0.089,0.0614 -0.2119,0.1463 0.0435,0.1854 0.0067,0.0288 0.0349,0.1489 -5e-4,5e-4 -0.2646,0.2485 -0.0264,0.0248 -0.0899,-0.0271 -0.0251,-0.0076 -0.2052,-0.062 -0.0125,-0.0037 -0.2832,0.2509 -0.0033,0.0048 -0.2673,0.3871 -0.1586,0.1791 -0.1338,0.1511 0.0028,0.0054 0.0257,0.0491 0.0275,0.0526 5e-4,0.001 0.1205,0.2304 -0.2144,0.3377 -0.059,-0.0025 -0.0398,-0.0017 -0.2316,-0.0096 -0.0241,-0.0011 -0.168,0.2435 -0.0021,0.0054 -0.1668,0.4398 -0.0027,0.0052 -0.2186,0.4165 -10e-5,2e-4 -0.0011,0.0031 -0.0138,0.0363 0.0112,0.0124 0.2473,0.2747 -0.1236,0.3804 -0.0425,0.009 -0.1564,0.0333 -0.1219,0.0259 -0.0345,0.0073 -0.0754,0.1988 -7e-4,0.0058 -0.0567,0.467 -0.0014,0.0056 -0.1126,0.4568 v 2e-4 l -0.0095,0.0778 v 1e-4 0.0457 l 0.1167,0.0775 0.2004,0.1332 -0.0252,0.3992 -0.2746,0.1363 -0.0173,0.0086 -0.0419,0.0208 -0.0155,0.1278 7e-4,0.0058 0.0567,0.467 v 0.4762 2e-4 l 0.0095,0.0779 v 1e-4 l 0.031,0.1261 0.2052,0.0714 0.0127,0.0044 0.1322,0.0461 0.075,0.3929 -0.0631,0.0544 -0.1681,0.1452 -0.015,0.0129 -0.0439,0.0378 0.0054,0.044 0.0021,0.0054 0.1668,0.4399 0.0014,0.0057 0.1126,0.4568 v 1e-4 l 0.0278,0.0733 10e-5,1e-4 0.0991,0.189 0.0489,0.004 0.2138,0.018 0.0978,0.0082 0.1703,0.362 -0.0739,0.1062 -0.1002,0.1443 -0.0113,0.0162 -0.0339,0.0488 0.0023,0.0033 0.2478,0.3589 0.0027,0.0052 0.2186,0.4166 10e-5,10e-5 0.0445,0.0645 10e-5,10e-5 0.1965,0.2219 0.0667,-0.0113 0.208,-0.0352 0.0742,-0.0125 0.255,0.3082 -0.0403,0.1085 -0.0662,0.1779 -0.0067,0.0181 -0.0174,0.0467 10e-5,1e-4 0.273,0.2419 0.0039,0.0044 0.3119,0.3521 10e-5,1e-4 0.0587,0.052 10e-5,10e-5 0.3117,0.2151 0.224,-0.0997 0.0372,-0.0166 0.0557,-0.0248 0.3236,0.2351 -0.0042,0.0396 -0.0125,0.1195 -0.0174,0.1655 -0.0042,0.0395 0.2563,0.1345 0.3821,0.2637 0.0099,0.0068 10e-5,1e-4 0.0694,0.0364 1e-4,10e-5 0.4306,0.1633 0.2269,-0.1798 0.0402,-0.0319 0.372,0.1472 0.0074,0.0503 0.0117,0.079 0.0289,0.1958 0.0043,0.0292 0.2074,0.0511 0.4246,0.161 0.0208,0.0079 h 10e-5 l 0.0761,0.0188 h 2e-4 l 0.0999,0.0122 0.3729,0.0452 0.0598,0.0148 0.0052,-0.0069 0.0563,-0.0741 0.0706,-0.0931 0.0762,-0.1003 0.3968,0.0501 0.0278,0.0661 0.0244,0.0581 0.0764,0.1817 0.0074,0.0176 h 0.1378 l 0.4306,0.0523 0.0421,0.0051 h 2e-4 0.0784 z m -1.4061,-9.9305 -1.2018,-1.4322 v -1.8698 l 1.2018,-1.4322 1.8413,-0.3247 1.6193,0.9348 0.6394,1.757 -0.6394,1.757 -1.6193,0.9348 z m 22.2061,9.9305 0.0421,-0.0051 0.4306,-0.0523 h 0.1378 l 0.0074,-0.0176 0.0764,-0.1817 0.0244,-0.0581 0.0278,-0.0661 0.3968,-0.0501 0.0762,0.1003 0.0706,0.0931 0.0563,0.0741 0.0052,0.0069 0.0598,-0.0148 0.3729,-0.0452 0.0999,-0.0122 h 2e-4 l 0.0761,-0.0188 h 10e-5 l 0.0208,-0.0079 0.4246,-0.161 0.2074,-0.0511 0.0043,-0.0292 0.0289,-0.1958 0.0117,-0.079 0.0074,-0.0503 0.372,-0.1472 0.0402,0.0319 0.2269,0.1798 0.4306,-0.1633 1e-4,-10e-5 0.0694,-0.0364 10e-5,-1e-4 0.0099,-0.0068 0.3821,-0.2637 0.2563,-0.1345 -0.0042,-0.0395 -0.0174,-0.1655 -0.0125,-0.1195 -0.0042,-0.0396 0.3236,-0.2351 0.0557,0.0248 0.0372,0.0166 0.224,0.0997 0.3117,-0.2151 10e-5,-10e-5 0.0587,-0.052 10e-5,-1e-4 0.3119,-0.3521 0.0039,-0.0044 0.273,-0.2419 10e-5,-1e-4 -0.0174,-0.0467 -0.0067,-0.0181 -0.0662,-0.1779 -0.0403,-0.1085 0.255,-0.3082 0.0742,0.0125 0.208,0.0352 0.0667,0.0113 0.1965,-0.2219 10e-5,-10e-5 0.0445,-0.0645 1e-4,-10e-5 0.2186,-0.4166 0.0027,-0.0052 0.2478,-0.3589 0.0023,-0.0033 -0.0339,-0.0488 -0.0113,-0.0162 -0.1002,-0.1443 -0.0739,-0.1062 0.1703,-0.362 0.0978,-0.0082 0.2138,-0.018 0.0489,-0.004 0.0991,-0.189 1e-4,-1e-4 0.0278,-0.0733 v -1e-4 l 0.1126,-0.4568 0.0014,-0.0057 0.1668,-0.4399 0.0021,-0.0054 0.0054,-0.044 -0.0439,-0.0378 -0.015,-0.0129 -0.1681,-0.1452 -0.0631,-0.0544 0.075,-0.3929 0.1322,-0.0461 0.0127,-0.0044 0.2052,-0.0714 0.031,-0.1261 v -1e-4 l 0.0095,-0.0779 v -2e-4 -0.4762 l 0.0567,-0.467 7e-4,-0.0058 -0.0155,-0.1278 -0.0419,-0.0208 -0.0173,-0.0086 -0.2746,-0.1363 -0.0252,-0.3992 0.2004,-0.1332 0.1167,-0.0775 v -0.0457 -1e-4 l -0.0095,-0.0778 v -2e-4 l -0.1126,-0.4568 -0.0014,-0.0056 -0.0567,-0.467 -7e-4,-0.0058 -0.0754,-0.1988 -0.0345,-0.0073 -0.1219,-0.0259 -0.1564,-0.0333 -0.0425,-0.009 -0.1236,-0.3804 0.2473,-0.2747 0.0112,-0.0124 -0.0138,-0.0363 -0.0011,-0.0031 -1e-4,-2e-4 -0.2186,-0.4165 -0.0027,-0.0052 -0.1668,-0.4398 -0.0021,-0.0054 -0.168,-0.2435 -0.0241,0.0011 -0.2316,0.0096 -0.0398,0.0017 -0.059,0.0025 -0.2144,-0.3377 0.1205,-0.2304 5e-4,-0.001 0.0275,-0.0526 0.0257,-0.0491 0.0028,-0.0054 -0.1338,-0.1511 -0.1586,-0.1791 -0.2673,-0.3871 -0.0033,-0.0048 -0.2832,-0.2509 -0.0125,0.0037 -0.2052,0.062 -0.0251,0.0076 -0.0899,0.0271 -0.0264,-0.0248 -0.2646,-0.2485 -5e-4,-5e-4 0.0349,-0.1489 0.0067,-0.0288 0.0435,-0.1854 -0.2119,-0.1463 -0.089,-0.0614 -0.3521,-0.3119 -0.0044,-0.0039 -0.4077,-0.2139 -0.0018,0.0011 -0.0317,0.0192 -0.0546,0.033 -0.1633,0.099 -0.0402,0.0243 -0.3506,-0.1927 -0.0022,-0.1073 -0.0047,-0.2247 -7e-4,-0.0325 -0.2104,-0.0797 -0.0608,-0.0231 -0.4165,-0.2186 -0.0051,-0.0027 -0.0056,-0.0014 -0.4568,-0.1126 -0.0208,-0.0079 -0.037,-0.014 -0.1902,0.1943 -0.0123,0.0124 -0.0383,0.0392 -0.3874,-0.0995 -0.022,-0.0788 -0.0617,-0.221 -0.0123,-0.044 -0.1693,-0.0206 -0.0433,-0.0052 -0.4568,-0.1126 -0.0056,-0.0014 h -0.4763 l -0.0305,-0.0037 -0.1065,-0.0129 -0.1369,0.2371 -0.0053,0.0092 -0.0329,0.0569 h -0.4 l -0.0329,-0.0569 -0.0053,-0.0092 -0.1369,-0.2371 -0.1065,0.0129 -0.0306,0.0037 h -0.4762 l -0.0056,0.0014 -0.4568,0.1126 -0.0433,0.0052 -0.1693,0.0206 -0.0123,0.044 -0.0617,0.221 -0.022,0.0788 -0.3874,0.0995 -0.0383,-0.0392 -0.0123,-0.0124 -0.1902,-0.1943 -0.037,0.014 -0.0208,0.0079 -0.4568,0.1126 -0.0056,0.0014 -0.0051,0.0027 -0.4166,0.2186 -0.0608,0.0231 -0.2103,0.0797 -7e-4,0.0325 -0.0047,0.2247 -0.0022,0.1073 -0.3506,0.1927 -0.0402,-0.0243 -0.1633,-0.099 -0.0546,-0.033 -0.0317,-0.0192 -0.0018,-0.0011 -0.4077,0.2139 -0.0044,0.0039 -0.3521,0.3119 -0.089,0.0614 -0.2119,0.1463 0.0435,0.1854 0.0067,0.0288 0.0349,0.1489 -5e-4,5e-4 -0.2646,0.2485 -0.0264,0.0248 -0.0899,-0.0271 -0.0251,-0.0076 -0.2052,-0.062 -0.0125,-0.0037 -0.2832,0.2509 -0.0033,0.0048 -0.2673,0.3871 -0.1586,0.1791 -0.1338,0.1511 0.0028,0.0054 0.0257,0.0491 0.0275,0.0526 5e-4,0.001 0.1205,0.2304 -0.2144,0.3377 -0.059,-0.0025 -0.0398,-0.0017 -0.2316,-0.0096 -0.0241,-0.0011 -0.168,0.2435 -0.0021,0.0054 -0.1668,0.4398 -0.0027,0.0052 -0.2186,0.4165 -10e-5,2e-4 -0.0011,0.0031 -0.0138,0.0363 0.0112,0.0124 0.2473,0.2747 -0.1236,0.3804 -0.0425,0.009 -0.1564,0.0333 -0.1219,0.0259 -0.0345,0.0073 -0.0754,0.1988 -7e-4,0.0058 -0.0567,0.467 -0.0014,0.0056 -0.1126,0.4568 v 2e-4 l -0.0095,0.0778 v 1e-4 0.0457 l 0.1167,0.0775 0.2004,0.1332 -0.0252,0.3992 -0.2746,0.1363 -0.0173,0.0086 -0.0419,0.0208 -0.0155,0.1278 7e-4,0.0058 0.0567,0.467 v 0.4762 2e-4 l 0.0095,0.0779 v 1e-4 l 0.031,0.1261 0.2052,0.0714 0.0127,0.0044 0.1322,0.0461 0.075,0.3929 -0.0631,0.0544 -0.1681,0.1452 -0.015,0.0129 -0.0439,0.0378 0.0054,0.044 0.0021,0.0054 0.1668,0.4399 0.0014,0.0057 0.1126,0.4568 v 1e-4 l 0.0278,0.0733 10e-5,1e-4 0.0991,0.189 0.0489,0.004 0.2138,0.018 0.0978,0.0082 0.1703,0.362 -0.0739,0.1062 -0.1002,0.1443 -0.0113,0.0162 -0.0339,0.0488 0.0023,0.0033 0.2478,0.3589 0.0027,0.0052 0.2186,0.4166 10e-5,10e-5 0.0445,0.0645 1e-4,10e-5 0.1965,0.2219 0.0667,-0.0113 0.208,-0.0352 0.0742,-0.0125 0.255,0.3082 -0.0403,0.1085 -0.0662,0.1779 -0.0067,0.0181 -0.0174,0.0467 1e-4,1e-4 0.273,0.2419 0.0039,0.0044 0.3119,0.3521 1e-4,1e-4 0.0587,0.052 1e-4,10e-5 0.3117,0.2151 0.224,-0.0997 0.0372,-0.0166 0.0557,-0.0248 0.3236,0.2351 -0.0042,0.0396 -0.0125,0.1195 -0.0174,0.1655 -0.0042,0.0395 0.2563,0.1345 0.3821,0.2637 0.0099,0.0068 1e-4,1e-4 0.0694,0.0364 10e-5,10e-5 0.4306,0.1633 0.2269,-0.1798 0.0402,-0.0319 0.372,0.1472 0.0074,0.0503 0.0117,0.079 0.0289,0.1958 0.0043,0.0292 0.2074,0.0511 0.4246,0.161 0.0208,0.0079 h 1e-4 l 0.0761,0.0188 h 2e-4 l 0.0999,0.0122 0.3729,0.0452 0.0598,0.0148 0.0052,-0.0069 0.0563,-0.0741 0.0706,-0.0931 0.0762,-0.1003 0.3968,0.0501 0.0278,0.0661 0.0244,0.0581 0.0764,0.1817 0.0074,0.0176 h 0.1378 l 0.4306,0.0523 0.0421,0.0051 h 2e-4 0.0784 z m -1.4061,-9.9305 -1.2018,-1.4322 v -1.8698 l 1.2018,-1.4322 1.8413,-0.3247 1.6193,0.9348 0.6394,1.757 -0.6394,1.757 -1.6193,0.9348 z"
         stroke="#000000"
         fill="#d3d3d3"
         stroke-width="0.5"
         id="path4410-3-5"
         inkscape:label="knob markers"
         style="display:inline;fill:#ffffff;fill-opacity:1;stroke-width:0.395729;stroke-dasharray:none" /><path
         d="m 37.378795,-7.5579198 v -0.95995 h 2.0133 v 0.95995 z m 0,0.49818 1.0619,-0.0051 0.8846,1.05348 h 0.5645 v -0.09886 l -0.8092,-0.95441 h 0.2374 l 0.2224,-0.0431 0.182,-0.12447 0.1244,-0.18086 0.043,-0.21899 v -0.80716 l -0.043,-0.21901 -0.1244,-0.18091 -0.1819,-0.12444 -0.2225,-0.04312 h -2.428 v 2.99533 h 0.4888 z m -1.0612,0.55507 h -2.502 v -2.0132 h 2.502 v -0.4933 h -2.4236 l -0.222,0.04262 -0.18,0.12266 -0.1227,0.18003 -0.0426,0.22192 v 1.86533 l 0.0426,0.22194 0.1227,0.17999 0.18,0.12266 0.222,0.04262 h 2.4236 z m -6.1132,-1.82324 1.9465,2.31651 h 0.5645 v -2.99977 h -0.4977 v 2.30782 l -1.9376,-2.30782 h -0.5645 v 2.99977 h 0.4888 z m -0.9554,-0.68326 h -0.48 v 2.99977 h 0.48 z m -11.8979,0.4933 h 1.2533 v -0.4933 h -2.9998 v 0.4933 h 1.2532 v 2.50647 h 0.4933 z m -2.1634,2.0132 h -2.502 v -2.0132 h 2.502 v -0.4933 h -2.4236 l -0.222,0.04262 -0.1799,0.12266 -0.1227,0.18003 -0.0426,0.22192 v 1.86533 l 0.0426,0.22194 0.1226,0.17999 0.18,0.12266 0.222,0.04262 h 2.4236 z m -6.1046504,0 v -2.0132 h 2.0132514 v 2.0132 z m 2.1628514,0.45072 0.1808,-0.12291 0.1242,-0.18021 0.0431,-0.22162 v -1.86516 l -0.0431,-0.22163 -0.1242,-0.18018 -0.1808,-0.12295 -0.2192,-0.04256 H 9.1614346 l -0.22194,0.04262 -0.17996,0.12266 -0.12269,0.18003 -0.04261,0.22192 v 1.86533 l 0.04261,0.22194 0.12265,0.17997 0.18001,0.12268 0.22193,0.04262 h 1.8652614 z m 43.3543,-27.1487292 v -2.0132 h 2.0132 v 2.0132 z m 2.1628,0.4507 0.1809,-0.1229 0.1241,-0.1802 0.0431,-0.2216 v -1.8652 l -0.0431,-0.2216 -0.1241,-0.1802 -0.1809,-0.1229 -0.2192,-0.0426 h -1.8652 l -0.222,0.0426 -0.18,0.1227 -0.1226,0.18 -0.0426,0.2219 v 1.8654 l 0.0426,0.2219 0.1226,0.18 0.18,0.1227 0.222,0.0426 h 1.8652 z m -3.0832,-2.9572 h -0.564301 l -1.3998,2.4243 -1.3999,-2.4243 h -0.5687 l 1.7373,2.9998 h 0.458 z m 7.0384,2.5065 h -2.5109 v -2.5109 h -0.4889 v 3.0042 h 2.9998 z m -21.917801,-1.0552 v -0.96 h 2.0132 v 0.96 z m 0,0.4979 1.939,-0.0047 0.2226,-0.0431 0.1819,-0.1244 0.1244,-0.1809 0.043,-0.219 v -0.8072 l -0.043,-0.219 -0.1244,-0.1809 -0.1819,-0.1244 -0.2224,-0.0431 h -2.4281 v 2.9953 h 0.4889 z m -7.1789,-0.4979 v -0.96 h 2.0132 v 0.96 z m 0,0.4981 1.0619,-0.0051 0.8845,1.0535 h 0.5645 v -0.0989 l -0.8091,-0.9544 h 0.2373 l 0.2225,-0.0431 0.1819,-0.1245 0.1244,-0.1808 0.043,-0.219 v -0.8072 l -0.043,-0.219 -0.1244,-0.1809 -0.1819,-0.1244 -0.2225,-0.0431 h -2.428 v 2.9953 h 0.4889 z m 3.5762,0.5551 v -2.0132 h 2.0132 v 2.0132 z m 2.1629,0.4507 0.1808,-0.1229 0.1242,-0.1802 0.0431,-0.2216 v -1.8652 l -0.0431,-0.2216 -0.1242,-0.1802 -0.1809,-0.1229 -0.2191,-0.0426 h -1.8653 l -0.222,0.0426 -0.1799,0.1227 -0.1227,0.18 -0.0426,0.222 v 1.8653 l 0.0426,0.2219 0.1227,0.18 0.18,0.1227 0.2219,0.0426 h 1.8653 z m -9.3456,-0.4507 v -2.0132 h 2.0132 v 2.0132 z m 2.162,0.4506 0.1818,-0.1229 0.1241,-0.1801 0.0431,-0.2216 v -1.8652 l -0.0431,-0.2216 -0.1241,-0.1801 -0.1818,-0.1229 -0.2226,-0.0427 h -2.4282 v 2.9998 h 2.4282 z m -9.9945,-0.4506 h -2.2577 v -0.76 h 1.8177 v -0.4932 h -1.8177 v -0.76 h 2.2577 v -0.4933 h -2.7554 v 2.9998 h 2.7554 z m -5.8866,-1.8232 1.9465,2.3165 h 0.5645 v -2.9998 h -0.4977 v 2.3078 l -1.9377,-2.3078 h -0.5644 v 2.9998 h 0.4888 z m -3.602599,1.8232 v -2.0132 h 2.013199 v 2.0132 z m 2.162899,0.4507 0.1808,-0.1229 0.1242,-0.1802 0.0431,-0.2216 v -1.8652 l -0.0431,-0.2216 -0.1242,-0.1802 -0.1809,-0.1229 -0.2191,-0.0426 h -1.865299 l -0.222,0.0426 -0.1799,0.1227 -0.1227,0.18 -0.0426,0.222 v 1.8653 l 0.0426,0.2219 0.1227,0.18 0.18,0.1227 0.2219,0.0426 h 1.865299 z m -4.3505904,-2.4639 h 1.25325 v -0.4933 h -2.99975 v 0.4933 h 1.25325 v 2.5065 h 0.49325 z m 75.4853914,-7.7511 h -2.2576 v -0.76 h 1.8177 v -0.4932 h -1.8177 v -0.76 h 2.2576 v -0.4933 h -2.7553 v 2.9998 h 2.7553 z m -3.341,0 h -2.5021 v -2.0132 h 2.5021 v -0.4933 h -2.4237 l -0.2219,0.0426 -0.18,0.1227 -0.1227,0.18 -0.0426,0.222 v 1.8653 l 0.0426,0.2219 0.1227,0.18 0.18,0.1227 0.2219,0.0426 h 2.4237 z m -3.4576,-2.5065 h -0.4799 v 2.9998 h 0.4799 z m -3.5842,2.5065 v -2.0132 h 2.0132 v 2.0132 z m 2.162,0.4506 0.1818,-0.1229 0.1241,-0.1801 0.0431,-0.2216 v -1.8652 l -0.0431,-0.2216 -0.1241,-0.1801 -0.1818,-0.1229 -0.2226,-0.0427 h -2.4282 v 2.9998 h 2.4282 z m -1.6305,-5.1538 v -0.96 h 2.0132 v 0.96 z m 0,0.4979 1.9391,-0.0047 0.2225,-0.0431 0.182,-0.1244 0.1243,-0.1809 0.043,-0.219 v -0.8072 l -0.043,-0.219 -0.1243,-0.1809 -0.182,-0.1244 -0.2224,-0.0431 h -2.4281 v 2.9953 h 0.4889 z m 12.9047,0.5553 h -2.2576 v -0.76 h 1.8177 v -0.4932 h -1.8177 v -0.76 h 2.2576 v -0.4933 h -2.7553 v 2.9998 h 2.7553 z m -3.341,0 h -2.5021 v -2.0132 h 2.5021 v -0.4933 h -2.4237 l -0.222,0.0426 -0.1799,0.1227 -0.1227,0.18 -0.0426,0.222 v 1.8653 l 0.0426,0.2219 0.1226,0.18 0.1801,0.1227 0.2219,0.0426 h 2.4237 z m -6.1217,-1.031 v -0.9822 h 2.0132 v 0.9822 z m 0,0.4933 h 2.0132 v 1.031 h 0.4978 v -2.4325 l -0.0431,-0.2216 -0.1241,-0.1801 -0.1818,-0.1229 -0.2227,-0.0427 h -1.8609 l -0.2219,0.0426 -0.18,0.1227 -0.1227,0.18 -0.0426,0.222 v 2.4325 h 0.4888 z m -4.8818,0.9884 0.1808,-0.1229 0.1242,-0.1802 0.0431,-0.2216 v -0.6119 l -0.0431,-0.2217 -0.1242,-0.1801 -0.1808,-0.1229 -0.2192,-0.0426 h -1.9436 v -0.76 h 2.0132 v 0.2622 h 0.4977 v -0.1882 l -0.0431,-0.2216 -0.1242,-0.1802 -0.1808,-0.1229 -0.2192,-0.0426 h -1.8653 l -0.2219,0.0426 -0.18,0.1227 -0.1226,0.18 -0.0427,0.222 v 0.6121 l 0.0427,0.2219 0.1226,0.18 0.18,0.1226 0.2219,0.0426 h 1.9349 v 0.76 h -2.0132 v -0.2622 h -0.4889 v 0.1883 l 0.0427,0.2219 0.1226,0.18 0.18,0.1227 0.2219,0.0426 h 1.8653 z m 15.1822,-4.5297 h -0.9743 v -0.7725 h 0.9022 v -0.4574 h -0.9022 v -0.677 h 0.9743 v -0.4575 h -1.5878 v 2.8322 h 1.5878 z m -4.0736,-0.8258 -3e-4,-0.0269 -5e-4,-0.0291 -7e-4,-0.0302 -8e-4,-0.0313 -0.0011,-0.0327 -0.0013,-0.0339 -0.0014,-0.0351 -0.0017,-0.0363 -0.0018,-0.0375 -0.002,-0.0391 -0.0023,-0.0396 -0.0024,-0.0412 -0.0026,-0.0423 -0.0028,-0.0436 -0.0031,-0.0448 -0.0032,-0.046 -0.0034,-0.0472 -0.0036,-0.0486 -0.012,-0.1572 h 0.1874 l 1.0999,2.1362 h 0.906 v -2.8322 h -0.5251 v 1.2707 l 10e-5,0.0282 2e-4,0.0282 4e-4,0.0296 5e-4,0.031 6e-4,0.031 8e-4,0.0327 9e-4,0.033 0.0011,0.0343 0.0012,0.0351 0.0014,0.0361 0.0015,0.037 0.0016,0.0379 0.0018,0.0388 0.002,0.0397 0.002,0.0407 0.0022,0.0415 0.0024,0.0425 0.0025,0.0433 0.0027,0.0443 0.0093,0.1516 h -0.1794 l -1.0957,-2.1072 h -0.9021 v 2.8322 h 0.5208 z m -4.4397,-1.0687 h 0.7332 v -0.4699 h -2.0821 v 0.4699 h 0.7353 v 2.3623 h 0.6136 z m -1.7102,-0.4699 h -0.6177 v 2.8322 h 0.6177 z m -2.7449,1.8615 0.3811,-0.2296 0.6162,1.2003 h 0.6873 l -0.8806,-1.5797 0.8755,-1.2525 h -0.645 l -0.603,0.8861 -0.0189,0.0268 -0.0174,0.025 -0.0172,0.0247 -0.0163,0.0237 -0.0157,0.023 -0.0151,0.0223 -0.0144,0.0215 -0.0135,0.0204 -0.0134,0.0204 -0.0124,0.0193 -0.0118,0.0185 -0.0112,0.0178 -0.0105,0.0169 -0.0098,0.0162 -0.0087,0.0145 -0.009,0.0155 -0.0079,0.0139 -0.0067,0.0122 -0.0067,0.0124 -0.1949,0.3784 v -1.6295 h -0.6177 v 2.8322 h 0.6177 z m -1.9991,1.0119 0.0335,-8e-4 0.0323,-0.0014 0.0336,-0.0021 0.0319,-0.0025 0.0319,-0.0032 0.0306,-0.0036 0.0305,-0.0042 0.0304,-0.0049 0.0299,-0.0054 0.0282,-0.0057 0.0295,-0.0066 0.0279,-0.0069 0.0273,-0.0075 0.0272,-0.0081 0.0268,-0.0086 0.0255,-0.0089 0.0265,-0.01 0.0246,-0.01 0.0246,-0.0107 0.024,-0.0113 0.0237,-0.0119 0.0228,-0.0121 0.0226,-0.0128 0.0216,-0.013 0.0207,-0.0132 0.021,-0.0142 0.0195,-0.014 0.0192,-0.0146 0.0188,-0.0151 0.0179,-0.0153 0.0171,-0.0155 0.0171,-0.0164 0.0164,-0.0167 0.0152,-0.0165 0.0149,-0.0172 0.0148,-0.0181 0.0141,-0.0184 0.013,-0.0181 0.0128,-0.019 0.0123,-0.0196 0.0117,-0.0201 0.0109,-0.0199 0.0102,-0.0201 0.01,-0.0211 0.0089,-0.0206 0.0087,-0.0217 0.0078,-0.0213 0.0073,-0.0219 0.0064,-0.0216 0.0061,-0.0228 0.0055,-0.023 0.0047,-0.0229 0.004,-0.0227 0.0036,-0.0246 0.0028,-0.0238 0.0023,-0.0242 0.0016,-0.0251 9e-4,-0.025 4e-4,-0.0255 -4e-4,-0.0279 -10e-4,-0.0273 -0.0017,-0.0266 -0.0025,-0.0263 -0.0031,-0.0254 -0.0037,-0.0249 -0.0044,-0.0242 -0.0051,-0.0237 -0.0056,-0.0228 -0.0065,-0.0228 -0.0069,-0.0219 -0.0075,-0.021 -0.0085,-0.0214 -0.0087,-0.0199 -0.0096,-0.0202 -0.01,-0.0191 -0.0107,-0.0186 -0.0116,-0.0186 -0.0119,-0.0176 -0.0132,-0.0182 -0.0134,-0.0174 -0.0144,-0.0172 -0.0157,-0.0174 -0.0164,-0.0169 -0.0185,-0.0179 -0.0192,-0.0174 -0.0207,-0.0176 -0.0217,-0.0175 -0.0229,-0.0175 -0.0244,-0.0176 -0.0261,-0.0179 -0.0267,-0.0174 -0.0279,-0.0173 -0.0297,-0.0177 -0.0305,-0.0173 -0.0323,-0.0175 -0.0327,-0.0171 -0.0345,-0.0172 -0.0364,-0.0175 -0.0772,-0.0357 -0.0386,-0.0179 -0.0369,-0.0174 -0.0355,-0.0167 -0.0339,-0.0163 -0.0323,-0.0156 -0.0309,-0.0152 -0.0293,-0.0145 -0.0278,-0.014 -0.0263,-0.0135 -0.0248,-0.0129 -0.0234,-0.0124 -0.0219,-0.0119 -0.0204,-0.0114 -0.0191,-0.0109 -0.0177,-0.0105 -0.0163,-0.0101 -0.0151,-0.0097 -0.014,-0.0095 -0.0133,-0.0097 -0.0118,-0.0096 -0.0109,-0.0093 -0.0106,-0.0097 -0.01,-0.0099 -0.0097,-0.0103 -0.0092,-0.0106 -0.0087,-0.0108 -0.0083,-0.0114 -0.0077,-0.0117 -0.0072,-0.0119 -0.0066,-0.0124 -0.006,-0.0126 -0.0053,-0.0129 -0.0047,-0.0132 -0.004,-0.0135 -0.0033,-0.0137 -0.0025,-0.0137 -0.0018,-0.0139 -0.0011,-0.0139 -4e-4,-0.0139 3e-4,-0.0129 9e-4,-0.0126 0.0014,-0.0125 0.002,-0.0125 0.0026,-0.0126 0.0033,-0.0123 0.0037,-0.012 0.0045,-0.012 0.005,-0.0117 0.0056,-0.0113 0.0061,-0.0112 0.0067,-0.0109 0.0071,-0.0104 0.0076,-0.0101 0.008,-0.0098 0.0085,-0.0094 0.0088,-0.009 0.0092,-0.0087 0.0096,-0.0083 0.0103,-0.0083 0.0112,-0.0082 0.012,-0.0079 0.0124,-0.0074 0.0128,-0.0067 0.0131,-0.0062 0.0133,-0.0057 0.0137,-0.0051 0.0139,-0.0047 0.0142,-0.0042 0.0144,-0.0037 0.0147,-0.0034 0.0151,-0.0029 0.0153,-0.0026 0.0156,-0.0021 0.0158,-0.0018 0.0162,-0.0015 0.0165,-0.0011 0.0168,-8e-4 0.0171,-5e-4 0.0178,-2e-4 0.0338,6e-4 0.0346,0.0016 0.0349,0.0026 0.0355,0.0037 0.036,0.0048 0.0363,0.0057 0.0369,0.0068 0.0372,0.0078 0.0378,0.0088 0.0383,0.0097 0.0387,0.0109 0.0392,0.0117 0.0397,0.0128 0.0402,0.0137 0.0407,0.0148 0.0412,0.0157 0.0417,0.0166 0.0313,0.0131 0.1754,-0.4452 -0.0061,-0.0026 -0.0461,-0.0181 -0.047,-0.0175 -0.0455,-0.0159 -0.047,-0.0155 -0.0462,-0.0141 -0.0453,-0.0129 -0.0467,-0.0122 -0.045,-0.0108 -0.0453,-0.0098 -0.046,-0.009 -0.0447,-0.0077 -0.0462,-0.0069 -0.0438,-0.0055 -0.046,-0.0048 -0.0439,-0.0036 -0.0452,-0.0026 -0.0448,-0.0015 -0.0442,-6e-4 -0.0498,6e-4 -0.049,0.0017 -0.0478,0.0028 -0.0468,0.0039 -0.0447,0.0049 -0.0437,0.0061 -0.0432,0.0072 -0.041,0.0081 -0.0407,0.0093 -0.0387,0.0103 -0.038,0.0114 -0.0368,0.0124 -0.0347,0.0131 -0.0349,0.0147 -0.0328,0.0152 -0.0318,0.0163 -0.0307,0.0174 -0.0298,0.0184 -0.0286,0.0194 -0.0274,0.0203 -0.026,0.0211 -0.0245,0.0217 -0.0235,0.0228 -0.0215,0.023 -0.0204,0.024 -0.0189,0.0245 -0.0178,0.0257 -0.0162,0.0259 -0.0149,0.0269 -0.0138,0.0279 -0.0124,0.0286 -0.0112,0.0295 -0.01,0.031 -0.0085,0.0311 -0.0074,0.0325 -0.0061,0.0335 -0.0047,0.0345 -0.0034,0.036 -0.002,0.036 -7e-4,0.0391 1e-4,0.0188 5e-4,0.0219 8e-4,0.0189 0.0012,0.0203 0.0014,0.0185 0.0018,0.0198 0.002,0.0182 0.0024,0.0183 0.0026,0.0176 0.0031,0.0179 0.0033,0.0176 0.0035,0.0163 0.0039,0.0167 0.0042,0.0164 0.0044,0.0154 0.0048,0.0157 0.0052,0.0157 0.0053,0.0149 0.0055,0.0142 0.0057,0.0139 0.0062,0.0136 0.0068,0.0142 0.0071,0.0139 0.0073,0.0134 0.0079,0.0139 0.0081,0.0133 0.008,0.0127 0.0091,0.0136 0.0089,0.0127 0.0093,0.0127 0.0098,0.0128 0.0103,0.0127 0.0104,0.0124 0.0106,0.012 0.011,0.012 0.012,0.0125 0.0115,0.0114 0.0122,0.0117 0.0126,0.0116 0.0124,0.0109 0.0143,0.012 0.013,0.0104 0.0157,0.0119 0.0162,0.0119 0.0161,0.0115 0.0177,0.0121 0.0181,0.0119 0.0195,0.0125 0.0196,0.012 0.0207,0.0125 0.0211,0.0122 0.0229,0.0129 0.022,0.0121 0.0247,0.0132 0.0235,0.0123 0.0262,0.0133 0.0256,0.0127 0.0272,0.0132 0.0268,0.0126 0.029,0.0135 0.0314,0.0142 0.0308,0.0141 0.0296,0.0135 0.0284,0.0131 0.0271,0.0126 0.0259,0.0121 0.0246,0.0116 0.0235,0.0112 0.0222,0.0107 0.021,0.0101 0.0198,0.0098 0.0186,0.0092 0.0174,0.0088 0.0163,0.0084 0.0151,0.0079 0.014,0.0075 0.0129,0.0071 0.0119,0.0068 0.011,0.0065 0.0094,0.0059 0.0084,0.0053 0.0084,0.0055 0.0084,0.0056 0.008,0.0056 0.0079,0.0057 0.0077,0.0057 0.0076,0.0058 0.0073,0.0059 0.0072,0.0059 0.007,0.006 0.0068,0.0061 0.0067,0.0062 0.0066,0.0063 0.0063,0.0065 0.0061,0.0064 0.006,0.0067 0.0057,0.0068 0.0056,0.0069 0.0053,0.0071 0.0038,0.0053 0.0038,0.0051 0.0051,0.0074 0.0049,0.0076 0.0047,0.0079 0.0044,0.008 0.0041,0.008 0.0037,0.0081 0.0036,0.0084 0.0033,0.0086 0.0029,0.0086 0.0026,0.0085 0.0024,0.0088 0.0021,0.0089 0.0017,0.0087 0.0015,0.009 0.0012,0.009 9e-4,0.0089 7e-4,0.009 4e-4,0.009 1e-4,0.0094 -3e-4,0.0139 -9e-4,0.0141 -0.0015,0.014 -0.0023,0.0141 -0.0028,0.0138 -0.0036,0.0137 -0.0042,0.0136 -0.0049,0.0133 -0.0055,0.013 -0.0062,0.0127 -0.0068,0.0125 -0.0074,0.0121 -0.0079,0.0116 -0.0085,0.0113 -0.0091,0.011 -0.0095,0.0104 -0.01,0.0101 -0.0104,0.0097 -0.0108,0.0093 -0.0121,0.0096 -0.0132,0.0092 -0.0133,0.0083 -0.0136,0.0077 -0.014,0.0071 -0.0144,0.0065 -0.0148,0.006 -0.0151,0.0055 -0.0154,0.005 -0.0157,0.0044 -0.0161,0.0041 -0.0164,0.0035 -0.0167,0.0032 -0.0171,0.0028 -0.0174,0.0023 -0.0178,0.002 -0.0181,0.0016 -0.0186,0.0012 -0.0188,9e-4 -0.0193,5e-4 -0.0196,2e-4 -0.0227,-2e-4 -0.0229,-6e-4 -0.023,-9e-4 -0.0232,-0.0012 -0.0234,-0.0016 -0.0235,-0.0019 -0.0237,-0.0023 -0.0239,-0.0027 -0.0241,-0.0029 -0.0243,-0.0034 -0.0244,-0.0037 -0.0246,-0.004 -0.0248,-0.0043 -0.0249,-0.0047 -0.0251,-0.005 -0.0254,-0.0054 -0.0255,-0.0058 -0.0257,-0.006 -0.0258,-0.0064 -0.0264,-0.0068 -0.0265,-0.0074 -0.026,-0.0075 -0.0259,-0.0078 -0.0258,-0.0081 -0.0258,-0.0083 -0.0256,-0.0086 -0.0255,-0.0089 -0.0254,-0.0092 -0.0254,-0.0094 -0.0252,-0.0097 -0.0251,-0.0099 -0.0251,-0.0103 -0.0249,-0.0105 -0.0259,-0.0112 v 0.5076 l 0.0056,0.0025 0.0218,0.0095 0.0202,0.0086 0.0211,0.0087 0.0194,0.0077 0.0214,0.0082 0.0192,0.0072 0.0206,0.0074 0.0199,0.0068 0.0208,0.0069 0.0189,0.006 0.0205,0.0063 0.0188,0.0055 0.0203,0.0056 0.0194,0.0051 0.0183,0.0046 0.0199,0.0046 0.0188,0.0042 0.0185,0.0036 0.0198,0.0036 0.0205,0.0035 0.0202,0.0031 0.022,0.0031 0.0221,0.0029 0.0216,0.0026 0.0233,0.0025 0.0242,0.0023 0.0234,0.0021 0.025,0.0019 0.0244,0.0017 0.0261,0.0015 0.0253,0.0013 0.0271,0.0011 0.0266,9e-4 0.0281,7e-4 0.0284,5e-4 0.0279,3e-4 0.0298,10e-5 z m 8.6268,-0.4845 -0.0645,-0.0075 -0.0621,-0.0128 -0.0594,-0.0183 -0.0565,-0.0237 -0.0533,-0.0293 -0.0497,-0.0347 -0.046,-0.0399 -0.0419,-0.0448 -0.0377,-0.0494 -0.0336,-0.0538 -0.0297,-0.058 -0.0256,-0.0619 -0.0219,-0.0659 -0.0183,-0.0697 -0.0148,-0.0736 -0.0113,-0.0775 -0.008,-0.0814 -0.0048,-0.0853 -0.0016,-0.0894 0.0016,-0.0903 0.0048,-0.0861 0.0081,-0.0821 0.0114,-0.0781 0.0148,-0.0742 0.0184,-0.0704 0.0221,-0.0664 0.0258,-0.0624 0.0297,-0.0584 0.0339,-0.0543 0.0379,-0.0498 0.0421,-0.0452 0.0462,-0.0402 0.0501,-0.035 0.0536,-0.0295 0.0568,-0.0239 0.0598,-0.0184 0.0624,-0.0129 0.0649,-0.0077 0.0664,-0.0025 0.0344,7e-4 0.0328,0.0018 0.0322,0.0031 0.0317,0.0044 0.0311,0.0057 0.0304,0.0071 0.0298,0.0083 0.0291,0.0098 0.0284,0.0111 0.0277,0.0124 0.0268,0.0139 0.026,0.0152 0.0251,0.0165 0.0243,0.0179 0.0233,0.0192 0.0222,0.0204 0.0213,0.0216 0.0203,0.0229 0.0192,0.0239 0.0179,0.0247 0.0172,0.0257 0.0165,0.0273 0.0155,0.0285 0.0144,0.0295 0.0134,0.0306 0.0125,0.0317 0.0115,0.0327 0.0105,0.0338 0.0096,0.0347 0.0087,0.0359 0.0079,0.0368 0.0069,0.038 0.0061,0.039 0.0053,0.04 0.0044,0.0412 0.0037,0.0422 0.0027,0.0432 0.002,0.0444 0.0012,0.0454 4e-4,0.0466 -4e-4,0.0463 -0.0011,0.0452 -0.002,0.0441 -0.0028,0.0431 -0.0035,0.042 -0.0044,0.0409 -0.0052,0.0398 -0.006,0.0388 -0.0069,0.0377 -0.0077,0.0366 -0.0086,0.0356 -0.0095,0.0346 -0.0104,0.0335 -0.0113,0.0325 -0.0123,0.0315 -0.0133,0.0304 -0.0142,0.0293 -0.0153,0.0282 -0.0163,0.0272 -0.0172,0.0257 -0.0179,0.0246 -0.0193,0.0237 -0.0203,0.0226 -0.0214,0.0214 -0.0224,0.0201 -0.0235,0.0189 -0.0244,0.0176 -0.0254,0.0162 -0.0263,0.0149 -0.0271,0.0136 -0.028,0.0122 -0.0288,0.0108 -0.0294,0.0095 -0.0302,0.0082 -0.0309,0.0068 -0.0315,0.0055 -0.0321,0.0043 -0.0328,0.0031 -0.0334,0.0018 -0.035,6e-4 z m 0.1349,0.4838 0.0667,-0.0028 0.0644,-0.0048 0.0621,-0.0065 0.0611,-0.0086 0.059,-0.0103 0.0565,-0.0121 0.0556,-0.0141 0.0531,-0.0157 0.0514,-0.0176 0.0499,-0.0194 0.0481,-0.0211 0.0458,-0.0228 0.0445,-0.0246 0.0429,-0.0264 0.0413,-0.0283 0.0392,-0.0298 0.0379,-0.0317 0.0363,-0.0336 0.0349,-0.0354 0.0332,-0.0372 0.0314,-0.0388 0.0298,-0.0407 0.0283,-0.0424 0.0264,-0.044 0.0249,-0.046 0.0234,-0.0482 0.0216,-0.0497 0.0199,-0.0513 0.0184,-0.0538 0.0167,-0.0556 0.0149,-0.0575 0.0132,-0.0594 0.0115,-0.061 0.0098,-0.0635 0.008,-0.0657 0.0063,-0.0667 0.0044,-0.0693 0.0028,-0.0714 9e-4,-0.0729 -9e-4,-0.0733 -0.0027,-0.0715 -0.0045,-0.069 -0.0062,-0.0675 -0.008,-0.0657 -0.0097,-0.0632 -0.0115,-0.0616 -0.0131,-0.0594 -0.0149,-0.0575 -0.0166,-0.0557 -0.0181,-0.0531 -0.02,-0.052 -0.0214,-0.0497 -0.0232,-0.0479 -0.0246,-0.0456 -0.0265,-0.0442 -0.0279,-0.0421 -0.0298,-0.0406 -0.0313,-0.0387 -0.0331,-0.0371 -0.0342,-0.0348 -0.0362,-0.0335 -0.0378,-0.0316 -0.0392,-0.0297 -0.041,-0.028 -0.0425,-0.0261 -0.0444,-0.0246 -0.0462,-0.0228 -0.0477,-0.021 -0.0495,-0.0192 -0.0515,-0.0175 -0.0531,-0.0156 -0.055,-0.0139 -0.0571,-0.0122 -0.059,-0.0103 -0.0606,-0.0084 -0.0623,-0.0066 -0.0643,-0.0047 -0.0668,-0.0029 -0.0679,-9e-4 -0.0683,10e-4 -0.0654,0.0028 -0.0647,0.0048 -0.0626,0.0067 -0.0606,0.0085 -0.0587,0.0104 -0.0571,0.0122 -0.0554,0.0141 -0.0532,0.0158 -0.0515,0.0177 -0.0496,0.0193 -0.0483,0.0214 -0.0466,0.0231 -0.0443,0.0245 -0.0432,0.0267 -0.0416,0.0285 -0.0396,0.0299 -0.0384,0.0321 -0.0366,0.0337 -0.0352,0.0356 -0.0334,0.0372 -0.0319,0.0391 -0.0298,0.0403 -0.0284,0.0423 -0.0267,0.044 -0.0251,0.046 -0.0233,0.0473 -0.0218,0.0496 -0.0201,0.0514 -0.0185,0.0533 -0.0166,0.0548 -0.015,0.0569 -0.0133,0.0592 -0.0115,0.0601 -0.0099,0.0634 -0.008,0.0638 -0.0063,0.0675 -0.0045,0.0676 -0.0027,0.0709 -9e-4,0.072 9e-4,0.0729 0.0027,0.0712 0.0045,0.0694 0.0064,0.0671 0.0081,0.0658 0.0098,0.0627 0.0117,0.0617 0.0133,0.0593 0.0152,0.0577 0.0168,0.0556 0.0184,0.0534 0.0202,0.0517 0.022,0.0502 0.0236,0.0481 0.0251,0.046 0.0267,0.0441 0.0288,0.043 0.0299,0.0405 0.0323,0.0395 0.0331,0.037 0.0353,0.0356 0.037,0.0338 0.0386,0.0322 0.0397,0.03 0.0414,0.0284 0.0431,0.0266 0.0446,0.0248 0.0462,0.023 0.0479,0.0212 0.0495,0.0195 0.0512,0.0176 0.0531,0.0159 0.0549,0.0141 0.0562,0.0121 0.0581,0.0104 0.0604,0.0086 0.0619,0.0066 0.0634,0.0048 0.0651,0.0028 0.0673,10e-4 z m -11.2967,-0.4838 -0.0645,-0.0075 -0.062,-0.0129 -0.0594,-0.0182 -0.0565,-0.0237 -0.0533,-0.0293 -0.0498,-0.0347 -0.0459,-0.0399 -0.0419,-0.0448 -0.0378,-0.0494 -0.0336,-0.0538 -0.0296,-0.058 -0.0257,-0.0619 -0.0219,-0.0659 -0.0183,-0.0697 -0.0147,-0.0736 -0.0114,-0.0774 -0.008,-0.0814 -0.0048,-0.0854 -0.0016,-0.0894 0.0016,-0.0903 0.0048,-0.0861 0.0081,-0.0821 0.0114,-0.0781 0.0149,-0.0743 0.0184,-0.0703 0.022,-0.0664 0.0258,-0.0624 0.0298,-0.0584 0.0338,-0.0543 0.0379,-0.0498 0.0422,-0.0452 0.0461,-0.0402 0.0501,-0.035 0.0536,-0.0295 0.0568,-0.0239 0.0598,-0.0184 0.0624,-0.0129 0.0649,-0.0077 0.0664,-0.0025 0.0344,7e-4 0.0328,0.0018 0.0323,0.0031 0.0317,0.0044 0.031,0.0057 0.0304,0.0071 0.0298,0.0083 0.0292,0.0098 0.0284,0.0111 0.0276,0.0124 0.0268,0.0139 0.0261,0.0152 0.0251,0.0165 0.0242,0.0179 0.0233,0.0192 0.0223,0.0204 0.0212,0.0216 0.0203,0.0228 0.0192,0.024 0.018,0.0247 0.0172,0.0257 0.0165,0.0273 0.0155,0.0285 0.0144,0.0295 0.0134,0.0306 0.0124,0.0317 0.0115,0.0327 0.0105,0.0338 0.0097,0.0347 0.0087,0.0359 0.0078,0.0368 0.007,0.038 0.0061,0.039 0.0053,0.04 0.0044,0.0412 0.0036,0.0421 0.0028,0.0433 0.002,0.0444 0.0012,0.0454 4e-4,0.0466 -4e-4,0.0463 -0.0012,0.0452 -0.002,0.0441 -0.0027,0.0431 -0.0036,0.042 -0.0044,0.0409 -0.0052,0.0398 -0.006,0.0388 -0.0069,0.0377 -0.0077,0.0366 -0.0086,0.0356 -0.0095,0.0346 -0.0104,0.0335 -0.0113,0.0325 -0.0123,0.0315 -0.0132,0.0304 -0.0143,0.0293 -0.0152,0.0283 -0.0164,0.0271 -0.0171,0.0257 -0.018,0.0246 -0.0192,0.0237 -0.0204,0.0226 -0.0214,0.0214 -0.0224,0.0201 -0.0234,0.0189 -0.0245,0.0176 -0.0254,0.0162 -0.0262,0.0149 -0.0272,0.0136 -0.028,0.0122 -0.0287,0.0108 -0.0295,0.0095 -0.0301,0.0082 -0.0309,0.0068 -0.0315,0.0055 -0.0322,0.0043 -0.0328,0.0031 -0.0334,0.0018 -0.035,6e-4 z m 0.1349,0.4838 0.0667,-0.0028 0.0644,-0.0048 0.0622,-0.0065 0.061,-0.0086 0.059,-0.0103 0.0569,-0.0122 0.055,-0.0139 0.0532,-0.0158 0.0516,-0.0176 0.0499,-0.0194 0.048,-0.0211 0.0458,-0.0227 0.0447,-0.0248 0.0428,-0.0264 0.0411,-0.0281 0.0394,-0.0299 0.0378,-0.0317 0.0364,-0.0336 0.0348,-0.0354 0.0332,-0.0372 0.0314,-0.0388 0.0299,-0.0407 0.0282,-0.0423 0.0265,-0.0442 0.0249,-0.0461 0.0232,-0.0477 0.0219,-0.0501 0.0198,-0.0514 0.0183,-0.0534 0.0167,-0.0558 0.0149,-0.0575 0.0133,-0.0594 0.0114,-0.061 0.0098,-0.0635 0.0081,-0.0657 0.0062,-0.0666 0.0045,-0.0695 0.0027,-0.0713 9e-4,-0.0729 -9e-4,-0.0733 -0.0027,-0.0715 -0.0044,-0.069 -0.0063,-0.0679 -0.0079,-0.065 -0.0098,-0.0636 -0.0115,-0.0616 -0.0131,-0.0593 -0.0149,-0.0576 -0.0164,-0.0552 -0.0183,-0.0537 -0.0199,-0.0518 -0.0216,-0.0498 -0.023,-0.0476 -0.0247,-0.0458 -0.0218,-0.0364 -0.0047,-0.0078 -0.028,-0.0423 -0.0296,-0.0403 -0.0314,-0.0388 -0.033,-0.0371 -0.0343,-0.0348 -0.0362,-0.0335 -0.0378,-0.0316 -0.0392,-0.0297 -0.0409,-0.028 -0.0425,-0.0261 -0.0448,-0.0248 -0.0456,-0.0225 -0.048,-0.0211 -0.0494,-0.0192 -0.0516,-0.0175 -0.0531,-0.0156 -0.0549,-0.0139 -0.0572,-0.0122 -0.059,-0.0103 -0.0606,-0.0084 -0.0623,-0.0066 -0.0643,-0.0047 -0.0668,-0.0029 -0.0679,-9e-4 -0.0683,10e-4 -0.0654,0.0028 -0.0647,0.0048 -0.0625,0.0067 -0.0607,0.0085 -0.0586,0.0104 -0.0572,0.0122 -0.0553,0.0141 -0.0531,0.0158 -0.0514,0.0176 -0.0503,0.0196 -0.0478,0.0212 -0.0466,0.023 -0.0444,0.0247 -0.0433,0.0267 -0.0414,0.0283 -0.0397,0.03 -0.0383,0.032 -0.0367,0.0338 -0.0352,0.0356 -0.0333,0.0372 -0.0318,0.039 -0.0301,0.0406 -0.0283,0.0421 -0.0266,0.044 -0.0252,0.0459 -0.0233,0.0475 -0.0218,0.0496 -0.02,0.0512 -0.0184,0.0532 -0.0168,0.0552 -0.0149,0.0566 -0.0134,0.0591 -0.0115,0.0607 -0.0099,0.0628 -0.0079,0.0641 -0.0064,0.0674 -0.0045,0.0675 -0.0027,0.071 -9e-4,0.072 9e-4,0.0729 0.0027,0.0712 0.0046,0.0695 0.0063,0.067 0.0082,0.0658 0.0097,0.0627 0.0117,0.0617 0.0134,0.0593 0.0151,0.0576 0.0169,0.0558 0.0184,0.0535 0.0201,0.0514 0.0221,0.0503 0.0234,0.0479 0.0253,0.0463 0.0267,0.044 0.0287,0.043 0.03,0.0405 0.0322,0.0395 0.0332,0.037 0.0353,0.0356 0.0369,0.0338 0.0386,0.0322 0.0397,0.03 0.0415,0.0284 0.0429,0.0265 0.0447,0.0249 0.0464,0.0231 0.0477,0.0211 0.0495,0.0195 0.0513,0.0176 0.053,0.0159 0.0549,0.0141 0.0562,0.0121 0.0581,0.0104 0.0604,0.0086 0.0619,0.0066 0.0634,0.0048 0.0651,0.0028 0.0674,10e-4 z"
         style="display:inline;fill:#000000;fill-opacity:1;stroke:#000000;stroke-width:0.197862;stroke-dasharray:none;stroke-opacity:1"
         id="path8797-9-7"
         inkscape:label="text" /></g></g></svg>
