<?xml version="1.0" encoding="UTF-8" standalone="no"?>
<svg
   height="30mm"
   viewBox="0 0 49.999999 30.000001"
   width="50mm"
   version="1.1"
   id="svg100784"
   sodipodi:docname="1-power.svg"
   inkscape:version="1.2.2 (b0a8486, 2022-12-01)"
   xmlns:inkscape="http://www.inkscape.org/namespaces/inkscape"
   xmlns:sodipodi="http://sodipodi.sourceforge.net/DTD/sodipodi-0.dtd"
   xmlns="http://www.w3.org/2000/svg"
   xmlns:svg="http://www.w3.org/2000/svg">
  <defs
     id="defs100788" />
  <sodipodi:namedview
     id="namedview100786"
     pagecolor="#ffffff"
     bordercolor="#666666"
     borderopacity="1.0"
     inkscape:showpageshadow="2"
     inkscape:pageopacity="0.0"
     inkscape:pagecheckerboard="0"
     inkscape:deskcolor="#d1d1d1"
     inkscape:document-units="mm"
     showgrid="false"
     inkscape:zoom="1.636051"
     inkscape:cx="-42.174724"
     inkscape:cy="156.16873"
     inkscape:window-width="1920"
     inkscape:window-height="1027"
     inkscape:window-x="0"
     inkscape:window-y="26"
     inkscape:window-maximized="0"
     inkscape:current-layer="svg100784" />
  <g
     fill="#840000"
     stroke="#840000"
     stroke-linecap="round"
     stroke-linejoin="round"
     stroke-width="0.1524"
     id="g100210"
     transform="translate(-93.761813,-63.007354)">
    <path
       d="m 125.222,76.708 h 0.254 v 4.064 h -0.254 z"
       id="path100184" />
    <path
       d="m 128.397,76.708 h 0.254 v 4.064 h -0.254 z"
       id="path100186" />
    <path
       d="m 125.8062,77.47 h 0.508 v 2.5908 h -0.508 z"
       id="path100188" />
    <path
       d="m 128.9812,77.47 h 0.508 v 2.5908 h -0.508 z"
       id="path100190" />
    <g
       fill="none"
       stroke="#840000"
       stroke-linecap="round"
       stroke-linejoin="round"
       id="g100208">
      <path
         d="M 125.222,78.74 H 124.46"
         stroke-width="0.1524"
         id="path100192" />
      <path
         d="m 126.492,78.74 h -0.254"
         stroke-width="0.1524"
         id="path100194" />
      <path
         d="m 127,78.74 h -0.254"
         stroke-width="0.1524"
         id="path100196" />
      <path
         d="m 127.508,78.74 h -0.254"
         stroke-width="0.1524"
         id="path100198" />
      <path
         d="m 128.016,78.74 h -0.254"
         stroke-width="0.1524"
         id="path100200" />
      <path
         d="M 128.524,78.74 H 128.27"
         stroke-width="0.1524"
         id="path100202" />
      <path
         d="M 124.333,78.486 V 77.47"
         stroke-width="0.254"
         id="path100204" />
      <path
         d="m 123.825,77.978 h 1.016"
         stroke-width="0.254"
         id="path100206" />
    </g>
  </g>
  <g
     fill="none"
     stroke="#840000"
     stroke-linecap="round"
     stroke-linejoin="round"
     stroke-width="0.1524"
     id="g100216"
     transform="translate(-93.761813,-63.007354)">
    <path
       d="m 124.46,78.74 h -2.54"
       id="path100212" />
    <path
       d="m 129.54,78.74 h 2.54"
       id="path100214" />
  </g>
  <g
     fill="none"
     stroke="#006464"
     stroke-linecap="round"
     stroke-linejoin="round"
     stroke-width="0.1524"
     id="g100320"
     transform="translate(-93.761813,-63.007354)">
    <text
       font-size="1.6933px"
       lengthAdjust="spacingAndGlyphs"
       opacity="0"
       stroke-opacity="0"
       text-anchor="middle"
       textLength="3.6503"
       x="126.6189"
       y="73.024902"
       id="text100218">BT1</text>
    <path
       d="m 125.6211,72.3042 0.1814,0.0605"
       id="path100220" />
    <path
       d="m 125.8025,72.3647 0.0605,0.0604"
       id="path100222" />
    <path
       d="m 125.863,72.4251 0.0604,0.121"
       id="path100224" />
    <path
       d="m 125.9234,72.5461 v 0.1814"
       id="path100226" />
    <path
       d="m 125.9234,72.7275 -0.0604,0.121"
       id="path100228" />
    <path
       d="m 125.863,72.8485 -0.0605,0.0605"
       id="path100230" />
    <path
       d="m 125.8025,72.909 -0.121,0.0604"
       id="path100232" />
    <path
       d="m 125.6815,72.9694 h -0.4838"
       id="path100234" />
    <path
       d="m 125.1977,72.9694 v -1.27"
       id="path100236" />
    <path
       d="m 125.1977,71.6994 h 0.4234"
       id="path100238" />
    <path
       d="m 125.6211,71.6994 0.1209,0.0605"
       id="path100240" />
    <path
       d="m 125.742,71.7599 0.0605,0.0605"
       id="path100242" />
    <path
       d="m 125.8025,71.8204 0.0605,0.1209"
       id="path100244" />
    <path
       d="m 125.863,71.9413 v 0.121"
       id="path100246" />
    <path
       d="m 125.863,72.0623 -0.0605,0.1209"
       id="path100248" />
    <path
       d="m 125.8025,72.1832 -0.0605,0.0605"
       id="path100250" />
    <path
       d="m 125.742,72.2437 -0.1209,0.0605"
       id="path100252" />
    <path
       d="m 125.6211,72.3042 h -0.4234"
       id="path100254" />
    <path
       d="m 126.2863,71.6994 h 0.7257"
       id="path100256" />
    <path
       d="m 126.6492,72.9694 v -1.27"
       id="path100258" />
    <path
       d="m 128.1006,72.9694 h -0.7257"
       id="path100260" />
    <path
       d="m 127.7377,72.9694 v -1.27"
       id="path100262" />
    <path
       d="m 127.7377,71.6994 -0.1209,0.1815"
       id="path100264" />
    <path
       d="m 127.6168,71.8809 -0.121,0.1209"
       id="path100266" />
    <path
       d="m 127.4958,72.0018 -0.1209,0.0605"
       id="path100268" />
    <text
       font-size="1.6933px"
       lengthAdjust="spacingAndGlyphs"
       opacity="0"
       stroke-opacity="0"
       text-anchor="middle"
       textLength="2.3803"
       x="126.6189"
       y="75.564903"
       id="text100270">9v</text>
    <path
       d="m 125.8932,75.5094 h 0.2419"
       id="path100272" />
    <path
       d="m 126.1351,75.5094 0.121,-0.0604"
       id="path100274" />
    <path
       d="m 126.2561,75.449 0.0604,-0.0605"
       id="path100276" />
    <path
       d="m 126.3165,75.3885 0.121,-0.1815"
       id="path100278" />
    <path
       d="m 126.4375,75.207 0.0605,-0.2419"
       id="path100280" />
    <path
       d="M 126.498,74.9651 V 74.4813"
       id="path100282" />
    <path
       d="m 126.498,74.4813 -0.0605,-0.1209"
       id="path100284" />
    <path
       d="M 126.4375,74.3604 126.377,74.2999"
       id="path100286" />
    <path
       d="m 126.377,74.2999 -0.1209,-0.0605"
       id="path100288" />
    <path
       d="m 126.2561,74.2394 h -0.2419"
       id="path100290" />
    <path
       d="m 126.0142,74.2394 -0.121,0.0605"
       id="path100292" />
    <path
       d="m 125.8932,74.2999 -0.0605,0.0605"
       id="path100294" />
    <path
       d="m 125.8327,74.3604 -0.0604,0.1209"
       id="path100296" />
    <path
       d="m 125.7723,74.4813 v 0.3024"
       id="path100298" />
    <path
       d="m 125.7723,74.7837 0.0604,0.121"
       id="path100300" />
    <path
       d="m 125.8327,74.9047 0.0605,0.0604"
       id="path100302" />
    <path
       d="m 125.8932,74.9651 0.121,0.0605"
       id="path100304" />
    <path
       d="m 126.0142,75.0256 h 0.2419"
       id="path100306" />
    <path
       d="m 126.2561,75.0256 0.1209,-0.0605"
       id="path100308" />
    <path
       d="m 126.377,74.9651 0.0605,-0.0604"
       id="path100310" />
    <path
       d="m 126.4375,74.9047 0.0605,-0.121"
       id="path100312" />
    <path
       d="m 126.9213,74.6628 0.3024,0.8466"
       id="path100314" />
    <path
       d="m 127.2237,75.5094 0.3023,-0.8466"
       id="path100316" />
    <path
       d="m 134.62,81.28 v 1.27 h 1.27 l -1.27,1.27 -1.27,-1.27 h 1.27"
       fill="none"
       stroke="#840000"
       stroke-linecap="round"
       stroke-linejoin="round"
       stroke-width="0.1524"
       id="path100318" />
  </g>
  <g
     fill="none"
     stroke="#006464"
     stroke-linecap="round"
     stroke-linejoin="round"
     stroke-width="0.1524"
     id="g100386"
     transform="translate(-93.761813,-63.007354)">
    <text
       font-size="1.6933px"
       lengthAdjust="spacingAndGlyphs"
       opacity="0"
       stroke-opacity="0"
       text-anchor="middle"
       textLength="4.0737"
       x="134.62"
       y="86.233002"
       id="text100322">GND</text>
    <path
       d="m 133.6524,84.968 -0.121,-0.0605"
       id="path100324" />
    <path
       d="M 133.5314,84.9075 H 133.35"
       id="path100326" />
    <path
       d="m 133.35,84.9075 -0.1814,0.0605"
       id="path100328" />
    <path
       d="m 133.1686,84.968 -0.121,0.121"
       id="path100330" />
    <path
       d="m 133.0476,85.089 -0.0605,0.1209"
       id="path100332" />
    <path
       d="m 132.9871,85.2099 -0.0604,0.2419"
       id="path100334" />
    <path
       d="m 132.9267,85.4518 v 0.1814"
       id="path100336" />
    <path
       d="m 132.9267,85.6332 0.0604,0.2419"
       id="path100338" />
    <path
       d="m 132.9871,85.8751 0.0605,0.121"
       id="path100340" />
    <path
       d="m 133.0476,85.9961 0.121,0.121"
       id="path100342" />
    <path
       d="m 133.1686,86.1171 0.1814,0.0604"
       id="path100344" />
    <path
       d="m 133.35,86.1775 h 0.1209"
       id="path100346" />
    <path
       d="m 133.4709,86.1775 0.1815,-0.0604"
       id="path100348" />
    <path
       d="m 133.6524,86.1171 0.0604,-0.0605"
       id="path100350" />
    <path
       d="M 133.7128,86.0566 V 85.6332"
       id="path100352" />
    <path
       d="m 133.7128,85.6332 h -0.2419"
       id="path100354" />
    <path
       d="m 134.2571,86.1775 v -1.27"
       id="path100356" />
    <path
       d="m 134.2571,84.9075 0.7257,1.27"
       id="path100358" />
    <path
       d="m 134.9828,86.1775 v -1.27"
       id="path100360" />
    <path
       d="m 135.5876,86.1775 v -1.27"
       id="path100362" />
    <path
       d="M 135.5876,84.9075 H 135.89"
       id="path100364" />
    <path
       d="m 135.89,84.9075 0.1814,0.0605"
       id="path100366" />
    <path
       d="m 136.0714,84.968 0.121,0.121"
       id="path100368" />
    <path
       d="m 136.1924,85.089 0.0605,0.1209"
       id="path100370" />
    <path
       d="m 136.2529,85.2099 0.0604,0.2419"
       id="path100372" />
    <path
       d="m 136.3133,85.4518 v 0.1814"
       id="path100374" />
    <path
       d="m 136.3133,85.6332 -0.0604,0.2419"
       id="path100376" />
    <path
       d="m 136.2529,85.8751 -0.0605,0.121"
       id="path100378" />
    <path
       d="m 136.1924,85.9961 -0.121,0.121"
       id="path100380" />
    <path
       d="M 136.0714,86.1171 135.89,86.1775"
       id="path100382" />
    <path
       d="m 135.89,86.1775 h -0.3024"
       id="path100384" />
  </g>
  <path
     d="m 17.363191,11.922646 h 6.35 v 7.62 h -6.35 z"
     fill="#ffffc2"
     id="path100388" />
  <g
     stroke-linecap="round"
     stroke-linejoin="round"
     stroke-width="0.1524"
     id="g100782"
     transform="translate(-93.761813,-63.007354)">
    <g
       fill="none"
       stroke="#840000"
       id="g100402">
      <circle
         cx="116.332"
         cy="78.739998"
         r="0.45719999"
         id="circle100390" />
      <path
         d="m 115.951,78.486 -3.302,-2.032"
         fill="none"
         stroke="#840000"
         stroke-linecap="round"
         stroke-linejoin="round"
         stroke-width="0.1524"
         id="path100392" />
      <circle
         cx="112.268"
         cy="76.199997"
         r="0.45719999"
         id="circle100394" />
      <circle
         cx="112.268"
         cy="81.279999"
         r="0.45719999"
         id="circle100396" />
      <path
         d="m 111.125,74.93 h 6.35 v 7.62 h -6.35 z"
         id="path100398" />
      <path
         d="m 116.84,78.74 h 2.54"
         id="path100400" />
    </g>
    <g
       fill="none"
       stroke="#a90000"
       id="g100426">
      <text
         font-size="1.6933px"
         lengthAdjust="spacingAndGlyphs"
         opacity="0"
         stroke-opacity="0"
         text-anchor="middle"
         textLength="1.4127001"
         x="118.11"
         y="78.486"
         id="text100404">2</text>
      <path
         d="m 117.7472,77.1735 0.0604,-0.0605"
         id="path100406" />
      <path
         d="m 117.8076,77.113 0.121,-0.0605"
         id="path100408" />
      <path
         d="m 117.9286,77.0525 h 0.3024"
         id="path100410" />
      <path
         d="m 118.231,77.0525 0.1209,0.0605"
         id="path100412" />
      <path
         d="m 118.3519,77.113 0.0605,0.0605"
         id="path100414" />
      <path
         d="m 118.4124,77.1735 0.0605,0.1209"
         id="path100416" />
      <path
         d="m 118.4729,77.2944 v 0.121"
         id="path100418" />
      <path
         d="m 118.4729,77.4154 -0.0605,0.1814"
         id="path100420" />
      <path
         d="m 118.4124,77.5968 -0.7257,0.7257"
         id="path100422" />
      <path
         d="m 117.6867,78.3225 h 0.7862"
         id="path100424" />
    </g>
    <path
       d="m 111.76,76.2 h -2.54"
       fill="none"
       stroke="#840000"
       id="path100428" />
    <g
       fill="none"
       stroke="#a90000"
       id="g100442">
      <text
         font-size="1.6933px"
         lengthAdjust="spacingAndGlyphs"
         opacity="0"
         stroke-opacity="0"
         text-anchor="middle"
         textLength="1.4127001"
         x="110.49"
         y="75.945999"
         id="text100430">1</text>
      <path
         d="m 110.8529,75.7825 h -0.7257"
         id="path100432" />
      <path
         d="m 110.49,75.7825 v -1.27"
         id="path100434" />
      <path
         d="m 110.49,74.5125 -0.1209,0.1815"
         id="path100436" />
      <path
         d="m 110.3691,74.694 -0.121,0.1209"
         id="path100438" />
      <path
         d="m 110.2481,74.8149 -0.1209,0.0605"
         id="path100440" />
    </g>
    <path
       d="m 111.76,81.28 h -2.54"
       fill="none"
       stroke="#840000"
       id="path100444" />
    <g
       fill="none"
       stroke="#a90000"
       id="g100474">
      <text
         font-size="1.6933px"
         lengthAdjust="spacingAndGlyphs"
         opacity="0"
         stroke-opacity="0"
         text-anchor="middle"
         textLength="1.4127001"
         x="110.49"
         y="81.026001"
         id="text100446">3</text>
      <path
         d="m 110.0667,79.5925 h 0.7862"
         id="path100448" />
      <path
         d="m 110.8529,79.5925 -0.4234,0.4838"
         id="path100450" />
      <path
         d="m 110.4295,80.0763 h 0.1815"
         id="path100452" />
      <path
         d="m 110.611,80.0763 0.1209,0.0605"
         id="path100454" />
      <path
         d="m 110.7319,80.1368 0.0605,0.0605"
         id="path100456" />
      <path
         d="m 110.7924,80.1973 0.0605,0.1209"
         id="path100458" />
      <path
         d="m 110.8529,80.3182 v 0.3024"
         id="path100460" />
      <path
         d="m 110.8529,80.6206 -0.0605,0.121"
         id="path100462" />
      <path
         d="m 110.7924,80.7416 -0.0605,0.0605"
         id="path100464" />
      <path
         d="m 110.7319,80.8021 -0.1209,0.0604"
         id="path100466" />
      <path
         d="m 110.611,80.8625 h -0.3629"
         id="path100468" />
      <path
         d="m 110.2481,80.8625 -0.1209,-0.0604"
         id="path100470" />
      <path
         d="m 110.1272,80.8021 -0.0605,-0.0605"
         id="path100472" />
    </g>
    <g
       fill="none"
       stroke="#006464"
       id="g100694">
      <text
         font-size="1.6933px"
         lengthAdjust="spacingAndGlyphs"
         opacity="0"
         stroke-opacity="0"
         text-anchor="middle"
         textLength="4.0735998"
         x="113.2696"
         y="70.231003"
         id="text100476">SW3</text>
      <path
         d="m 111.5763,70.1151 0.1814,0.0604"
         id="path100478" />
      <path
         d="m 111.7577,70.1755 h 0.3024"
         id="path100480" />
      <path
         d="m 112.0601,70.1755 0.1209,-0.0604"
         id="path100482" />
      <path
         d="m 112.181,70.1151 0.0605,-0.0605"
         id="path100484" />
      <path
         d="m 112.2415,70.0546 0.0605,-0.121"
         id="path100486" />
      <path
         d="M 112.302,69.9336 V 69.8127"
         id="path100488" />
      <path
         d="m 112.302,69.8127 -0.0605,-0.121"
         id="path100490" />
      <path
         d="M 112.2415,69.6917 112.181,69.6312"
         id="path100492" />
      <path
         d="m 112.181,69.6312 -0.1209,-0.0604"
         id="path100494" />
      <path
         d="m 112.0601,69.5708 -0.2419,-0.0605"
         id="path100496" />
      <path
         d="m 111.8182,69.5103 -0.121,-0.0605"
         id="path100498" />
      <path
         d="m 111.6972,69.4498 -0.0605,-0.0605"
         id="path100500" />
      <path
         d="m 111.6367,69.3893 -0.0604,-0.1209"
         id="path100502" />
      <path
         d="m 111.5763,69.2684 v -0.121"
         id="path100504" />
      <path
         d="m 111.5763,69.1474 0.0604,-0.1209"
         id="path100506" />
      <path
         d="m 111.6367,69.0265 0.0605,-0.0605"
         id="path100508" />
      <path
         d="m 111.6972,68.966 0.121,-0.0605"
         id="path100510" />
      <path
         d="m 111.8182,68.9055 h 0.3023"
         id="path100512" />
      <path
         d="m 112.1205,68.9055 0.1815,0.0605"
         id="path100514" />
      <path
         d="m 112.7253,68.9055 0.3024,1.27"
         id="path100516" />
      <path
         d="m 113.0277,70.1755 0.2419,-0.9071"
         id="path100518" />
      <path
         d="m 113.2696,69.2684 0.2419,0.9071"
         id="path100520" />
      <path
         d="m 113.5115,70.1755 0.3024,-1.27"
         id="path100522" />
      <path
         d="m 114.1767,68.9055 h 0.7862"
         id="path100524" />
      <path
         d="m 114.9629,68.9055 -0.4234,0.4838"
         id="path100526" />
      <path
         d="m 114.5395,69.3893 h 0.1815"
         id="path100528" />
      <path
         d="m 114.721,69.3893 0.1209,0.0605"
         id="path100530" />
      <path
         d="m 114.8419,69.4498 0.0605,0.0605"
         id="path100532" />
      <path
         d="m 114.9024,69.5103 0.0605,0.1209"
         id="path100534" />
      <path
         d="m 114.9629,69.6312 v 0.3024"
         id="path100536" />
      <path
         d="m 114.9629,69.9336 -0.0605,0.121"
         id="path100538" />
      <path
         d="m 114.9024,70.0546 -0.0605,0.0605"
         id="path100540" />
      <path
         d="m 114.8419,70.1151 -0.1209,0.0604"
         id="path100542" />
      <path
         d="m 114.721,70.1755 h -0.3629"
         id="path100544" />
      <path
         d="m 114.3581,70.1755 -0.1209,-0.0604"
         id="path100546" />
      <path
         d="m 114.2372,70.1151 -0.0605,-0.0605"
         id="path100548" />
      <text
         font-size="1.6933px"
         lengthAdjust="spacingAndGlyphs"
         opacity="0"
         stroke-opacity="0"
         text-anchor="middle"
         textLength="8.5488005"
         x="114.334"
         y="72.516998"
         id="text100550">SW_SPDT</text>
      <path
         d="m 110.4031,72.4011 0.1814,0.0604"
         id="path100552" />
      <path
         d="m 110.5845,72.4615 h 0.3024"
         id="path100554" />
      <path
         d="m 110.8869,72.4615 0.1209,-0.0604"
         id="path100556" />
      <path
         d="m 111.0078,72.4011 0.0605,-0.0605"
         id="path100558" />
      <path
         d="m 111.0683,72.3406 0.0605,-0.121"
         id="path100560" />
      <path
         d="M 111.1288,72.2196 V 72.0987"
         id="path100562" />
      <path
         d="m 111.1288,72.0987 -0.0605,-0.121"
         id="path100564" />
      <path
         d="m 111.0683,71.9777 -0.0605,-0.0605"
         id="path100566" />
      <path
         d="m 111.0078,71.9172 -0.1209,-0.0604"
         id="path100568" />
      <path
         d="M 110.8869,71.8568 110.645,71.7963"
         id="path100570" />
      <path
         d="m 110.645,71.7963 -0.121,-0.0605"
         id="path100572" />
      <path
         d="m 110.524,71.7358 -0.0605,-0.0605"
         id="path100574" />
      <path
         d="m 110.4635,71.6753 -0.0604,-0.1209"
         id="path100576" />
      <path
         d="m 110.4031,71.5544 v -0.121"
         id="path100578" />
      <path
         d="m 110.4031,71.4334 0.0604,-0.1209"
         id="path100580" />
      <path
         d="M 110.4635,71.3125 110.524,71.252"
         id="path100582" />
      <path
         d="m 110.524,71.252 0.121,-0.0605"
         id="path100584" />
      <path
         d="m 110.645,71.1915 h 0.3023"
         id="path100586" />
      <path
         d="m 110.9473,71.1915 0.1815,0.0605"
         id="path100588" />
      <path
         d="m 111.5521,71.1915 0.3024,1.27"
         id="path100590" />
      <path
         d="m 111.8545,72.4615 0.2419,-0.9071"
         id="path100592" />
      <path
         d="m 112.0964,71.5544 0.2419,0.9071"
         id="path100594" />
      <path
         d="m 112.3383,72.4615 0.3024,-1.27"
         id="path100596" />
      <path
         d="m 112.8221,72.5825 h 0.9676"
         id="path100598" />
      <path
         d="m 114.0316,72.4011 0.1814,0.0604"
         id="path100600" />
      <path
         d="m 114.213,72.4615 h 0.3024"
         id="path100602" />
      <path
         d="m 114.5154,72.4615 0.1209,-0.0604"
         id="path100604" />
      <path
         d="m 114.6363,72.4011 0.0605,-0.0605"
         id="path100606" />
      <path
         d="m 114.6968,72.3406 0.0605,-0.121"
         id="path100608" />
      <path
         d="M 114.7573,72.2196 V 72.0987"
         id="path100610" />
      <path
         d="m 114.7573,72.0987 -0.0605,-0.121"
         id="path100612" />
      <path
         d="m 114.6968,71.9777 -0.0605,-0.0605"
         id="path100614" />
      <path
         d="m 114.6363,71.9172 -0.1209,-0.0604"
         id="path100616" />
      <path
         d="m 114.5154,71.8568 -0.2419,-0.0605"
         id="path100618" />
      <path
         d="m 114.2735,71.7963 -0.121,-0.0605"
         id="path100620" />
      <path
         d="M 114.1525,71.7358 114.092,71.6753"
         id="path100622" />
      <path
         d="m 114.092,71.6753 -0.0604,-0.1209"
         id="path100624" />
      <path
         d="m 114.0316,71.5544 v -0.121"
         id="path100626" />
      <path
         d="m 114.0316,71.4334 0.0604,-0.1209"
         id="path100628" />
      <path
         d="m 114.092,71.3125 0.0605,-0.0605"
         id="path100630" />
      <path
         d="m 114.1525,71.252 0.121,-0.0605"
         id="path100632" />
      <path
         d="m 114.2735,71.1915 h 0.3023"
         id="path100634" />
      <path
         d="m 114.5758,71.1915 0.1815,0.0605"
         id="path100636" />
      <path
         d="m 115.3015,72.4615 v -1.27"
         id="path100638" />
      <path
         d="m 115.3015,71.1915 h 0.4838"
         id="path100640" />
      <path
         d="m 115.7853,71.1915 0.121,0.0605"
         id="path100642" />
      <path
         d="m 115.9063,71.252 0.0605,0.0605"
         id="path100644" />
      <path
         d="m 115.9668,71.3125 0.0604,0.1209"
         id="path100646" />
      <path
         d="m 116.0272,71.4334 v 0.1815"
         id="path100648" />
      <path
         d="m 116.0272,71.6149 -0.0604,0.1209"
         id="path100650" />
      <path
         d="m 115.9668,71.7358 -0.0605,0.0605"
         id="path100652" />
      <path
         d="m 115.9063,71.7963 -0.121,0.0605"
         id="path100654" />
      <path
         d="m 115.7853,71.8568 h -0.4838"
         id="path100656" />
      <path
         d="m 116.5715,72.4615 v -1.27"
         id="path100658" />
      <path
         d="m 116.5715,71.1915 h 0.3024"
         id="path100660" />
      <path
         d="m 116.8739,71.1915 0.1814,0.0605"
         id="path100662" />
      <path
         d="m 117.0553,71.252 0.121,0.121"
         id="path100664" />
      <path
         d="m 117.1763,71.373 0.0605,0.1209"
         id="path100666" />
      <path
         d="m 117.2368,71.4939 0.0604,0.2419"
         id="path100668" />
      <path
         d="m 117.2972,71.7358 v 0.1814"
         id="path100670" />
      <path
         d="m 117.2972,71.9172 -0.0604,0.2419"
         id="path100672" />
      <path
         d="m 117.2368,72.1591 -0.0605,0.121"
         id="path100674" />
      <path
         d="m 117.1763,72.2801 -0.121,0.121"
         id="path100676" />
      <path
         d="m 117.0553,72.4011 -0.1814,0.0604"
         id="path100678" />
      <path
         d="m 116.8739,72.4615 h -0.3024"
         id="path100680" />
      <path
         d="m 117.6601,71.1915 h 0.7257"
         id="path100682" />
      <path
         d="m 118.023,72.4615 v -1.27"
         id="path100684" />
      <g
         fill="none"
         stroke="#840000"
         stroke-linecap="round"
         stroke-linejoin="round"
         stroke-width="0.1524"
         id="g100692">
        <path
           d="m 103.378,72.39 0.762,-1.27"
           id="path100686" />
        <path
           d="m 104.14,71.12 0.762,1.27"
           id="path100688" />
        <path
           d="M 104.14,73.66 V 71.12"
           id="path100690" />
      </g>
    </g>
    <g
       fill="none"
       stroke="#006464"
       id="g100762">
      <text
         font-size="1.6933px"
         lengthAdjust="spacingAndGlyphs"
         opacity="0"
         stroke-opacity="0"
         text-anchor="middle"
         textLength="3.8318"
         x="104.14"
         y="70.231003"
         id="text100696">VCC</text>
      <path
         d="m 102.4466,68.9055 0.4233,1.27"
         id="path100698" />
      <path
         d="m 102.8699,70.1755 0.4234,-1.27"
         id="path100700" />
      <path
         d="m 104.4423,70.0546 -0.0604,0.0605"
         id="path100702" />
      <path
         d="m 104.3819,70.1151 -0.1815,0.0604"
         id="path100704" />
      <path
         d="m 104.2004,70.1755 h -0.1209"
         id="path100706" />
      <path
         d="m 104.0795,70.1755 -0.1814,-0.0604"
         id="path100708" />
      <path
         d="m 103.8981,70.1151 -0.121,-0.121"
         id="path100710" />
      <path
         d="m 103.7771,69.9941 -0.0605,-0.121"
         id="path100712" />
      <path
         d="m 103.7166,69.8731 -0.0604,-0.2419"
         id="path100714" />
      <path
         d="M 103.6562,69.6312 V 69.4498"
         id="path100716" />
      <path
         d="m 103.6562,69.4498 0.0604,-0.2419"
         id="path100718" />
      <path
         d="m 103.7166,69.2079 0.0605,-0.1209"
         id="path100720" />
      <path
         d="m 103.7771,69.087 0.121,-0.121"
         id="path100722" />
      <path
         d="m 103.8981,68.966 0.1814,-0.0605"
         id="path100724" />
      <path
         d="m 104.0795,68.9055 h 0.1209"
         id="path100726" />
      <path
         d="m 104.2004,68.9055 0.1815,0.0605"
         id="path100728" />
      <path
         d="m 104.3819,68.966 0.0604,0.0605"
         id="path100730" />
      <path
         d="m 105.7123,70.0546 -0.0604,0.0605"
         id="path100732" />
      <path
         d="m 105.6519,70.1151 -0.1815,0.0604"
         id="path100734" />
      <path
         d="m 105.4704,70.1755 h -0.1209"
         id="path100736" />
      <path
         d="m 105.3495,70.1755 -0.1814,-0.0604"
         id="path100738" />
      <path
         d="m 105.1681,70.1151 -0.121,-0.121"
         id="path100740" />
      <path
         d="m 105.0471,69.9941 -0.0605,-0.121"
         id="path100742" />
      <path
         d="m 104.9866,69.8731 -0.0604,-0.2419"
         id="path100744" />
      <path
         d="M 104.9262,69.6312 V 69.4498"
         id="path100746" />
      <path
         d="m 104.9262,69.4498 0.0604,-0.2419"
         id="path100748" />
      <path
         d="m 104.9866,69.2079 0.0605,-0.1209"
         id="path100750" />
      <path
         d="m 105.0471,69.087 0.121,-0.121"
         id="path100752" />
      <path
         d="m 105.1681,68.966 0.1814,-0.0605"
         id="path100754" />
      <path
         d="m 105.3495,68.9055 h 0.1209"
         id="path100756" />
      <path
         d="m 105.4704,68.9055 0.1815,0.0605"
         id="path100758" />
      <path
         d="m 105.6519,68.966 0.0604,0.0605"
         id="path100760" />
    </g>
    <g
       fill="none"
       stroke="#009600"
       id="g100774">
      <path
         d="m 121.92,78.74 h -2.54"
         id="path100764" />
      <path
         d="m 134.62,78.74 v 2.54"
         id="path100766" />
      <path
         d="m 134.62,78.74 h -2.54"
         id="path100768" />
      <path
         d="M 104.14,73.66 V 76.2"
         id="path100770" />
      <path
         d="m 104.14,76.2 h 5.08"
         id="path100772" />
    </g>
    <g
       fill="none"
       stroke="#000084"
       id="g100780">
      <path
         d="m 108.6104,80.6704 1.2192,1.2192"
         id="path100776" />
      <path
         d="m 109.8296,80.6704 -1.2192,1.2192"
         id="path100778" />
    </g>
  </g>
</svg>
