<svg height="150mm" viewBox="0 0 229.99999 150" width="230mm" xmlns="http://www.w3.org/2000/svg"><path d="m0 0h355.60001v215.89999h-355.60001z" fill="#f5f4ef" stroke="#f5f4ef" stroke-linecap="round" stroke-linejoin="round" stroke-width=".000149" transform="matrix(.64679387 0 0 .69476564 .000048 .000052)"/><text fill="none" lengthAdjust="spacingAndGlyphs" opacity="0" textLength="0.89999998" transform="translate(-48.9062 -26.168199)" x="236.60001" y="186.64999"/><g fill="none" stroke="#840000" stroke-linecap="round" stroke-linejoin="round" stroke-width=".1524" transform="translate(-48.9062 -26.168199)"><g stroke="none"><text lengthAdjust="spacingAndGlyphs" opacity="0" textLength="0.45719999" x="236.60001" y="183.64999"/><text lengthAdjust="spacingAndGlyphs" opacity="0" textLength="0.45719999" x="236.60001" y="180.64999"/><text lengthAdjust="spacingAndGlyphs" opacity="0" textLength="0.45719999" x="236.60001" y="177.64999"/><text lengthAdjust="spacingAndGlyphs" opacity="0" textLength="0.45719999" x="236.60001" y="174.64999"/></g><path d="m179.07 101.6v1.27h1.27l-1.27 1.27-1.27-1.27h1.27" fill="none" stroke="#840000" stroke-linecap="round" stroke-linejoin="round" stroke-width=".1524"/></g><g fill="none" stroke="#006464" stroke-linecap="round" stroke-linejoin="round" stroke-width=".1524" transform="translate(-48.9062 -26.168199)"><text font-size="1.6933" lengthAdjust="spacingAndGlyphs" opacity="0" stroke-opacity="0" text-anchor="middle" textLength="4.0737" x="179.07001" y="106.553">GND</text><path d="m178.1024 105.288-.121-.0605"/><path d="m177.9814 105.2275h-.1814"/><path d="m177.8 105.2275-.1814.0605"/><path d="m177.6186 105.288-.121.121"/><path d="m177.4976 105.409-.0605.1209"/><path d="m177.4371 105.5299-.0604.2419"/><path d="m177.3767 105.7718v.1814"/><path d="m177.3767 105.9532.0604.2419"/><path d="m177.4371 106.1951.0605.121"/><path d="m177.4976 106.3161.121.121"/><path d="m177.6186 106.4371.1814.0604"/><path d="m177.8 106.4975h.1209"/><path d="m177.9209 106.4975.1815-.0604"/><path d="m178.1024 106.4371.0604-.0605"/><path d="m178.1628 106.3766v-.4234"/><path d="m178.1628 105.9532h-.2419"/><path d="m178.7071 106.4975v-1.27"/><path d="m178.7071 105.2275.7257 1.27"/><path d="m179.4328 106.4975v-1.27"/><path d="m180.0376 106.4975v-1.27"/><path d="m180.0376 105.2275h.3024"/><path d="m180.34 105.2275.1814.0605"/><path d="m180.5214 105.288.121.121"/><path d="m180.6424 105.409.0605.1209"/><path d="m180.7029 105.5299.0604.2419"/><path d="m180.7633 105.7718v.1814"/><path d="m180.7633 105.9532-.0604.2419"/><path d="m180.7029 106.1951-.0605.121"/><path d="m180.6424 106.3161-.121.121"/><path d="m180.5214 106.4371-.1814.0604"/><path d="m180.34 106.4975h-.3024"/></g><g fill="#840000" stroke="#840000" stroke-linecap="round" stroke-linejoin="round" stroke-width=".1524" transform="translate(-48.9062 -26.168199)"><path d="m169.672 97.028h.254v4.064h-.254z"/><path d="m172.847 97.028h.254v4.064h-.254z"/><path d="m170.2562 97.790001h.508v2.5908h-.508z"/><path d="m173.4312 97.790001h.508v2.5908h-.508z"/><g fill="none" stroke="#840000" stroke-linecap="round" stroke-linejoin="round"><path d="m169.672 99.06h-.762" stroke-width=".1524"/><path d="m170.942 99.06h-.254" stroke-width=".1524"/><path d="m171.45 99.06h-.254" stroke-width=".1524"/><path d="m171.958 99.06h-.254" stroke-width=".1524"/><path d="m172.466 99.06h-.254" stroke-width=".1524"/><path d="m172.974 99.06h-.254" stroke-width=".1524"/><path d="m168.783 98.806v-1.016" stroke-width=".254"/><path d="m168.275 98.298h1.016" stroke-width=".254"/></g></g><g fill="none" stroke="#840000" stroke-linecap="round" stroke-linejoin="round" stroke-width=".1524" transform="translate(-48.9062 -26.168199)"><path d="m168.91 99.06h-2.54"/><path d="m173.99 99.06h2.54"/></g><g fill="none" stroke="#006464" stroke-linecap="round" stroke-linejoin="round" stroke-width=".1524" transform="translate(-48.9062 -26.168199)"><text font-size="1.6933" lengthAdjust="spacingAndGlyphs" opacity="0" stroke-opacity="0" text-anchor="middle" textLength="3.6503" x="171.06889" y="93.344902">BT1</text><path d="m170.0711 92.6242.1814.0605"/><path d="m170.2525 92.6847.0605.0604"/><path d="m170.313 92.7451.0604.121"/><path d="m170.3734 92.8661v.1814"/><path d="m170.3734 93.0475-.0604.121"/><path d="m170.313 93.1685-.0605.0605"/><path d="m170.2525 93.229-.121.0604"/><path d="m170.1315 93.2894h-.4838"/><path d="m169.6477 93.2894v-1.27"/><path d="m169.6477 92.0194h.4234"/><path d="m170.0711 92.0194.1209.0605"/><path d="m170.192 92.0799.0605.0605"/><path d="m170.2525 92.1404.0605.1209"/><path d="m170.313 92.2613v.121"/><path d="m170.313 92.3823-.0605.1209"/><path d="m170.2525 92.5032-.0605.0605"/><path d="m170.192 92.5637-.1209.0605"/><path d="m170.0711 92.6242h-.4234"/><path d="m170.7363 92.0194h.7257"/><path d="m171.0992 93.2894v-1.27"/><path d="m172.5506 93.2894h-.7257"/><path d="m172.1877 93.2894v-1.27"/><path d="m172.1877 92.0194-.1209.1815"/><path d="m172.0668 92.2009-.121.1209"/><path d="m171.9458 92.3218-.1209.0605"/><text font-size="1.6933" lengthAdjust="spacingAndGlyphs" opacity="0" stroke-opacity="0" text-anchor="middle" textLength="2.3803" x="171.06889" y="95.884903">9v</text><path d="m170.3432 95.8294h.2419"/><path d="m170.5851 95.8294.121-.0604"/><path d="m170.7061 95.769.0604-.0605"/><path d="m170.7665 95.7085.121-.1815"/><path d="m170.8875 95.527.0605-.2419"/><path d="m170.948 95.2851v-.4838"/><path d="m170.948 94.8013-.0605-.1209"/><path d="m170.8875 94.6804-.0605-.0605"/><path d="m170.827 94.6199-.1209-.0605"/><path d="m170.7061 94.5594h-.2419"/><path d="m170.4642 94.5594-.121.0605"/><path d="m170.3432 94.6199-.0605.0605"/><path d="m170.2827 94.6804-.0604.1209"/><path d="m170.2223 94.8013v.3024"/><path d="m170.2223 95.1037.0604.121"/><path d="m170.2827 95.2247.0605.0604"/><path d="m170.3432 95.2851.121.0605"/><path d="m170.4642 95.3456h.2419"/><path d="m170.7061 95.3456.1209-.0605"/><path d="m170.827 95.2851.0605-.0604"/><path d="m170.8875 95.2247.0605-.121"/><path d="m171.3713 94.9828.3024.8466"/><path d="m171.6737 95.8294.3023-.8466"/><g fill="none" stroke="#840000" stroke-linecap="round" stroke-linejoin="round" stroke-width=".1524"><path d="m147.828 92.71.762-1.27"/><path d="m148.59 91.44.762 1.27"/><path d="m148.59 93.98v-2.54"/></g></g><g fill="none" stroke="#006464" stroke-linecap="round" stroke-linejoin="round" stroke-width=".1524" transform="translate(-48.9062 -26.168199)"><text font-size="1.6933" lengthAdjust="spacingAndGlyphs" opacity="0" stroke-opacity="0" text-anchor="middle" textLength="3.8318" x="148.59" y="90.551003">VCC</text><path d="m146.8966 89.2255.4233 1.27"/><path d="m147.3199 90.4955.4234-1.27"/><path d="m148.8923 90.3746-.0604.0605"/><path d="m148.8319 90.4351-.1815.0604"/><path d="m148.6504 90.4955h-.1209"/><path d="m148.5295 90.4955-.1814-.0604"/><path d="m148.3481 90.4351-.121-.121"/><path d="m148.2271 90.3141-.0605-.121"/><path d="m148.1666 90.1931-.0604-.2419"/><path d="m148.1062 89.9512v-.1814"/><path d="m148.1062 89.7698.0604-.2419"/><path d="m148.1666 89.5279.0605-.1209"/><path d="m148.2271 89.407.121-.121"/><path d="m148.3481 89.286.1814-.0605"/><path d="m148.5295 89.2255h.1209"/><path d="m148.6504 89.2255.1815.0605"/><path d="m148.8319 89.286.0604.0605"/><path d="m150.1623 90.3746-.0604.0605"/><path d="m150.1019 90.4351-.1815.0604"/><path d="m149.9204 90.4955h-.1209"/><path d="m149.7995 90.4955-.1814-.0604"/><path d="m149.6181 90.4351-.121-.121"/><path d="m149.4971 90.3141-.0605-.121"/><path d="m149.4366 90.1931-.0604-.2419"/><path d="m149.3762 89.9512v-.1814"/><path d="m149.3762 89.7698.0604-.2419"/><path d="m149.4366 89.5279.0605-.1209"/><path d="m149.4971 89.407.121-.121"/><path d="m149.6181 89.286.1814-.0605"/><path d="m149.7995 89.2255h.1209"/><path d="m149.9204 89.2255.1815.0605"/><path d="m150.1019 89.286.0604.0605"/></g><path d="m106.6688 69.081801h6.35v7.62h-6.35z" fill="#ffffc2"/><g stroke-linecap="round" stroke-linejoin="round"><g fill="none" stroke="#840000" stroke-width=".1524" transform="translate(-48.9062 -26.168199)"><circle cx="160.782" cy="99.059998" r=".4572"/><path d="m160.401 98.806-3.302-2.032" fill="none" stroke="#840000" stroke-linecap="round" stroke-linejoin="round" stroke-width=".1524"/><circle cx="156.718" cy="96.519997" r=".4572"/><circle cx="156.718" cy="101.6" r=".4572"/><path d="m155.575 95.25h6.35v7.62h-6.35z"/><path d="m161.29 99.06h2.54"/></g><g fill="none" stroke="#a90000" stroke-width=".1524" transform="translate(-48.9062 -26.168199)"><text font-size="1.6933" lengthAdjust="spacingAndGlyphs" opacity="0" stroke-opacity="0" text-anchor="middle" textLength="1.4127001" x="162.56" y="98.806">2</text><path d="m162.1972 97.4935.0604-.0605"/><path d="m162.2576 97.433.121-.0605"/><path d="m162.3786 97.3725h.3024"/><path d="m162.681 97.3725.1209.0605"/><path d="m162.8019 97.433.0605.0605"/><path d="m162.8624 97.4935.0605.1209"/><path d="m162.9229 97.6144v.121"/><path d="m162.9229 97.7354-.0605.1814"/><path d="m162.8624 97.9168-.7257.7257"/><path d="m162.1367 98.6425h.7862"/></g><path d="m156.21 96.52h-2.54" fill="none" stroke="#840000" stroke-width=".1524" transform="translate(-48.9062 -26.168199)"/><g fill="none" stroke="#a90000" stroke-width=".1524" transform="translate(-48.9062 -26.168199)"><text font-size="1.6933" lengthAdjust="spacingAndGlyphs" opacity="0" stroke-opacity="0" text-anchor="middle" textLength="1.4127001" x="154.94" y="96.265999">1</text><path d="m155.3029 96.1025h-.7257"/><path d="m154.94 96.1025v-1.27"/><path d="m154.94 94.8325-.1209.1815"/><path d="m154.8191 95.014-.121.1209"/><path d="m154.6981 95.1349-.1209.0605"/></g><path d="m156.21 101.6h-2.54" fill="none" stroke="#840000" stroke-width=".1524" transform="translate(-48.9062 -26.168199)"/><g fill="none" stroke="#a90000" stroke-width=".1524" transform="translate(-48.9062 -26.168199)"><text font-size="1.6933" lengthAdjust="spacingAndGlyphs" opacity="0" stroke-opacity="0" text-anchor="middle" textLength="1.4127001" x="154.94" y="101.346">3</text><path d="m154.5167 99.9125h.7862"/><path d="m155.3029 99.9125-.4234.4838"/><path d="m154.8795 100.3963h.1815"/><path d="m155.061 100.3963.1209.0605"/><path d="m155.1819 100.4568.0605.0605"/><path d="m155.2424 100.5173.0605.1209"/><path d="m155.3029 100.6382v.3024"/><path d="m155.3029 100.9406-.0605.121"/><path d="m155.2424 101.0616-.0605.0605"/><path d="m155.1819 101.1221-.1209.0604"/><path d="m155.061 101.1825h-.3629"/><path d="m154.6981 101.1825-.1209-.0604"/><path d="m154.5772 101.1221-.0605-.0605"/></g><g fill="none" stroke="#006464" stroke-width=".1524" transform="translate(-48.9062 -26.168199)"><text font-size="1.6933" lengthAdjust="spacingAndGlyphs" opacity="0" stroke-opacity="0" text-anchor="middle" textLength="4.0735998" x="157.7196" y="90.551003">SW3</text><path d="m156.0263 90.4351.1814.0604"/><path d="m156.2077 90.4955h.3024"/><path d="m156.5101 90.4955.1209-.0604"/><path d="m156.631 90.4351.0605-.0605"/><path d="m156.6915 90.3746.0605-.121"/><path d="m156.752 90.2536v-.1209"/><path d="m156.752 90.1327-.0605-.121"/><path d="m156.6915 90.0117-.0605-.0605"/><path d="m156.631 89.9512-.1209-.0604"/><path d="m156.5101 89.8908-.2419-.0605"/><path d="m156.2682 89.8303-.121-.0605"/><path d="m156.1472 89.7698-.0605-.0605"/><path d="m156.0867 89.7093-.0604-.1209"/><path d="m156.0263 89.5884v-.121"/><path d="m156.0263 89.4674.0604-.1209"/><path d="m156.0867 89.3465.0605-.0605"/><path d="m156.1472 89.286.121-.0605"/><path d="m156.2682 89.2255h.3023"/><path d="m156.5705 89.2255.1815.0605"/><path d="m157.1753 89.2255.3024 1.27"/><path d="m157.4777 90.4955.2419-.9071"/><path d="m157.7196 89.5884.2419.9071"/><path d="m157.9615 90.4955.3024-1.27"/><path d="m158.6267 89.2255h.7862"/><path d="m159.4129 89.2255-.4234.4838"/><path d="m158.9895 89.7093h.1815"/><path d="m159.171 89.7093.1209.0605"/><path d="m159.2919 89.7698.0605.0605"/><path d="m159.3524 89.8303.0605.1209"/><path d="m159.4129 89.9512v.3024"/><path d="m159.4129 90.2536-.0605.121"/><path d="m159.3524 90.3746-.0605.0605"/><path d="m159.2919 90.4351-.1209.0604"/><path d="m159.171 90.4955h-.3629"/><path d="m158.8081 90.4955-.1209-.0604"/><path d="m158.6872 90.4351-.0605-.0605"/><text font-size="1.6933" lengthAdjust="spacingAndGlyphs" opacity="0" stroke-opacity="0" text-anchor="middle" textLength="8.5488005" x="158.784" y="92.836998">SW_SPDT</text><path d="m154.8531 92.7211.1814.0604"/><path d="m155.0345 92.7815h.3024"/><path d="m155.3369 92.7815.1209-.0604"/><path d="m155.4578 92.7211.0605-.0605"/><path d="m155.5183 92.6606.0605-.121"/><path d="m155.5788 92.5396v-.1209"/><path d="m155.5788 92.4187-.0605-.121"/><path d="m155.5183 92.2977-.0605-.0605"/><path d="m155.4578 92.2372-.1209-.0604"/><path d="m155.3369 92.1768-.2419-.0605"/><path d="m155.095 92.1163-.121-.0605"/><path d="m154.974 92.0558-.0605-.0605"/><path d="m154.9135 91.9953-.0604-.1209"/><path d="m154.8531 91.8744v-.121"/><path d="m154.8531 91.7534.0604-.1209"/><path d="m154.9135 91.6325.0605-.0605"/><path d="m154.974 91.572.121-.0605"/><path d="m155.095 91.5115h.3023"/><path d="m155.3973 91.5115.1815.0605"/><path d="m156.0021 91.5115.3024 1.27"/><path d="m156.3045 92.7815.2419-.9071"/><path d="m156.5464 91.8744.2419.9071"/><path d="m156.7883 92.7815.3024-1.27"/><path d="m157.2721 92.9025h.9676"/><path d="m158.4816 92.7211.1814.0604"/><path d="m158.663 92.7815h.3024"/><path d="m158.9654 92.7815.1209-.0604"/><path d="m159.0863 92.7211.0605-.0605"/><path d="m159.1468 92.6606.0605-.121"/><path d="m159.2073 92.5396v-.1209"/><path d="m159.2073 92.4187-.0605-.121"/><path d="m159.1468 92.2977-.0605-.0605"/><path d="m159.0863 92.2372-.1209-.0604"/><path d="m158.9654 92.1768-.2419-.0605"/><path d="m158.7235 92.1163-.121-.0605"/><path d="m158.6025 92.0558-.0605-.0605"/><path d="m158.542 91.9953-.0604-.1209"/><path d="m158.4816 91.8744v-.121"/><path d="m158.4816 91.7534.0604-.1209"/><path d="m158.542 91.6325.0605-.0605"/><path d="m158.6025 91.572.121-.0605"/><path d="m158.7235 91.5115h.3023"/><path d="m159.0258 91.5115.1815.0605"/><path d="m159.7515 92.7815v-1.27"/><path d="m159.7515 91.5115h.4838"/><path d="m160.2353 91.5115.121.0605"/><path d="m160.3563 91.572.0605.0605"/><path d="m160.4168 91.6325.0604.1209"/><path d="m160.4772 91.7534v.1815"/><path d="m160.4772 91.9349-.0604.1209"/><path d="m160.4168 92.0558-.0605.0605"/><path d="m160.3563 92.1163-.121.0605"/><path d="m160.2353 92.1768h-.4838"/><path d="m161.0215 92.7815v-1.27"/><path d="m161.0215 91.5115h.3024"/><path d="m161.3239 91.5115.1814.0605"/><path d="m161.5053 91.572.121.121"/><path d="m161.6263 91.693.0605.1209"/><path d="m161.6868 91.8139.0604.2419"/><path d="m161.7472 92.0558v.1814"/><path d="m161.7472 92.2372-.0604.2419"/><path d="m161.6868 92.4791-.0605.121"/><path d="m161.6263 92.6001-.121.121"/><path d="m161.5053 92.7211-.1814.0604"/><path d="m161.3239 92.7815h-.3024"/><path d="m162.1101 91.5115h.7257"/><path d="m162.473 92.7815v-1.27"/></g><g fill="none" stroke="#009600" stroke-width=".1524" transform="translate(-48.9062 -26.168199)"><path d="m166.37 99.06h-2.54"/><path d="m179.07 99.06h-2.54"/><path d="m179.07 99.06v2.54"/><path d="m148.59 96.52h5.08"/><path d="m148.59 93.98v2.54"/></g><g fill="none" stroke="#000084" stroke-width=".1524" transform="translate(-48.9062 -26.168199)"><path d="m153.0604 100.9904 1.2192 1.2192"/><path d="m154.2796 100.9904-1.2192 1.2192"/></g></g></svg>